<?xml version="1.0" encoding="utf-8"?>
<!-- Generator: Adobe Illustrator 19.0.0, SVG Export Plug-In . SVG Version: 6.00 Build 0)  -->
<svg width="100px" height="auto" viewBox="0 0 478.5 480" version="1.1" xmlns:xlink="http://www.w3.org/1999/xlink" xmlns="http://www.w3.org/2000/svg">
<style type="text/css">
	.st0{fill:none;stroke:#FFFFFF;stroke-width:8;stroke-miterlimit:10;}
	.st1{fill:#FFFFFF;}
	.st2{display:none;}
	.st3{display:inline;}
</style>
<g id="Layer_1">
	<circle id="XMLID_1_" class="st0" cx="239.9" cy="239.5" r="231.4"/>
	<g id="XMLID_2_">
		<path id="XMLID_54_" class="st1" d="M130,208.1c-4-6.7-9.3-12.1-15.9-16c-6.7-3.9-14.1-5.9-22.2-5.9c-9.1,0-17.5,2.6-25,7.6
			c-1.9,1.3-3.7,3.8-5.4,5.3l-0.1-9.1H44.9v122h15v-48.5c1,1.4,4,2.6,5.7,3.8c7.4,5,16.3,7.6,25.5,7.6c8.1,0,15.8-1.9,22.5-5.8
			c6.7-3.8,12.2-9.2,16.2-15.8c4-6.7,6.1-14.3,6.1-22.5C135.9,222.5,134,214.9,130,208.1z M91.4,200.6c5.5,0,10.4,1.3,14.8,4
			c4.5,2.7,8,6.3,10.8,10.9c2.7,4.6,4,9.6,4,15.3c0,5.5-1.3,10.4-4,14.9c-2.7,4.6-6.3,8.2-10.8,10.9c-4.5,2.7-9.4,4-15,4
			c-5.4,0-10.2-1.2-14.6-3.8c-4.5-2.6-8.9-6-11.7-10.5c-2.7-4.3-5.1-9-5.1-14.2v-1.9c0-5.5,2.2-10.4,4.8-14.8
			c2.7-4.5,6.7-8.1,11.3-10.8C80.6,201.9,85.9,200.6,91.4,200.6z"/>
		<path id="XMLID_60_" class="st1" d="M330.3,208.1c-4-6.7-9.3-12.1-15.9-16c-6.7-3.9-14.1-5.9-22.2-5.9c-9.1,0-17.5,2.6-25,7.6
			c-1.9,1.3-3.7,3.8-5.4,5.3l-0.1-9.1h-16.8v122h15v-48.5c2,1.4,4.2,2.6,5.9,3.8c7.4,5,16.3,7.6,25.6,7.6c8.1,0,15.8-1.9,22.5-5.8
			c6.7-3.8,12.2-9.2,16.2-15.8c4-6.7,6.1-14.3,6.1-22.5C336.2,222.5,334.3,214.9,330.3,208.1z M291.7,200.6c5.5,0,10.4,1.3,14.8,4
			c4.5,2.7,8,6.3,10.8,10.9c2.7,4.6,4,9.6,4,15.3c0,5.5-1.3,10.4-4,14.9c-2.7,4.6-6.3,8.2-10.8,10.9c-4.5,2.7-9.4,4-15,4
			c-5.4,0-10.2-1.2-14.6-3.8c-4.5-2.6-9-6-11.8-10.5c-2.7-4.3-5.2-9-5.2-14.2v-1.9c0-5.5,2.3-10.4,5-14.8c2.7-4.5,6.8-8.1,11.4-10.8
			C280.8,201.9,286.2,200.6,291.7,200.6z"/>
		<g id="XMLID_31_">
			<polygon id="XMLID_32_" class="st1" points="408.7,210.3 419.6,207.5 423.5,197 429.5,206.5 440.7,206.9 433.6,215.6 
				436.6,226.4 426.2,222.2 416.8,228.4 417.6,217.2 			"/>
		</g>
		<path id="XMLID_8_" class="st1" d="M411.6,252.5c-2.7,2.5-5.8,4.4-9.4,5.9c-3.5,1.4-7.2,2.2-11.1,2.2c-6.1,0-11.2-1.4-15.6-4.2
			c-4-2.6-7.1-5.7-9.4-9.6l48.3-19.6l0.5-8.4l-6.3-4.9l-47.1,19c-0.1-0.8-0.1-1.5-0.1-2.3c0-5.6,1.3-10.5,3.9-15.1
			c2.7-4.6,6.1-8.2,10.6-10.9c4.5-2.7,9.3-4,14.8-4c5.7,0,10.5,1.7,14.6,5.1c0.8,0.7,1.5,1.3,2.2,2l10.1-2.6l2.3-6.3
			c-1.4-1.5-2.9-2.9-4.5-4.3c-6.7-5.7-15-8.5-24.6-8.5c-8.2,0-15.8,2-22.5,6c-6.7,4-12,9.4-16,16.1c-4,6.8-6,14.3-6,22.4
			c0,8.2,2,15.8,6,22.5c4,6.7,9.4,12,16,15.9c6.7,3.9,14.3,5.9,22.5,5.9c5.8,0,11.4-1.1,16.6-3.2c5.1-2.1,9.7-4.8,13.7-8.2l4.4-3.7
			l-10.2-11L411.6,252.5z"/>
		<g id="XMLID_4_">
			<polygon id="XMLID_7_" class="st1" points="208.7,210.3 219.6,207.5 223.5,197 229.5,206.5 240.7,206.9 233.6,215.6 236.6,226.4 
				226.2,222.2 216.8,228.4 217.6,217.2 			"/>
		</g>
		<path id="XMLID_33_" class="st1" d="M211.6,252.5c-2.7,2.5-5.8,4.4-9.4,5.9c-3.5,1.4-7.2,2.2-11.1,2.2c-6.1,0-11.2-1.4-15.6-4.2
			c-4-2.6-7.1-5.7-9.4-9.6l48.3-19.6l0.5-8.4l-6.3-4.9l-47.1,19c-0.1-0.8-0.1-1.5-0.1-2.3c0-5.6,1.3-10.5,3.9-15.1
			c2.7-4.6,6.1-8.2,10.6-10.9c4.5-2.7,9.3-4,14.8-4c5.7,0,10.5,1.7,14.6,5.1c0.8,0.7,1.5,1.3,2.2,2l10.1-2.6l2.3-6.3
			c-1.4-1.5-2.9-2.9-4.5-4.3c-6.7-5.7-15-8.5-24.6-8.5c-8.2,0-15.8,2-22.5,6c-6.7,4-12,9.4-16,16.1c-4,6.8-6,14.3-6,22.4
			c0,8.2,2,15.8,6,22.5c4,6.7,9.4,12,16,15.9c6.7,3.9,14.3,5.9,22.5,5.9c5.8,0,11.4-1.1,16.6-3.2c5.1-2.1,9.7-4.8,13.7-8.2l4.4-3.7
			l-10.2-11L211.6,252.5z"/>
	</g>
</g>
<g id="Layer_2" class="st2">
	<g id="XMLID_105_" class="st3">
		<text id="XMLID_3_" transform="matrix(1 0 0 1 530.3484 -76.3133)"><tspan x="0" y="0" style="font-family:'JosefinSans-Thin'; font-size:12px;">Kadernictvo pepe</tspan><tspan x="0" y="14.4" style="font-family:'JosefinSans-Thin'; font-size:12px;">Jozef Hausler</tspan><tspan x="0" y="28.8" style="font-family:'JosefinSans-Thin'; font-size:12px;">Hodalova 10</tspan><tspan x="0" y="43.2" style="font-family:'JosefinSans-Thin'; font-size:12px;">Bratislava </tspan><tspan x="0" y="57.6" style="font-family:'JosefinSans-Thin'; font-size:12px;">841 04</tspan></text>
		<g id="XMLID_103_">
			<path id="XMLID_39_" class="st1" d="M591.8,236.5c-4-6.7-9.3-12.1-15.9-16c-6.7-3.9-14.1-5.9-22.2-5.9c-9.1,0-17.5,2.6-25,7.6
				c-1.9,1.3-3.7,2.6-5.4,4.1l-0.1-10.3h-14.3v122h15v-46.1c1,1.4,2.9,2.6,4.7,3.8c7.4,5,15.7,7.6,25,7.6c8.1,0,15.5-1.9,22.2-5.8
				c6.7-3.8,12.1-9.2,16-15.8c4-6.7,6-14.3,6-22.5C597.8,250.9,595.8,243.3,591.8,236.5z M553.3,228.9c5.5,0,10.4,1.3,14.8,4
				c4.5,2.7,8,6.3,10.8,10.9c2.7,4.6,4,9.6,4,15.3c0,5.5-1.3,10.4-4,14.9c-2.7,4.6-6.3,8.2-10.8,10.9c-4.5,2.7-9.4,4-15,4
				c-5.4,0-10.2-1.2-14.6-3.8c-4.5-2.6-7.8-6-10.6-10.5c-2.7-4.3-4-9-4-14.2v-1.9c0-5.5,1.1-10.4,3.8-14.8
				c2.7-4.5,6.2-8.1,10.8-10.8C543,230.2,547.7,228.9,553.3,228.9z"/>
			<g id="XMLID_17_">
				<path id="XMLID_21_" class="st1" d="M753.7,297.8c-8.2,0-15.5-2.2-22-6.6c-6.5-4.4-11.2-10.1-14.1-17.1l0.6-4.8v63.2h-4V221.6
					h3.8l0.2,28l-0.4-5.7c2.9-7,7.6-12.7,14.2-17.1c6.5-4.4,13.8-6.6,21.9-6.6c7.1,0,13.6,1.7,19.4,5.2c5.8,3.4,10.5,8.1,14,14.1
					c3.5,5.9,5.3,12.6,5.3,19.8c0,7.3-1.8,13.8-5.3,19.7c-3.5,5.9-8.2,10.5-14.1,13.9C767.3,296.1,760.8,297.8,753.7,297.8z
					 M753.3,294.4c6.6,0,12.6-1.6,17.8-4.8c5.3-3.2,9.5-7.4,12.7-12.8c3.2-5.4,4.8-11.3,4.8-17.7c0-6.6-1.6-12.6-4.8-18
					c-3.2-5.4-7.4-9.7-12.7-12.9c-5.3-3.2-11.2-4.8-17.6-4.8c-6.5,0-12.4,1.6-17.7,4.8s-9.6,7.4-12.8,12.7
					c-3.2,5.3-4.8,11.2-4.8,17.6v2c0.1,6.2,1.8,11.9,5.1,17c3.2,5.2,7.5,9.3,12.7,12.3C741.2,292.9,746.9,294.4,753.3,294.4z"/>
				<path id="XMLID_27_" class="st1" d="M723.7,338h-15V216.1h14.7l0.1,10.2c1.7-1.5,3.4-2.9,5.4-4.2c7.4-5,15.8-7.6,25-7.6
					c8.1,0,15.6,2,22.2,5.9c6.6,3.9,12,9.3,15.9,16c4,6.8,6,14.4,6,22.6c0,8.2-2,15.8-6,22.5c-4,6.7-9.4,12-16.1,15.8
					c-6.7,3.8-14.2,5.8-22.3,5.8c-9.3,0-17.7-2.6-25.1-7.6c-1.7-1.2-3.4-2.5-4.9-3.8V338z M723.7,260.4c0.1,5.2,1.5,9.9,4.2,14.2
					c2.8,4.4,6.3,7.9,10.8,10.5c4.4,2.6,9.2,3.8,14.6,3.8c5.6,0,10.6-1.3,15-4c4.5-2.7,8.1-6.3,10.8-10.9c2.7-4.5,4-9.4,4-14.9
					c0-5.7-1.3-10.7-4-15.3c-2.7-4.7-6.2-8.2-10.8-10.9c-4.5-2.7-9.3-4-14.8-4c-5.5,0-10.4,1.3-14.9,4c-4.6,2.7-8.2,6.3-10.9,10.8
					c-2.7,4.5-4,9.3-4,14.8V260.4z"/>
			</g>
			<g id="XMLID_9_">
				<polygon id="XMLID_10_" class="st1" points="870.6,238.7 881.5,235.9 885.4,225.3 891.4,234.8 902.6,235.3 895.4,243.9 
					898.4,254.7 888,250.6 878.7,256.8 879.4,245.6 				"/>
			</g>
			<g id="XMLID_11_">
				<polygon id="XMLID_15_" class="st1" points="737.6,254.7 748.5,251.9 752.4,241.3 758.4,250.8 769.6,251.3 762.4,259.9 
					765.4,270.7 755,266.6 745.7,272.8 746.4,261.6 				"/>
			</g>
			<g id="XMLID_16_">
				<polygon id="XMLID_19_" class="st1" points="537.6,256.7 548.5,253.9 552.4,243.3 558.4,252.8 569.6,253.3 562.4,261.9 
					565.4,272.7 555,268.6 545.7,274.8 546.4,263.6 				"/>
			</g>
			<path id="XMLID_23_" class="st1" d="M873.5,280.8c-2.7,2.5-5.8,4.4-9.4,5.9c-3.5,1.4-7.2,2.2-11.1,2.2c-6.1,0-11.2-1.4-15.6-4.2
				c-4-2.6-7.1-5.7-9.4-9.6l48.3-19.6l0.5-8.4l-6.3-4.9l-47.1,19c-0.1-0.8-0.1-1.5-0.1-2.3c0-5.6,1.3-10.5,3.9-15.1
				c2.7-4.6,6.1-8.2,10.6-10.9c4.5-2.7,9.3-4,14.8-4c5.7,0,10.5,1.7,14.6,5.1c0.8,0.7,1.5,1.3,2.2,2l10.1-2.6l2.3-6.3
				c-1.4-1.5-2.9-2.9-4.5-4.3c-6.7-5.7-15-8.5-24.6-8.5c-8.2,0-15.8,2-22.5,6c-6.7,4-12,9.4-16,16.1c-4,6.8-6,14.3-6,22.4
				c0,8.2,2,15.8,6,22.5c4,6.7,9.4,12,16,15.9c6.7,3.9,14.3,5.9,22.5,5.9c5.8,0,11.4-1.1,16.6-3.2c5.1-2.1,9.7-4.8,13.7-8.2l4.4-3.7
				l-10.2-11L873.5,280.8z"/>
			<g id="XMLID_13_">
				<polygon id="XMLID_18_" class="st1" points="670.6,238.7 681.5,235.9 685.4,225.3 691.4,234.8 702.6,235.3 695.4,243.9 
					698.4,254.7 688,250.6 678.7,256.8 679.4,245.6 				"/>
			</g>
			<path id="XMLID_12_" class="st1" d="M673.5,280.8c-2.7,2.5-5.8,4.4-9.4,5.9c-3.5,1.4-7.2,2.2-11.1,2.2c-6.1,0-11.2-1.4-15.6-4.2
				c-4-2.6-7.1-5.7-9.4-9.6l48.3-19.6l0.5-8.4l-6.3-4.9l-47.1,19c-0.1-0.8-0.1-1.5-0.1-2.3c0-5.6,1.3-10.5,3.9-15.1
				c2.7-4.6,6.1-8.2,10.6-10.9c4.5-2.7,9.3-4,14.8-4c5.7,0,10.5,1.7,14.6,5.1c0.8,0.7,1.5,1.3,2.2,2l10.1-2.6l2.3-6.3
				c-1.4-1.5-2.9-2.9-4.5-4.3c-6.7-5.7-15-8.5-24.6-8.5c-8.2,0-15.8,2-22.5,6c-6.7,4-12,9.4-16,16.1c-4,6.8-6,14.3-6,22.4
				c0,8.2,2,15.8,6,22.5c4,6.7,9.4,12,16,15.9c6.7,3.9,14.3,5.9,22.5,5.9c5.8,0,11.4-1.1,16.6-3.2c5.1-2.1,9.7-4.8,13.7-8.2l4.4-3.7
				l-10.2-11L673.5,280.8z"/>
		</g>
		<g id="XMLID_104_">
			<path id="XMLID_46_" class="st1" d="M594.8,46.1c-4-6.7-9.3-12.1-15.9-16c-6.7-3.9-14.1-5.9-22.2-5.9c-9.1,0-17.5,2.6-25,7.6
				c-1.9,1.3-3.7,2.8-5.4,4.3L526.2,26h-14.3v122h15v-46.5c1,1.4,2.9,2.6,4.7,3.8c7.4,5,15.7,7.6,25,7.6c8.1,0,15.5-1.9,22.2-5.8
				c6.7-3.8,12.1-9.2,16-15.8c4-6.7,6-14.3,6-22.5C600.8,60.5,598.8,52.9,594.8,46.1z M556.3,38.6c5.5,0,10.4,1.3,14.8,4
				c4.5,2.7,8,6.3,10.8,10.9c2.7,4.6,4,9.6,4,15.3c0,5.5-1.3,10.4-4,14.9c-2.7,4.6-6.3,8.2-10.8,10.9c-4.5,2.7-9.4,4-15,4
				c-5.4,0-10.2-1.2-14.6-3.8c-4.5-2.6-7.8-6-10.6-10.5c-2.7-4.3-4-9-4-14.2v-1.9c0-5.5,1.1-10.4,3.8-14.8
				c2.7-4.5,6.2-8.1,10.8-10.8C546,39.9,550.7,38.6,556.3,38.6z"/>
			<path id="XMLID_63_" class="st1" d="M795,46.1c-4-6.7-9.3-12.1-15.9-16c-6.7-3.9-14.1-5.9-22.2-5.9c-9.1,0-17.5,2.6-25,7.6
				c-1.9,1.3-3.7,2.8-5.4,4.3L726.5,26h-14.6v122h15v-46.5c1,1.4,3,2.6,4.8,3.8c7.4,5,15.8,7.6,25.1,7.6c8.1,0,15.5-1.9,22.2-5.8
				c6.7-3.8,12.1-9.2,16.1-15.8c4-6.7,6-14.3,6-22.5C801,60.5,799,52.9,795,46.1z M756.5,38.6c5.5,0,10.4,1.3,14.8,4
				c4.5,2.7,8,6.3,10.8,10.9c2.7,4.6,4,9.6,4,15.3c0,5.5-1.3,10.4-4,14.9c-2.7,4.6-6.3,8.2-10.8,10.9c-4.5,2.7-9.4,4-15,4
				c-5.4,0-10.2-1.2-14.6-3.8c-4.5-2.6-7.9-6-10.7-10.5c-2.7-4.3-4.1-9-4.1-14.2v-1.9c0-5.5,1.2-10.4,3.9-14.8
				c2.7-4.5,6.2-8.1,10.8-10.8C746.1,39.9,751,38.6,756.5,38.6z"/>
			<g id="XMLID_35_">
				<polygon id="XMLID_36_" class="st1" points="873.6,48.3 884.5,45.5 888.4,35 894.4,44.5 905.6,44.9 898.4,53.6 901.4,64.4 
					891,60.2 881.7,66.5 882.4,55.2 				"/>
			</g>
			<path id="XMLID_30_" class="st1" d="M876.5,90.5c-2.7,2.5-5.8,4.4-9.4,5.9c-3.5,1.4-7.2,2.2-11.1,2.2c-6.1,0-11.2-1.4-15.6-4.2
				c-4-2.6-7.1-5.7-9.4-9.6l48.3-19.6l0.5-8.4l-6.3-4.9l-47.1,19c-0.1-0.8-0.1-1.5-0.1-2.3c0-5.6,1.3-10.5,3.9-15.1
				c2.7-4.6,6.1-8.2,10.6-10.9c4.5-2.7,9.3-4,14.8-4c5.7,0,10.5,1.7,14.6,5.1c0.8,0.7,1.5,1.3,2.2,2l10.1-2.6l2.3-6.3
				c-1.4-1.5-2.9-2.9-4.5-4.3c-6.7-5.7-15-8.5-24.6-8.5c-8.2,0-15.8,2-22.5,6c-6.7,4-12,9.4-16,16.1c-4,6.8-6,14.3-6,22.4
				c0,8.2,2,15.8,6,22.5c4,6.7,9.4,12,16,15.9c6.7,3.9,14.3,5.9,22.5,5.9c5.8,0,11.4-1.1,16.6-3.2c5.1-2.1,9.7-4.8,13.7-8.2l4.4-3.7
				l-10.2-11L876.5,90.5z"/>
			<g id="XMLID_22_">
				<polygon id="XMLID_24_" class="st1" points="673.6,48.3 684.5,45.5 688.4,35 694.4,44.5 705.6,44.9 698.4,53.6 701.4,64.4 
					691,60.2 681.7,66.5 682.4,55.2 				"/>
			</g>
			<path id="XMLID_20_" class="st1" d="M676.5,90.5c-2.7,2.5-5.8,4.4-9.4,5.9c-3.5,1.4-7.2,2.2-11.1,2.2c-6.1,0-11.2-1.4-15.6-4.2
				c-4-2.6-7.1-5.7-9.4-9.6l48.3-19.6l0.5-8.4l-6.3-4.9l-47.1,19c-0.1-0.8-0.1-1.5-0.1-2.3c0-5.6,1.3-10.5,3.9-15.1
				c2.7-4.6,6.1-8.2,10.6-10.9c4.5-2.7,9.3-4,14.8-4c5.7,0,10.5,1.7,14.6,5.1c0.8,0.7,1.5,1.3,2.2,2l10.1-2.6l2.3-6.3
				c-1.4-1.5-2.9-2.9-4.5-4.3c-6.7-5.7-15-8.5-24.6-8.5c-8.2,0-15.8,2-22.5,6c-6.7,4-12,9.4-16,16.1c-4,6.8-6,14.3-6,22.4
				c0,8.2,2,15.8,6,22.5c4,6.7,9.4,12,16,15.9c6.7,3.9,14.3,5.9,22.5,5.9c5.8,0,11.4-1.1,16.6-3.2c5.1-2.1,9.7-4.8,13.7-8.2l4.4-3.7
				l-10.2-11L676.5,90.5z"/>
		</g>
		<g id="XMLID_84_">
			<path id="XMLID_68_" class="st1" d="M591.8,427.4c-4-6.7-9.3-12.1-15.9-16c-6.7-3.9-14.1-5.9-22.2-5.9c-9.1,0-17.5,2.6-25,7.6
				c-1.9,1.3-3.7,2.7-5.4,4.2l-0.1-10.3h-14.3v122h15v-46.2c1,1.4,2.9,2.6,4.7,3.8c7.4,5,15.7,7.6,25,7.6c8.1,0,15.5-1.9,22.2-5.8
				c6.7-3.8,12.1-9.2,16-15.8c4-6.7,6-14.3,6-22.5C597.8,441.8,595.8,434.2,591.8,427.4z M553.3,419.9c5.5,0,10.4,1.3,14.8,4
				c4.5,2.7,8,6.3,10.8,10.9c2.7,4.6,4,9.6,4,15.3c0,5.5-1.3,10.4-4,14.9c-2.7,4.6-6.3,8.2-10.8,10.9c-4.5,2.7-9.4,4-15,4
				c-5.4,0-10.2-1.2-14.6-3.8c-4.5-2.6-7.8-6-10.6-10.5c-2.7-4.3-4-9-4-14.2v-1.9c0-5.5,1.1-10.4,3.8-14.8
				c2.7-4.5,6.2-8.1,10.8-10.8C543,421.2,547.7,419.9,553.3,419.9z"/>
			<path id="XMLID_73_" class="st1" d="M792,427.4c-4-6.7-9.3-12.1-15.9-16c-6.7-3.9-14.1-5.9-22.2-5.9c-9.1,0-17.5,2.6-25,7.6
				c-1.9,1.3-3.7,2.7-5.4,4.2l-0.1-10.3h-14.6v122h15v-46.2c1,1.4,3,2.6,4.8,3.8c7.4,5,15.8,7.6,25.1,7.6c8.1,0,15.5-1.9,22.2-5.8
				c6.7-3.8,12.1-9.2,16.1-15.8c4-6.7,6-14.3,6-22.5C798,441.8,796,434.2,792,427.4z M753.5,419.9c5.5,0,10.4,1.3,14.8,4
				c4.5,2.7,8,6.3,10.8,10.9c2.7,4.6,4,9.6,4,15.3c0,5.5-1.3,10.4-4,14.9c-2.7,4.6-6.3,8.2-10.8,10.9c-4.5,2.7-9.4,4-15,4
				c-5.4,0-10.2-1.2-14.6-3.8c-4.5-2.6-7.9-6-10.7-10.5c-2.7-4.3-4.1-9-4.1-14.2v-1.9c0-5.5,1.2-10.4,3.9-14.8
				c2.7-4.5,6.2-8.1,10.8-10.8C743.1,421.2,748,419.9,753.5,419.9z"/>
			<g id="XMLID_53_">
				<polygon id="XMLID_57_" class="st1" points="877.1,436.7 888.2,438.2 895.7,429.9 897.7,441 908,445.6 898.1,450.9 896.8,462.1 
					888.7,454.3 877.7,456.6 882.6,446.5 				"/>
			</g>
			<path id="XMLID_52_" class="st1" d="M863.9,476.9c-3.4,1.3-7.1,1.9-10.9,2c-3.8,0-7.5-0.7-11.1-2.2c-5.7-2.3-9.9-5.5-12.8-9.7
				c-2.7-3.9-4.4-7.9-5.1-12.4l52.2,0l3.7-7.6l-3.9-6.9l-50.8-0.1c0.2-0.7,0.5-1.5,0.8-2.2c2.1-5.1,5.1-9.2,9.3-12.5
				c4.2-3.3,8.8-5.3,14-6.1c5.1-0.8,10.1-0.2,15.2,1.9c5.3,2.2,9.1,5.5,11.6,10.2c0.5,0.9,0.9,1.8,1.3,2.7l10.4,1.4l4.5-5
				c-0.7-1.9-1.6-3.8-2.6-5.6c-4.1-7.8-10.7-13.5-19.6-17.1c-7.6-3.1-15.4-4.1-23.2-2.9c-7.7,1.2-14.7,4.2-20.9,8.9
				c-6.2,4.8-10.9,11-14,18.5c-3.1,7.6-4.1,15.4-2.9,23.2c1.2,7.7,4.2,14.6,8.9,20.8c4.7,6.1,11,10.8,18.6,13.9
				c5.4,2.2,11,3.3,16.6,3.3c5.5,0,10.8-0.8,15.8-2.5l5.4-1.8l-5.3-14L863.9,476.9z"/>
			<g id="XMLID_50_">
				<polygon id="XMLID_51_" class="st1" points="677,436.5 688.1,438 695.6,429.6 697.7,440.7 707.9,445.2 698,450.6 696.9,461.8 
					688.7,454 677.7,456.4 682.6,446.2 				"/>
			</g>
			<path id="XMLID_49_" class="st1" d="M664,476.8c-3.4,1.3-7.1,2-10.9,2c-3.8,0-7.5-0.7-11.1-2.1c-5.7-2.3-9.9-5.4-12.9-9.6
				c-2.7-3.8-4.4-7.9-5.2-12.4l52.2-0.3l3.6-7.6l-4-6.9l-50.8,0.2c0.2-0.7,0.5-1.5,0.8-2.2c2.1-5.2,5.1-9.3,9.3-12.6
				c4.2-3.3,8.7-5.3,13.9-6.2c5.1-0.8,10.1-0.2,15.2,1.8c5.3,2.1,9.1,5.4,11.7,10.1c0.5,0.9,0.9,1.8,1.3,2.7l10.4,1.4l4.5-5
				c-0.7-1.9-1.6-3.8-2.6-5.6c-4.2-7.8-10.8-13.5-19.7-17.1c-7.6-3.1-15.4-4-23.2-2.8c-7.7,1.2-14.7,4.3-20.8,9
				c-6.2,4.8-10.9,11.1-13.9,18.6c-3.1,7.7-4,15.5-2.8,23.2c1.2,7.7,4.2,14.6,9,20.7c4.8,6.1,11.1,10.8,18.7,13.8
				c5.4,2.2,11,3.2,16.6,3.2c5.5,0,10.8-0.9,15.8-2.6l5.4-1.8l-5.4-14L664,476.8z"/>
		</g>
		<g id="XMLID_78_">
			<path id="XMLID_66_" class="st1" d="M590.8,655.9c-4-6.7-9.3-12.1-15.9-16c-6.7-3.9-14.1-5.9-22.2-5.9c-9.1,0-17.5,2.6-25,7.6
				c-1.9,1.3-3.7,3-5.4,4.5l-0.1-10h-14.3v122h15v-46.8c1,1.4,2.9,2.6,4.7,3.8c7.4,5,15.7,7.6,25,7.6c8.1,0,15.5-1.9,22.2-5.8
				c6.7-3.8,12.1-9.2,16-15.8c4-6.7,6-14.3,6-22.5C596.8,670.2,594.8,662.6,590.8,655.9z M552.3,648.3c5.5,0,10.4,1.3,14.8,4
				c4.5,2.7,8,6.3,10.8,10.9c2.7,4.6,4,9.6,4,15.3c0,5.5-1.3,10.4-4,14.9c-2.7,4.6-6.3,8.2-10.8,10.9c-4.5,2.7-9.4,4-15,4
				c-5.4,0-10.2-1.2-14.6-3.8c-4.5-2.6-7.8-6-10.6-10.5c-2.7-4.3-4-9-4-14.2v-1.9c0-5.5,1.1-10.4,3.8-14.8
				c2.7-4.5,6.2-8.1,10.8-10.8C542,649.6,546.7,648.3,552.3,648.3z"/>
			<path id="XMLID_45_" class="st1" d="M791,655.9c-4-6.7-9.3-12.1-15.9-16c-6.7-3.9-14.1-5.9-22.2-5.9c-9.1,0-17.5,2.6-25,7.6
				c-1.9,1.3-3.7,3-5.4,4.5l-0.1-10h-14.6v122h15v-46.8c1,1.4,3,2.6,4.8,3.8c7.4,5,15.8,7.6,25.1,7.6c8.1,0,15.5-1.9,22.2-5.8
				c6.7-3.8,12.1-9.2,16.1-15.8c4-6.7,6-14.3,6-22.5C797,670.2,795,662.6,791,655.9z M752.5,648.3c5.5,0,10.4,1.3,14.8,4
				c4.5,2.7,8,6.3,10.8,10.9c2.7,4.6,4,9.6,4,15.3c0,5.5-1.3,10.4-4,14.9c-2.7,4.6-6.3,8.2-10.8,10.9c-4.5,2.7-9.4,4-15,4
				c-5.4,0-10.2-1.2-14.6-3.8c-4.5-2.6-7.9-6-10.7-10.5c-2.7-4.3-4.1-9-4.1-14.2v-1.9c0-5.5,1.2-10.4,3.9-14.8
				c2.7-4.5,6.2-8.1,10.8-10.8C742.1,649.6,747,648.3,752.5,648.3z"/>
			<g id="XMLID_75_">
				<g id="XMLID_43_">
					<polygon id="XMLID_44_" class="st1" points="841.2,654.4 842.7,643.2 834.4,635.7 845.4,633.7 850,623.5 855.4,633.3 
						866.5,634.6 858.8,642.7 861,653.7 850.9,648.8 					"/>
				</g>
				<path id="XMLID_42_" class="st1" d="M881.3,667.5c1.3,3.4,1.9,7.1,2,10.9c0,3.8-0.7,7.5-2.2,11.1c-2.3,5.7-5.5,9.9-9.7,12.8
					c-3.9,2.7-7.9,4.4-12.4,5.1l0-52.2l-7.6-3.7l-6.9,3.9l-0.1,50.8c-0.7-0.2-1.5-0.5-2.2-0.8c-5.1-2.1-9.2-5.1-12.5-9.3
					c-3.3-4.2-5.3-8.8-6.1-14c-0.8-5.1-0.2-10.1,1.9-15.2c2.2-5.3,5.5-9.1,10.2-11.6c0.9-0.5,1.8-0.9,2.7-1.3l1.4-10.4l-5-4.5
					c-1.9,0.7-3.8,1.6-5.6,2.6c-7.8,4.1-13.5,10.7-17.1,19.6c-3.1,7.6-4.1,15.4-2.9,23.2c1.2,7.7,4.2,14.7,8.9,20.9
					c4.8,6.2,11,10.9,18.5,14c7.6,3.1,15.4,4.1,23.2,2.9c7.7-1.2,14.6-4.2,20.8-8.9c6.1-4.7,10.8-11,13.9-18.6
					c2.2-5.4,3.3-11,3.3-16.6c0-5.5-0.8-10.8-2.5-15.8l-1.8-5.4l-14,5.3L881.3,667.5z"/>
			</g>
			<g id="XMLID_34_">
				<g id="XMLID_40_">
					<polygon id="XMLID_41_" class="st1" points="640.5,654.3 641.9,643.2 633.6,635.7 644.6,633.6 649.2,623.4 654.6,633.2 
						665.7,634.4 658,642.6 660.3,653.5 650.2,648.7 					"/>
				</g>
				<path id="XMLID_37_" class="st1" d="M680.7,667.3c1.3,3.4,2,7.1,2,10.9c0,3.8-0.7,7.5-2.1,11.1c-2.3,5.7-5.4,9.9-9.6,12.9
					c-3.8,2.7-7.9,4.4-12.4,5.2l-0.3-52.2l-7.6-3.6l-6.9,4l0.2,50.8c-0.7-0.2-1.5-0.5-2.2-0.8c-5.2-2.1-9.3-5.1-12.6-9.3
					c-3.3-4.2-5.3-8.7-6.2-13.9c-0.8-5.1-0.2-10.1,1.8-15.2c2.1-5.3,5.4-9.1,10.1-11.7c0.9-0.5,1.8-0.9,2.7-1.3l1.4-10.4l-5-4.5
					c-1.9,0.7-3.8,1.6-5.6,2.6c-7.8,4.2-13.5,10.8-17.1,19.7c-3.1,7.6-4,15.4-2.8,23.2c1.2,7.7,4.3,14.7,9,20.8
					c4.8,6.2,11.1,10.9,18.6,13.9c7.7,3.1,15.5,4,23.2,2.8c7.7-1.2,14.6-4.2,20.7-9c6.1-4.8,10.8-11.1,13.8-18.7
					c2.2-5.4,3.2-11,3.2-16.6c0-5.5-0.9-10.8-2.6-15.8l-1.8-5.4l-14,5.4L680.7,667.3z"/>
			</g>
			<g id="XMLID_76_">
				<polygon id="XMLID_77_" class="st1" points="681.2,616.4 682.7,605.2 674.4,597.7 685.4,595.7 690,585.5 695.4,595.3 
					706.5,596.6 698.8,604.7 701,615.7 690.9,610.8 				"/>
			</g>
			<g id="XMLID_79_">
				<polygon id="XMLID_80_" class="st1" points="796.2,617.4 797.7,606.2 789.4,598.7 800.4,596.7 805,586.5 810.4,596.3 
					821.5,597.6 813.8,605.7 816,616.7 805.9,611.8 				"/>
			</g>
			<g id="XMLID_81_">
				<polygon id="XMLID_82_" class="st1" points="741.2,587.4 742.7,576.2 734.4,568.7 745.4,566.7 750,556.5 755.4,566.3 
					766.5,567.6 758.8,575.7 761,586.7 750.9,581.8 				"/>
			</g>
		</g>
		<g id="XMLID_83_">
			<path id="XMLID_100_" class="st1" d="M594.8,854.1c-4-6.7-9.3-12.1-15.9-16c-6.7-3.9-14.1-5.9-22.2-5.9c-9.1,0-17.5,2.6-25,7.6
				c-1.9,1.3-3.7,2.8-5.4,4.3l-0.1-10.1h-14.3v122h15v-46.5c1,1.4,2.9,2.6,4.7,3.8c7.4,5,15.7,7.6,25,7.6c8.1,0,15.5-1.9,22.2-5.8
				c6.7-3.8,12.1-9.2,16-15.8c4-6.7,6-14.3,6-22.5C600.8,868.5,598.8,860.9,594.8,854.1z M556.3,846.6c5.5,0,10.4,1.3,14.8,4
				c4.5,2.7,8,6.3,10.8,10.9c2.7,4.6,4,9.6,4,15.3c0,5.5-1.3,10.4-4,14.9c-2.7,4.6-6.3,8.2-10.8,10.9c-4.5,2.7-9.4,4-15,4
				c-5.4,0-10.2-1.2-14.6-3.8c-4.5-2.6-7.8-6-10.6-10.5c-2.7-4.3-4-9-4-14.2v-1.9c0-5.5,1.1-10.4,3.8-14.8
				c2.7-4.5,6.2-8.1,10.8-10.8C546,847.9,550.7,846.6,556.3,846.6z"/>
			<path id="XMLID_97_" class="st1" d="M795,854.1c-4-6.7-9.3-12.1-15.9-16c-6.7-3.9-14.1-5.9-22.2-5.9c-9.1,0-17.5,2.6-25,7.6
				c-1.9,1.3-3.7,2.8-5.4,4.3l-0.1-10.1h-14.6v122h15v-46.5c1,1.4,3,2.6,4.8,3.8c7.4,5,15.8,7.6,25.1,7.6c8.1,0,15.5-1.9,22.2-5.8
				c6.7-3.8,12.1-9.2,16.1-15.8c4-6.7,6-14.3,6-22.5C801,868.5,799,860.9,795,854.1z M756.5,846.6c5.5,0,10.4,1.3,14.8,4
				c4.5,2.7,8,6.3,10.8,10.9c2.7,4.6,4,9.6,4,15.3c0,5.5-1.3,10.4-4,14.9c-2.7,4.6-6.3,8.2-10.8,10.9c-4.5,2.7-9.4,4-15,4
				c-5.4,0-10.2-1.2-14.6-3.8c-4.5-2.6-7.9-6-10.7-10.5c-2.7-4.3-4.1-9-4.1-14.2v-1.9c0-5.5,1.2-10.4,3.9-14.8
				c2.7-4.5,6.2-8.1,10.8-10.8C746.1,847.9,751,846.6,756.5,846.6z"/>
			<g id="XMLID_93_">
				<g id="XMLID_95_">
					<polygon id="XMLID_96_" class="st1" points="862,849.6 870.9,842.9 870.4,831.6 879.6,838 890.1,834.1 886.9,844.8 
						893.9,853.6 882.7,853.8 876.5,863.2 872.8,852.6 					"/>
				</g>
				<path id="XMLID_94_" class="st1" d="M881.1,887.4c-1.5,3.3-3.6,6.4-6.3,9.1c-2.6,2.7-5.8,4.8-9.4,6.3c-5.6,2.4-10.8,3.1-16,2.2
					c-4.6-0.8-8.7-2.5-12.4-5.2l36.9-36.9l-2.8-7.9l-7.7-2.1l-36,35.9c-0.3-0.7-0.7-1.4-1-2.1c-2.2-5.1-2.9-10.2-2.3-15.4
					c0.6-5.3,2.5-9.9,5.6-14.2c3.1-4.2,7-7.3,12.1-9.4c5.3-2.2,10.3-2.6,15.4-1c1,0.3,1.9,0.6,2.9,1l8.3-6.3l-0.3-6.7
					c-1.9-0.8-3.8-1.6-5.8-2.2c-8.4-2.6-17.2-2-26,1.8c-7.6,3.2-13.8,8-18.4,14.3c-4.6,6.2-7.4,13.3-8.5,21.1c-1,7.8,0,15.5,3.2,23
					c3.2,7.6,8,13.8,14.3,18.4c6.3,4.6,13.3,7.4,21,8.4c7.7,1,15.4-0.1,23-3.3c5.4-2.3,10.1-5.4,14.1-9.4c3.9-3.9,7-8.2,9.4-12.9
					l2.6-5.1l-13.7-6.1L881.1,887.4z"/>
			</g>
			<g id="XMLID_89_">
				<g id="XMLID_91_">
					<polygon id="XMLID_92_" class="st1" points="661.3,849.5 670.2,842.7 669.6,831.5 678.9,837.8 689.4,833.8 686.2,844.6 
						693.3,853.3 682,853.6 675.9,863 672.2,852.4 					"/>
				</g>
				<path id="XMLID_90_" class="st1" d="M680.6,887.1c-1.5,3.3-3.6,6.4-6.3,9.1c-2.6,2.7-5.8,4.8-9.3,6.4
					c-5.6,2.4-10.8,3.2-15.9,2.3c-4.6-0.8-8.7-2.5-12.5-5.1l36.7-37.1l-2.8-7.9l-7.7-2.1L627,888.8c-0.4-0.7-0.7-1.4-1-2.1
					c-2.2-5.1-3-10.1-2.3-15.4c0.6-5.3,2.4-10,5.5-14.2c3-4.2,7-7.3,12-9.5c5.3-2.3,10.3-2.6,15.4-1.1c1,0.3,1.9,0.6,2.9,1l8.3-6.4
					l-0.3-6.7c-1.9-0.8-3.8-1.6-5.8-2.2c-8.4-2.5-17.2-1.9-26,1.9c-7.6,3.2-13.7,8.1-18.3,14.4c-4.6,6.3-7.4,13.4-8.3,21.1
					c-1,7.8,0.1,15.5,3.3,23c3.3,7.6,8.1,13.7,14.4,18.3c6.3,4.6,13.3,7.3,21,8.3c7.7,1,15.4-0.2,23-3.4c5.4-2.3,10.1-5.5,14-9.5
					c3.9-3.9,7-8.3,9.3-13l2.5-5.1l-13.7-6.1L680.6,887.1z"/>
			</g>
			<g id="XMLID_87_">
				<polygon id="XMLID_88_" class="st1" points="687.7,818.9 696.6,812.1 696.1,800.9 705.3,807.3 715.8,803.3 712.6,814.1 
					719.6,822.8 708.4,823.1 702.2,832.5 698.5,821.9 				"/>
			</g>
			<g id="XMLID_85_">
				<polygon id="XMLID_86_" class="st1" points="890.7,821.9 899.6,815.1 899.1,803.9 908.3,810.3 918.8,806.3 915.6,817.1 
					922.6,825.8 911.4,826.1 905.2,835.5 901.5,824.9 				"/>
			</g>
		</g>
	</g>
	
		<text id="XMLID_6_" transform="matrix(1 0 0 1 -489.6538 148.7953)" style="display:inline;fill:#FFFFFF; font-family:'Cabin-Regular'; font-size:154.3666px;">pepe</text>
	<text id="XMLID_5_" transform="matrix(1 0 0 1 -278.3821 -13.1228)" class="st3"><tspan x="0" y="0" style="font-family:'Cabin-Regular'; font-size:12px;">Kadernictvo pepe</tspan><tspan x="0" y="14.4" style="font-family:'Cabin-Regular'; font-size:12px;">Jozef Hausler</tspan><tspan x="0" y="28.8" style="font-family:'Cabin-Regular'; font-size:12px;">Hodalova 10</tspan><tspan x="0" y="43.2" style="font-family:'Cabin-Regular'; font-size:12px;">Bratislava </tspan><tspan x="0" y="57.6" style="font-family:'Cabin-Regular'; font-size:12px;">841 04</tspan></text>
	<path id="XMLID_138_" class="st3" d="M-663.1,457c44.3-48.2,88.6-96.5,133.7-145.6c-5-0.8-8,1-10.9,2.6c-7.9,4.5-14.9,10-21.7,16
		c-53.4,47.7-104.8,97.6-157.1,146.4c-2.6,2.4-5.4,4.1-8.6,5.3c-29.8,11.4-61.1,12.2-92.4,12.7c-9.8,0.2-18.4-3-26.1-9.2
		c-7.6-6.2-15.5-12.1-23.4-18.1c-9.3-7.1-19.9-9.6-31.5-8.4c-20.5,2.2-36.9,20.1-38.4,41.9c-1.3,19.9,12.7,38.5,32.7,42.6
		c5.4,1.1,9.1,3,10.9,8.3c1,2.8,2.7,4.7,6.2,4.2c3.5-0.5,5.6-2.1,5.9-5.6c0.4-6.3,4.1-9.9,9.3-12.9c2.9-1.7,5.8-3.8,8-6.4
		c13.6-16.1,30.8-23.6,51.9-23.7c19.6,0,39,0.6,57.8,6.9c2.2,0.7,5.1,0.8,3.8,5c-5.7,17.7-11.2,35.5-16.6,53.3
		c-1.6,5.2-4.9,8.8-9.3,11.8c-18.8,12.4-39.4,19.5-61.6,22.6c-20.5,2.9-35.7,18.9-37.9,39.5c-0.9,8.6-0.4,17.1,0.2,25.7
		c0.5,7-1.4,12.7-6.2,18.1c-15.5,17.5-19,37.8-12.8,60c0.5,1.9,0.9,4.9,3.7,4.4c2.2-0.4,1.8-3.1,1.9-4.9c0.3-8.8-0.5-17.5,0.3-26.3
		c1.6-17.6,12.1-29,29.5-31.2c5.7-0.7,11.6-0.6,17.3,0.2c27.4,4.1,50.1-15,50.7-42.8c0.1-6.2,0.2-12.4,0.7-18.6
		c1.5-16.3,5.6-31.5,23.7-36.7c9.8-2.8,14.7-8.9,18.1-17.9c9.7-26.2,22.6-50.4,43-70c3.1-3,6.3-5.6,10.3-7.2
		c56.2-22.7,111.4-47.8,165.5-75.1c16.4-8.3,32.9-16.7,48-27.3c2.6-1.8,5.7-3.4,7.1-8.7C-540.5,410.1-601,435.4-663.1,457z
		 M-899.6,534.2c-17-0.7-30.3-14.7-29.8-31.5c0.5-18.9,16.6-34.2,35.2-33.4c16.9,0.7,29.8,14.7,29.3,31.8
		C-865.4,519.8-881.4,535-899.6,534.2z M-837.8,685.1c-17.5,0.3-32.2-14.6-32.5-33c-0.3-19,15.4-35.5,33.9-35.8
		c17.5-0.3,32.3,14.7,32.5,33C-803.7,668.3-819.2,684.7-837.8,685.1z"/>
</g>
</svg>
