<?xml version="1.0" encoding="utf-8"?>
<!-- Generator: Adobe Illustrator 19.0.0, SVG Export Plug-In . SVG Version: 6.00 Build 0)  -->
<svg version="1.1" id="Layer_1" xmlns="http://www.w3.org/2000/svg" xmlns:xlink="http://www.w3.org/1999/xlink" x="0px" y="0px"
	 viewBox="0 0 640 246.7" style="enable-background:new 0 0 640 246.7;" xml:space="preserve">
<g id="XMLID_2_">
	<path id="XMLID_54_" d="M155.4,68.6c-6-10.2-14.1-18.3-24.1-24.2c-10.1-5.9-21.3-8.9-33.6-8.9c-13.8,0-26.5,3.9-37.8,11.5
		c-2.9,2-5.6,7-8.1,9.3l-0.1-12.5H25v184h23v-75.5c1,2.1,6.8,4,9.4,5.8c11.1,7.6,24.9,11.5,39,11.5c12.2,0,24-2.9,34.2-8.7
		c10.1-5.8,18.5-13.8,24.5-23.9c6-10.2,9.2-21.6,9.2-34.1C164.3,90.3,161.4,78.8,155.4,68.6z M97.2,57.1c8.3,0,15.6,2,22.4,6
		c6.8,4.1,12.2,9.5,16.3,16.5c4.1,7,6.1,14.5,6.1,23.1c0,8.3-2,15.7-6,22.6c-4.1,6.9-9.4,12.3-16.3,16.4c-6.7,4-14.2,6-22.7,6
		c-8.2,0-15.4-1.9-22-5.8c-6.8-3.9-14.2-9.1-18.4-15.8c-4.1-6.5-8.4-13.5-8.4-21.4v-2.9c0-8.3,4-15.6,8.1-22.4
		c4.1-6.9,10.5-12.2,17.5-16.3C80.4,59.1,88.8,57.1,97.2,57.1z"/>
	<path id="XMLID_60_" d="M458.1,68.6c-6-10.2-14.1-18.3-24.1-24.2c-10.1-5.9-21.3-8.9-33.6-8.9c-13.8,0-26.5,3.9-37.8,11.5
		c-2.9,2-5.6,7-8.1,9.3l-0.1-12.5H327v184h23v-75.5c3,2.1,7.2,4,9.8,5.8c11.1,7.6,25.1,11.5,39.2,11.5c12.2,0,24.1-2.9,34.2-8.7
		c10.1-5.8,18.6-13.8,24.6-23.9c6-10.2,9.3-21.6,9.3-34.1C467,90.3,464.1,78.8,458.1,68.6z M399.8,57.1c8.3,0,15.7,2,22.4,6
		c6.8,4.1,12.2,9.5,16.3,16.5c4.1,7,6.1,14.5,6.1,23.1c0,8.3-2,15.7-6,22.6c-4.1,6.9-9.4,12.3-16.3,16.4c-6.7,4-14.2,6-22.7,6
		c-8.2,0-15.4-1.9-22-5.8c-6.8-3.9-14.5-9.1-18.7-15.8c-4.1-6.5-8.8-13.5-8.8-21.4v-2.9c0-8.3,4.4-15.6,8.4-22.4
		c4.1-6.9,10.7-12.2,17.6-16.3C382.9,59.1,391.5,57.1,399.8,57.1z"/>
	<g id="XMLID_31_">
		<polygon id="XMLID_32_" points="576.7,71.8 593.1,67.6 599,51.7 608.1,66.1 625,66.7 614.2,79.8 618.8,96.1 603,89.8 588.9,99.3 
			590,82.3 		"/>
	</g>
	<path id="XMLID_8_" d="M581,135.6c-4.1,3.7-8.8,6.7-14.2,8.9c-5.2,2.2-10.9,3.3-16.7,3.3c-9.2,0-16.9-2.1-23.5-6.3
		c-6-3.9-10.7-8.6-14.3-14.5l73.1-29.6l0.8-12.7l-9.5-7.5L505.5,106c-0.1-1.2-0.1-2.3-0.1-3.5c0-8.4,1.9-15.9,5.9-22.8
		c4-7,9.3-12.4,16.1-16.5c6.7-4,14.1-6,22.4-6c8.7,0,15.9,2.5,22.1,7.7c1.2,1,2.3,2,3.4,3.1l15.3-3.9l3.5-9.5
		c-2.1-2.3-4.4-4.4-6.8-6.4c-10.2-8.5-22.7-12.9-37.2-12.9c-12.4,0-23.9,3.1-34.1,9.1c-10.1,6-18.2,14.2-24.2,24.3
		c-6,10.2-9.1,21.6-9.1,33.9c0,12.5,3.1,23.9,9.1,34.1c6,10.1,14.1,18.2,24.2,24c10.1,5.9,21.6,8.9,34,8.9c8.8,0,17.3-1.6,25.1-4.8
		c7.7-3.1,14.7-7.3,20.7-12.5l6.6-5.6L587.1,130L581,135.6z"/>
	<g id="XMLID_4_">
		<polygon id="XMLID_7_" points="274.5,71.8 290.9,67.6 296.8,51.7 305.8,66.1 322.8,66.7 311.9,79.8 316.6,96.1 300.8,89.8 
			286.7,99.3 287.8,82.3 		"/>
	</g>
	<path id="XMLID_33_" d="M278.8,135.6c-4.1,3.7-8.8,6.7-14.2,8.9c-5.2,2.2-10.9,3.3-16.7,3.3c-9.2,0-16.9-2.1-23.5-6.3
		c-6-3.9-10.7-8.6-14.3-14.5l73.1-29.6l0.8-12.7l-9.5-7.5L203.3,106c-0.1-1.2-0.1-2.3-0.1-3.5c0-8.4,1.9-15.9,5.9-22.8
		c4-7,9.3-12.4,16.1-16.5c6.7-4,14.1-6,22.4-6c8.7,0,15.9,2.5,22.1,7.7c1.2,1,2.3,2,3.4,3.1l15.3-3.9l3.5-9.5
		c-2.1-2.3-4.4-4.4-6.8-6.4c-10.2-8.5-22.7-12.9-37.2-12.9c-12.4,0-23.9,3.1-34.1,9.1c-10.1,6-18.2,14.2-24.2,24.3
		c-6,10.2-9.1,21.6-9.1,33.9c0,12.5,3.1,23.9,9.1,34.1c6,10.1,14.1,18.2,24.2,24c10.1,5.9,21.6,8.9,34,8.9c8.8,0,17.3-1.6,25.1-4.8
		c7.7-3.1,14.7-7.3,20.7-12.5l6.6-5.6L284.9,130L278.8,135.6z"/>
</g>
</svg>
