<?xml version="1.0" encoding="utf-8"?>
<!-- Generator: Adobe Illustrator 19.0.0, SVG Export Plug-In . SVG Version: 6.00 Build 0)  -->
<svg version="1.1" xmlns="http://www.w3.org/2000/svg" xmlns:xlink="http://www.w3.org/1999/xlink" x="0px" y="0px"
	 viewBox="0 0 400 400" style="enable-background:new 0 0 400 400;" xml:space="preserve">
<style type="text/css">
	.st0{display:none;}
	.st1{display:inline;}
	.st2{fill:#1D1D1D;}
	.st3{fill:#FFFFFF;}
	.st4{fill:#F1F1F1;}
</style>
<g id="Layer_1" class="st0">
	<g id="XMLID_3_" class="st1">
		<path id="XMLID_35_" d="M133.1,200.8c2.2-1.8,4.2-3.5,7.4-2.5c1,0.3,2.2-0.1,3.2,0.8c8.3,7.2,20.1,8.4,29.6,3.1
			c3.8-2.1,7.6-4,12.1-3.7c-3.8-2.5-7.8-3.1-12.1-2.3c-9.9,1.8-18.2-1.4-25.4-8c-0.8-0.7-0.8-1.1-0.1-1.9
			c5.2-5.9,9.8-12.1,14.2-18.5c0.8-1.2,1.4-1.2,2.6-0.6c6.4,3.4,12.9,6.7,19.3,10.2c1.2,0.7,1.7,0.5,2-0.8c0.7-2.7,0.9-5.4,0.7-8.2
			c-0.1-1.3-0.6-1.7-1.7-2c-4.5-1.3-9-2.6-13.5-3.9c-1.5-0.4-2.9-0.9-4.7-1.4c5-6.6,9.7-13,14.6-19.2c12-15.3,24.4-30.3,38.9-43.2
			c6-5.4,12.3-10.5,20-13.5c3.2-1.3,6.4-2.2,10-0.8c0-0.5,0-0.8,0-1.2c-0.7-6.9-2.2-13.7-5.1-20c-4-8.7-9.2-16.3-18.4-20.3
			c6.3,0.2,10.8,3.7,14.9,8.2c0-0.5,0.1-0.8,0-1c-2.8-4.8-6.1-9.2-11.4-11.4c-3.9-1.6-7.8-1.2-11.6,0.5c-6.4,2.9-11,7.9-14.9,13.7
			c5.2-2.7,10.4-4.8,16.3-4c6,0.8,10.8,3.8,14.8,8.2c-0.1,0.1-0.2,0.3-0.3,0.4c-5.3-3.3-10.5-2.5-15.5,0.5c-6,3.6-10.6,8.7-14.9,14
			c-9.5,11.8-17.3,24.8-25.1,37.8c-10.2,16.9-19.8,34.2-30.7,50.6c-5.2,7.7-10.5,15.4-17,22c-0.1-0.1-0.3-0.2-0.4-0.3
			c0.5-0.8,0.9-1.6,1.4-2.4c11.3-18.8,21.6-38.1,30.8-58c0.3-0.7,0.9-1.4,0.7-2.7c-0.7,1.2-1.2,2.1-1.6,2.9
			c-3.1,5.6-6.4,11.1-10.3,16.2c-6.7,8.7-14.3,16.4-24.3,21.4c-4.7,2.4-9.7,3.7-15,2.9c0,0.3,0,0.5,0,0.8c6.3,2.5,12.7,2.3,19.1,0
			c-7.7,8.8-15.8,16.8-26.1,22.3c-7.6,4-15.5,6.2-24.3,2.3c3.5,6.3,8.1,10.9,13.9,14.2c5.8,3.3,12.2,5,19.4,5
			c-8.4,4.1-16.5,4.6-24.8,1.3c5.8,4.1,12.2,5.5,19.1,4.5C118.1,211.4,125.9,206.7,133.1,200.8z M145,189.9c1.2,1.2,1.1,2.3-0.3,3.5
			c-1.7,1.4-3.5,2.4-6.2,2.8C140.9,193.8,143,191.9,145,189.9z"/>
		<path id="XMLID_50_" d="M89.5,186.5c-1.2-10.1,0.8-19.2,5.9-27.5c5-8.2,12.1-14.3,20.1-19.5c-8.8,0.4-16.6,3.5-23.6,8.6
			c0.8-1.8,1.6-3.3,2.5-4.7c6.9-11.1,16.4-19.7,26.9-27.2c14.1-10.1,29.5-17.7,45.4-24.4c0.4-0.2,0.9-0.4,1.3-0.7
			c-5.1,0.1-10,0.7-14.9,1.6c-5,0.9-9.9,2-14.7,3.4c-4.8,1.4-9.5,3-14.1,4.9c-4.7,1.9-9.2,4.2-13.5,6.7c-4.2,2.4-8,5.5-12.2,8
			c0-0.6,0.3-1,0.5-1.3c7.1-9.1,15.9-16.3,25.4-22.7c19.8-13.2,41.4-22.6,63.9-30.3c0.6-0.2,1.2-0.4,2.4-0.9c-1.4,0-2.1,0-2.8,0
			c-20.1,1.2-39.6,5.1-58.4,12.4c-8.5,3.3-16.6,7.4-24.6,11.5c-0.2-0.1-0.4-0.2-0.6-0.3c0.2-0.2,0.3-0.5,0.5-0.7
			c8.2-9,17.8-16.3,28.1-22.6c16.7-10.2,34.6-17.6,53-24c11.5-4,23-6.4,35.2-5.1c15.9,1.6,27.1,10.6,31.9,25.8
			c0.2,0.5,0.1,1.1,0.9,1.6c-0.2-3.7-1.1-7.1-2.2-10.4C246.8,34.5,237.5,25,222.4,22c-10.2-2-20.3-0.8-30.2,1.9
			c-23.3,6.4-45.2,16-65.7,28.8c-12.3,7.7-23.7,16.6-32.6,28.2c-10.4,13.6-15,28.6-10.3,45.7c0.6,2.2,0.8,4-0.7,5.9
			c-0.9,1.1-1.6,2.6-2.1,4c-6,14.8-4.2,28.9,3.4,42.6C85.5,181.7,87.2,184.1,89.5,186.5z"/>
		<path id="XMLID_51_" d="M303.8,122.3C303.8,122.3,303.8,122.3,303.8,122.3c-0.1-0.1-0.3-0.3-0.4-0.4c0,0-0.1,0-0.2,0
			c-0.1,0-0.2-0.1-0.3-0.1c0.1,0.2,0.2,0.3,0.3,0.5c0.1,0.1,0.2,0.1,0.4,0.1c0.3,0.4,0.6,0.8,0.9,1.1c8.5,8.8,12.9,19.2,13.3,31.4
			c0.2,0.7,0.2,1.3-0.1,2.2c-0.5-0.8-0.7-1.4-0.6-2.2c-1.9-7.3-6.6-12-13.4-14.8c-6.4-2.7-13.3-3.3-20.1-3.4
			c-6.3-0.1-12.3-1.2-18.2-3.5c-8.3-3.2-13.7-8.5-16.1-15.7c9.5,12,23,12.5,36.7,13.3c-0.3-0.7-0.7-0.5-1.1-0.6
			c-5.2-0.7-10.2-1.7-15.1-3.5c-14.6-5.4-21.9-16.9-20.1-31.5c-0.6,0.3-0.7,0.9-0.9,1.4c-1.7,3.7-3,7.5-3.9,11.4
			c-3.9,17,2.1,31.4,16.9,40.2c5,3,10.3,5.2,15.9,6.7c5.1,1.4,10.3,2.8,15.1,5.2c2.6,1.3,5.3,2.6,7.2,5.1c0,0,0.1,0.1,0.1,0.1
			c0.1,0.1,0.2,0.2,0.2,0.2c0-0.1-0.1-0.1-0.2-0.2c0,0-0.1-0.1-0.1-0.1c-0.1,0.1-0.2,0.3-0.3,0.4c-7-2.7-14.3-3.6-22.1-2.3
			c3.6,3.3,6.5,6.8,8.6,10.8c2.1,4,3.4,8.2,3.9,12.7c0.5,4.5-0.3,10.9-1.9,13.2c-0.4-1.7-0.7-3.2-1.1-4.7c-0.3-0.2-0.3-0.5-0.2-0.9
			c-0.3-0.8-0.5-1.6-0.9-2.4c-1.2-2.8-2.3-5.6-4.8-7.6c-0.2,0.6,0,1.1,0.1,1.6c1.9,9.8,0.8,19.1-4.3,27.8c-1,1.7-1.8,3.5-2.5,5.3
			c-2.3,6.5-2.7,12.8,2,18.6c0.5,0.7,1.1,1.4,2.2,1.7c-1.6-4-0.6-7.3,1.4-10.5c1.6-2.6,3.8-4.7,5.8-7c4.4-4.8,8.8-9.5,12.2-15.1
			c5.1-8.4,6.8-17.4,4-27c-0.1-0.3-0.4-0.8,0.3-1.2c3.8,5.5,4.8,11.7,4.3,18.8c5.8-7.2,10.1-14.5,13-22.5
			C327.2,153.7,321.2,135.3,303.8,122.3z"/>
		<path id="XMLID_52_" d="M239.6,291.8c-6,6.5-13.1,11.7-20.9,15.9c-9.2,5-18.6,5.4-28,0.6c-10.5-5.3-19.2-12.7-26.6-21.7
			c-0.3-0.4-0.4-1.1-1.2-0.9c0.2,1.3,0.4,2.6,0.5,3.9c0.1,1.3,0.2,2.6,0.2,3.9c0.2,12.5-2.3,24.5-5.5,36.5
			c-2.8,10.8-6.2,21.3-12.3,30.8c-4.2,6.5-9.1,12.4-14.4,18.3c0.8,0.2,1.1,0.3,1.5-0.1c1.2-1.4,2.8-2.4,4.2-3.7
			c5.1-4.8,9.5-10.1,13.2-16c10.4-16.3,15.2-34.4,17.7-53.3c0.4-3.2,0.7-6.3,1-9.7c6.3,7.2,13.5,12.7,21.7,16.8
			c9.9,5,19.5,4.6,29-1.3c8.6-5.3,15.6-12.1,21.4-20.2c0.2-0.3,0.8-0.7,0-1.5C240.5,290.5,240.1,291.2,239.6,291.8z"/>
		<path id="XMLID_53_" d="M270.6,105.4c6.8,3.3,14.1,3.8,21.6,3.4c5.5-0.4,11.1-1.1,16.6-0.3c7.1,1,10.7,4.4,11.7,11.2
			c0,0.1,0.2,0.2,0.4,0.3c0.6-6.2-1.5-11.2-6.5-14.9c-3.9-2.9-8.4-4.3-13.1-5.3c-5.9-1.2-11.9-0.8-17.9-1.7
			c-6.6-1-12.8-2.8-17.8-7.6c0.1-0.1,0.3-0.3,0.4-0.4c6.5,1.1,12.8,0.5,19.1-1.4c-4.8,0.1-9.7,0.3-14.4-0.8
			c-4.9-1.2-9.1-3.4-12.5-7.3C256.4,90.8,261.5,101.1,270.6,105.4z"/>
		<path id="XMLID_56_" d="M179.5,271.2c2.7,2.5,4.7,5.1,6.6,7.7c2,2.8,4.7,4.8,7.9,6.1c4.6,2,9.5,1.8,14.3,1.5
			c5.1-0.3,9.7-2.3,13.1-6.3c2.3-2.7,4.1-5.8,6.8-8.1c0.7-0.6,0.5-1.2-0.3-1.4c-3.9-0.9-7-3.3-10.4-5.2c-3.9-2.2-8-3.3-12.4-1.3
			c-0.5,0.2-0.9,0.2-1.4,0c-5-2.2-9.5-0.7-13.7,2C186.8,268.4,183.6,270.3,179.5,271.2z M197.9,281.8c-2.5-0.7-4.7-1.8-6.5-4.2
			c2.3,1,4.1,2,6.1,2.3C199,280.1,197.4,281.1,197.9,281.8z M200.4,282.3c-0.8-0.1-1.7-0.2-1.6-1.3c0.1-0.9,1-0.9,1.7-0.9
			c0.8,0.1,1.7,0.2,1.6,1.3C202,282.3,201.1,282.4,200.4,282.3z M207.1,282.8c-0.7,0-1.3-0.3-1.3-1.1c0-0.6,0.3-1,0.9-1
			c5.3-0.3,10.2-2,14.8-4.6C217.6,280.5,212.9,282.9,207.1,282.8z M214.6,266.3c-2.7-0.5-5.4-1.4-8.5-0.1
			C208.4,264.1,212,264.3,214.6,266.3z M201.7,265.7c-2.3-0.4-4.6,0.1-6.9,0.2C197.1,264.5,199.4,264.1,201.7,265.7z M194.8,265.9
			c-0.1,0.4-0.5,0.4-0.8,0.4C194.1,265.9,194.4,265.9,194.8,265.9z M193.8,266.4c-0.3,0.1-0.5,0.3-0.8,0.4c0-0.1,0-0.1-0.1-0.2
			C193.2,266.5,193.5,266.4,193.8,266.4z M199.2,269.2c3.6,1.1,7,0.9,10.6,0c2.9-0.7,5.5,0.3,8.3,1.3c-9.3,4.3-18.5,4.2-27.6,0.1
			C193.1,269.3,196.2,268.3,199.2,269.2z"/>
		<path id="XMLID_64_" d="M273.8,195.9c-4,0.8-7.6-0.1-10.5-3c-0.7-0.7-0.9-1.3-0.4-2.2c1.2-2.4,2.1-4.9,2.9-8
			c-2.5,2.8-4.7,5.1-7.2,7.2c-6.9,5.5-14.6,8-23.4,6.4c-3.4-0.6-6.7-0.5-9.9,0.9c-0.4,0.2-1.2,0.1-1,0.8c0.1,0.5,0.6,0.7,1.2,0.7
			c3.5-0.1,6.3,1.5,9.2,3.2c9.5,5.5,21.4,4.5,29.9-2.5c1-0.8,1.9-1.1,3.1-1.1c2.8,0.1,5.4-0.7,7.9-2.5
			C274.8,195.5,274.3,195.8,273.8,195.9z"/>
		<path id="XMLID_65_" d="M140.1,256.1c-8.4-12.8-12.2-26.7-9.3-42.2c-3.8,3.4-5.8,7.3-6.8,12.1c0,1.4,0,2.8,0,4.5
			c0-1.3-1.1-2.4-0.9-3.6c-0.4-5.7,0.6-11.1,3-16.6c-0.5,0.2-0.7,0.2-0.9,0.4c-7.2,6.7-9.1,16.2-4.9,25.1
			c4.1,8.7,11.1,14.8,18.8,20.2C139.5,256.3,139.8,256.4,140.1,256.1z"/>
		<path id="XMLID_66_" d="M260.8,156.1c-12.8,2.7-25.1,6.8-37.6,10.4c-1,0.3-1.2,0.9-1.3,1.7c-0.3,2.5-0.2,5,0.5,7.5
			c0.6,2.5,0.6,2.5,2.8,1.3c9.4-5.2,19-10,28.7-14.5c6.4-3,13.1-4.7,20.3-3.9c2.3,0.3,4.5,0.6,6.8,0.8
			C276.5,156.4,267,154.8,260.8,156.1z"/>
		<path id="XMLID_67_" d="M262.9,53.7c2.7-3.2,6.1-4,9.8-2c1.1,0.6,2.2,1.4,3.2,2.2c2.3,1.8,4.8,3.2,7.7,3.8
			c3.1,0.6,5.7-0.1,7.7-2.7c0.3-0.4,0.9-0.9,0.7-1.5c0,0,0.1,0,0.1-0.1c-0.1-0.1-0.2-0.2-0.3-0.2c0,0,0,0,0,0l0,0
			c-1.2,1-2.2,0.4-3.2-0.5c-1-1-1.6-2.4-2.1-3.7c-0.7-1.8-0.9-3.8-1.9-5.5c-2.1-3.9-7.2-5.2-10.8-2.5c2.4-0.6,4.5,0,6.3,1.6
			c3.4,3,3.6,7.6,6,11.1c-2.3-0.6-4-2.1-5.7-3.5c-2-1.9-4.2-3.5-6.7-4.7c-4.9-2.2-8.8-0.8-11.1,4c-1.1,2.3-1.6,4.7-2.1,7.3
			C261.8,56.1,262.1,54.7,262.9,53.7z"/>
		<path id="XMLID_68_" d="M278.9,73.2c-0.1-2.4-1.3-4.1-2.3-5.8c-1-1.8-2.6-3.1-4.7-4.6c8.7-0.5,15.4,3.4,22,7.5
			c-4.4-5-9.2-9.5-15.7-11.6c-5.6-1.8-10.4-0.3-14.3,3.9c-2.7,2.9-4.3,6.3-6,10.5C265.2,67.4,272.1,66.4,278.9,73.2z"/>
		<path id="XMLID_69_" d="M255.9,58.8c1-5.3,1.3-10.6,0.7-15.9c-0.5-4.6-1.8-9.1-4.5-12.9c-3.7-5.3-8.9-8-15.2-8.5
			C250.8,30.1,255.8,43.2,255.9,58.8z"/>
		<path id="XMLID_70_" d="M112.7,230.3c-1.8-4.8-2.4-9.5,0.4-14.1c0,0,0,0,0,0c0-0.2,0.1-0.5,0-0.5c-0.2-0.2-0.3,0.1-0.3,0.3
			c-5,3.3-6.7,9.2-4.2,14.8c2.2,5,6.1,8.6,10.3,12c0.2,0.2,0.5,0.3,0.8,0c0.1-0.8-0.6-1.2-1-1.7
			C116.4,237.7,114.2,234.2,112.7,230.3z"/>
		<path id="XMLID_71_" d="M282.4,177.5c2.1,3.4,3.5,7.2,4.5,11.6c1-7.7-6.7-19.9-13-20.7C277.6,171,280.2,174,282.4,177.5z"/>
		<path id="XMLID_72_" d="M198,247.3c-1.7-2.5-4-3.9-7.2-4.4C192.6,246,195,247.5,198,247.3z"/>
		<path id="XMLID_73_" d="M216.3,243.5c-2.6-0.1-4,1.9-5.8,3.1l0,0c0,0,0,0,0,0c0,0,0,0,0,0c0,0,0,0,0,0
			C213,246.6,214.4,244.6,216.3,243.5z"/>
		<path id="XMLID_74_" d="M280.7,184.1c0,0.2,0,0.4,0.3,0.3c-0.1-0.1-0.1-0.3-0.2-0.4C280.8,184,280.7,184.1,280.7,184.1z"/>
		<path id="XMLID_75_" d="M281,184.4C281,184.4,281,184.4,281,184.4L281,184.4L281,184.4L281,184.4L281,184.4
			C281,184.4,281,184.4,281,184.4C281,184.4,281,184.4,281,184.4C281,184.4,281,184.4,281,184.4z"/>
		<path id="XMLID_76_" d="M210.8,246.9c-0.1-0.1-0.2-0.1-0.3-0.2c0.1,0.1,0.1,0.2,0.2,0.3C210.7,247,210.8,246.9,210.8,246.9z"/>
	</g>
</g>
<g id="Layer_2" class="st0">
	<g id="XMLID_29_" class="st1">
		<path id="XMLID_30_" d="M107.3,37.4c0.1,0.6,0.1,1.3,0.2,1.9c0,0,0-0.1,0-0.1C107.7,38.5,108,37.9,107.3,37.4z"/>
		<path id="XMLID_33_" d="M363.6,260.7c-6.4-5.8-12.9-1.5-20.1,1.2c1.5-1.8,2.4-2.8,3.2-3.8c10.5-12.9,11-31.3,1.3-44.2
			c-8.1-10.7-21.4-14.9-34.5-10.9c-13.9,4.3-24.6,17.2-24.6,31c0,6.2-2.9,9.3-8,11.1c-4.4,1.6-8.9,3.1-13.5,3.9
			c-12.4,2.1-24.8,3.6-37.2,5.7c-6.2,1-12.4,2.8-17.8,4.1c1.5-2,3.5-4,4.6-6.4c5.8-14,11.3-28,16.8-42.1c2.3-5.7,4.2-11.7,7-17.2
			c3-5.9,4.7-6,10.7-3.1c1.3,0.6,3.2,0,4.8-0.1c-0.7-1.6-1-3.4-2.1-4.6c-3.7-4.1-8-7.7-11.5-12c-1.2-1.5-1.2-4.4-0.9-6.6
			c0.9-7.5,2.7-14.8,3.1-22.3c0.5-7.4,0.5-8.4,7.5-11.3c1.4-0.6,2.9-0.9,4.3-1.4c2.8-1.1,4.7-0.4,6.4,2.2
			c5.8,8.7,13.4,15.1,23.7,17.9c1.2,0.3,2.5,2.1,2.8,3.4c1.9,7.1,1.1,14-2,20.7c4.9-7.1,4.8-15,3.4-23.4c2,0,3.3,0.1,4.7,0
			c15.9-1.1,26.7-14.3,23.7-29c-2.2-10.6-12.8-17.2-22.2-13.8c10.9,0.6,16.8,4.8,18.7,13.1c3,13.2-7.7,25-22.4,24.6
			c-3.1-0.1-5.2-0.9-6.9-3.9c-4.1-7.2-10.1-12.3-18.2-14.9c-2.1-0.7-4.3-2.2-5.6-3.9c-8-10.7-15.9-21.3-26.9-29.2
			c-12-8.6-25.4-12.8-40.2-13.2c28.6,4.4,48,21.4,62.3,45.2c-4.8,1.8-9.5,3.7-14.3,5.5c-0.1-0.1-0.4-0.3-0.5-0.5
			c-5.3-20.2-18.2-34.1-37.4-40.7c-23.2-7.8-47-13.7-70.5-20.3c-0.2,0.6-0.4,1.2-0.5,1.7c8.6,2.8,17.1,5.8,25.7,8.4
			c16.9,5.1,34.1,9.4,49.7,18.1c14.3,7.9,23.6,19.6,27.3,35.5c0.4,1.9,0.3,4.3-0.6,5.9c-3.9,7.1-4.9,14.7-3.1,22.4
			c1,4.1,0.6,7.6-1.9,10.6c-6.7,8-13.5,15.9-20.6,23.5c-7.2,7.7-14.6,15.3-16.6,26c-0.9,4.8-0.2,9.9-0.2,14.8
			c0.5-12.6,2.4-19.2,10.1-27.9c3.6-4.1,7.8-7.6,11.5-11.6c6.9-7.3,13.8-14.8,20.6-22.1c0.2-0.3,0.7-0.3,2.4-0.8
			c-0.6,4.1-0.3,8-1.8,10.9c-12,24.1-24.2,48.1-36.6,72c-1,1.8-3.2,3.5-5.3,4.2c-9.4,3.4-18.9,6.4-28.3,9.7
			c-4.6,1.6-9.2,3.5-13.8,5.3c-6.1-18,5.5-53.7,20-61.3c0.2,17-5.4,31.2-18.1,42.6c7-2.6,12.5-7.1,17.3-12.6
			c12.3-14.1,18.1-30.8,20-49.2c0.2-2.2,1.4-4.5,2.7-6.4c3.6-5.1,7.8-9.7,11.2-14.9c17.7-26.8,13.1-68-25.8-82.1
			c-8.4-3-16.9-5.8-25.3-8.5c-15-4.8-30.2-9.3-39.1-24.2c0.1,0.9,0.3,1.6,0.6,2.3c5.4,10.4,14.5,16.4,24.9,20.8
			c13.1,5.5,26.6,10,39.4,16.1c27.5,13.2,35.7,43.3,19.4,69.2c-2.3,3.7-5.1,7.1-7.7,10.9c-2.1-7.2-4.1-13.5-5.8-19.9
			c-0.4-1.4,0-3.2,0.5-4.8c4.1-13,1.8-25-6.9-35.3c-3.9-4.7-8.6-9.1-13.7-12.4c-9.6-6-19.8-11.1-29.7-16.6
			c-12.7-7-23.5-16-27.2-30.7c-1.8-7.1-2.1-14.7-2.9-22.1c-0.2,0.8-0.4,1.7-0.6,2.5c-3.4,22.2,4.6,39.5,23.1,51.9
			c8.8,5.9,18.2,10.8,27.2,16.4c7.9,4.9,15.1,10.7,19.9,18.8c3.5,5.8,5.4,11.9,4.1,18.2c-6.8-6.1-13.3-12.4-20.3-18.1
			c-5-4.1-10.8-7.3-16-11.2c-13.8-10.2-26.5-21.6-35.7-36.4c-8.1-13.1-12.4-27-7.4-42.3c1.6-4.8,4.3-9.3,6.6-13.9
			c-0.4-0.4-0.9-0.9-1.3-1.3c-1.3,1.9-2.4,3.9-3.8,5.7C94.7,40.2,88.9,52,87.1,65.3c-1.7,12.3-5.9,22.5-17.4,29
			c-6.1,3.4-5.6,7.7,0.5,11.9c7.8,5.4,8,5.8,2.9,13.3c-1.9,2.7-1.8,5,0.6,7.2c1.7,1.6,3.5,3.2,5.2,4.8c-4.7,4.8-4.9,6.1-0.3,11
			c3.7,3.9,4.4,8.4,4.1,13.4c-0.4,7.6,1.1,9.6,8.7,9.3c8.4-0.3,16.9-0.9,25.2-2.3c17.9-3.1,30.7,5.5,43,17.5
			c-34.3,29.5-44.3,64.2-23.7,105.6c-18.3,9.8-36.8,19.7-55.2,29.5c0.2,0.3,0.3,0.7,0.5,1c0.7-0.2,1.4-0.4,2.1-0.7
			c18.1-6.8,36.3-13.5,54.3-20.3c3.2-1.2,5.3-1.3,7.8,1.7c5.9,7.2,12.3,14.1,18.7,20.9c1.9,2,1.6,3.4,0.4,5.4
			c-9.7,15.7-19.4,31.4-29,47.1c-0.8,1.3-1.6,2.7-2.4,4.1c0.4,0.3,0.8,0.5,1.1,0.8c13.2-16.1,26.3-32.2,39.7-48.5
			c11.8,8.7,25.1,13.9,40.4,14.4c0.8,6.3,2.5,11.9,7.2,16.2c-1.5-4.1-3.2-8.1-4.5-12.2c-0.9-2.9,0.4-4,3.5-4.7c6-1.4,12-3,17.5-5.7
			c4.9-2.4,6.3-6.8,4.8-10.5c-1.4-3.5-5.9-5.6-10.8-5c-7.7,1-12.4,5.8-15.5,12.5c-0.9,2-1.6,3.2-4.2,3c-12.3-1.2-23-6-32.6-13.6
			c-0.5-0.4-0.8-1.1-1.2-1.6c0.1-0.4,0.2-0.7,0.3-1.1c11,2.6,22,3.7,33,1.6c13.1-2.5,25.3-7.8,30.4-13.5
			c-19.2,10.3-38.6,13.2-59.3,6.9c0.6-1.1,0.8-1.8,1.2-2.4c7.2-12.1,14.4-24.2,21.8-36.1c1.2-1.9,3.5-3.8,5.7-4.4
			c22.3-6.6,44.7-12.9,67.1-19.4c11.7-3.4,12.7-1.5,17.1,5.4c0.1,0.1,0.4,0,1,0.1c-0.8-1.4-1.4-2.5-2-3.7c-8-14.7-4.5-31.4,9-41.2
			c9.5-6.9,20-9.1,30.7-3.3c10.3,5.6,15.2,14.9,14.7,26.7c-0.7,15.6-12.7,27.2-29.7,28.7c-2.4,0.2-5.2,0.4-4.8,3.3
			c0.2,1.5,2.7,3.5,4.5,3.7c9.1,1.5,17.7-0.3,25.8-4.7c2.9-1.6,5.7-3.6,8.8-4.6c2.3-0.8,5.3-1,7.3,0c1.9,0.9,2.8,3.8,4.1,5.8
			C365.3,265.2,365.2,262.1,363.6,260.7z M285.2,145.1c-0.4,0.4-0.7,0.9-1.1,1.3c-5.3-4.3-10.7-8.6-16-12.9
			C274.4,132.9,280.8,137.8,285.2,145.1z M143.8,276.7c0.2,1.6,0.4,3.3,0.7,5.2c-7.7-8.1-13.2-30.2-8.5-50.4
			c4.2-18,14.9-31.4,29.4-43.7c2.1,5.1,4.2,9.6,5.7,14.3c0.4,1.3-0.7,3.3-1.6,4.6c-6.4,9.1-13.9,17.6-19.3,27.3
			C142.8,247,141.7,261.7,143.8,276.7z M234.5,324.3c1.3,0.3,3.2,1.2,3.5,2.2c0.3,1-1,2.7-2,3.6c-3.3,2.9-11.1,4.8-16.6,4.3
			C222,327.5,228.5,323,234.5,324.3z M173.2,309c-10.4-2.8-14.1-10.9-17.2-20c11.3-3.8,22.5-7.6,33.7-11.4c0.3,0.3,0.5,0.7,0.8,1
			C184.7,288.7,178.9,298.9,173.2,309z"/>
	</g>
</g>
<g id="Layer_3">
	<g id="XMLID_12_">
		<g id="XMLID_8_">
			<path id="XMLID_1706_" class="st2" d="M309.1,192c1,1.3,0.7,2.5,1.5,3.9c0-1.1,0-1.8,0-2.6c0-0.3-0.2-1,0.4-0.9
				c0.5,0,0.3,0.6,0.4,0.9c0,0.8,0,1.6,0,2.6c0.8-1.1,0.3-2.6,1.5-3.7c0.1,1.7-0.5,3.1-0.7,4.4c0,0.3-0.5,0.8,0.1,0.9
				c0.7,0.1,1.5,0.1,2.3-0.1c0.3-0.1,0.1-0.5,0.1-0.8c-0.2-1.1-0.5-2.2-0.7-3.3c-0.1-0.3-0.2-0.7,0.2-0.8c0.5-0.2,0.5,0.3,0.6,0.7
				c0.2,0.7,0.3,1.5,0.5,2.4c0.4-1,0.2-1.7,0.3-2.4c0.1-0.3-0.1-0.8,0.5-0.8c0.4,0,0.3,0.5,0.3,0.7c0,0.9,0,1.7,0,2.9
				c0.7-1.3,0.4-2.7,1.6-4.1c0.1,1.8-0.5,3.1-0.6,4.4c0,0.4-0.5,1,0,1.1c0.7,0.2,1.6,0.2,2.3,0c0.5-0.1,0.1-0.7,0.1-1.1
				c-0.2-1.3-0.7-2.5-0.6-4.1c1.2,0.8,0.6,2.1,1.4,2.9c0.5-0.9-0.1-2,0.6-3.1c0.5,1.3,0.1,2.6,0.4,3.9c0.6-1.2,0.5-2.6,1.3-3.6
				c0.3,1.7-0.5,3.3-0.6,5c2.8,0.3,2.8,0.3,2.3-2.3c-0.2-0.9-0.7-2.5-0.3-2.5c1.1,0.1,0.6,1.5,1,2.3c0.1,0.3,0.2,0.6,0.5,0.8
				c0-1,0-2,0-2.9c0-0.3,0-0.5,0.4-0.5c0.3,0,0.3,0.3,0.3,0.5c0,1,0,2,0,3.2c0.7-1.1,0.6-2.1,0.9-3.1c0.1-0.3,0.1-0.7,0.6-0.5
				c0.3,0.1,0.2,0.4,0.2,0.7c-0.2,0.9-0.4,1.7-0.5,2.6c-0.1,0.6-0.7,1.4,0,1.8c0.6,0.3,1.5,0.3,2.1,0c0.6-0.3,0.1-1.1,0-1.7
				c-0.1-1.1-0.7-2.1-0.4-3.5c1.1,1,0.7,2.5,1.6,3.9c0-1.5,0-2.6,0-3.8c1.1,0.9,0.4,2.1,0.8,3.3c0.6-1.1,0.4-2.4,1.3-3.7
				c0.2,2.2-0.7,3.8-0.7,5.5c2.8,0.3,2.8,0.3,2.2-2.4c-0.2-0.9-0.6-1.7-0.2-2.8c1,1.1,0.6,2.5,1.4,3.7c0-0.9,0-1.6,0-2.2
				c0-0.5-0.3-1.3,0.3-1.3c0.8,0,0.3,0.8,0.4,1.2c0.1,0.6,0,1.2,0,2c0.9-1,0.4-2.5,1.5-3.5c0.2,1.6-0.4,2.8-0.6,4.1
				c0,0.4-0.5,1,0.1,1.2c0.7,0.2,1.5,0.2,2.1,0c0.6-0.2,0.2-0.8,0.1-1.2c-0.2-1.3-0.7-2.5-0.6-4.2c1.1,1.3,0.8,2.7,1.4,3.8
				c0.4-1.2-0.3-2.5,0.5-3.7c0.7,1,0.1,2,0.6,3c0.7-0.9,0.3-2,1.1-2.8c0.8,0.5,0.2,1.1,0.2,1.7c0,0.7-0.3,1.3-0.4,2
				c-0.1,0.5-0.5,1.2-0.1,1.4c0.7,0.3,1.5,0.2,2.3,0.1c0.4-0.1,0.2-0.5,0.1-0.8c-0.2-1-0.4-1.9-0.6-2.9c-0.1-0.4-0.4-1,0.2-1.5
				c0.7,1.1,0.6,2.4,1.3,3.5c0-1.1,0-2.3,0-3.8c1.1,1.2,0.3,2.3,1,3.4c0.2-0.9,0.3-1.6,0.5-2.3c0.1-0.3,0.1-0.7,0.5-0.6
				c0.4,0.1,0.3,0.5,0.3,0.8c-0.2,1.1-0.5,2.1-0.7,3.2c-0.1,0.4-0.4,1,0.1,1.1c0.7,0.2,1.5,0.1,2.3,0c0.4-0.1,0.1-0.6,0-1
				c-0.1-1.3-0.8-2.6-0.6-4.3c1.2,1.2,0.7,2.6,1.4,3.7c0.4-1.1-0.3-2.4,0.5-3.7c0.8,1.1,0.1,2.2,0.7,3.5c0.2-1.1,0.4-1.9,0.6-2.7
				c0.1-0.3,0.1-0.7,0.5-0.6c0.4,0.1,0.3,0.5,0.3,0.8c-0.3,1.4-0.6,2.8-0.9,4.3c1,0,1.9,0,2.8,0c-0.1-1.7-0.9-3.3-0.8-5.4
				c1.1,1.1,0.7,2.5,1.6,3.7c0-1,0-1.9,0-2.7c0-0.3-0.1-0.7,0.3-0.7c0.5,0,0.5,0.4,0.5,0.8c0,0.8,0,1.5,0.3,2.4
				c0.2-0.8,0.3-1.6,0.5-2.4c0.1-0.3,0.1-0.8,0.6-0.7c0.4,0.1,0.2,0.5,0.1,0.8c-0.2,1.1-0.4,2.2-0.7,3.3c-0.2,0.6-0.2,0.9,0.6,1
				c2,0.1,2.1,0.1,1.7-1.9c-0.2-1.1-0.7-2.1-0.4-3.5c1,1,0.7,2.3,1.3,3.4c0.4-1.1-0.2-2.4,0.5-3.4c0.7,0.4,0.4,1.1,0.5,1.6
				c0,0.6,0,1.1,0.3,1.7c0.2-0.8,0.3-1.6,0.5-2.5c0.1-0.3,0.1-0.7,0.5-0.7c0.6,0.1,0.3,0.6,0.3,0.9c-0.3,1.4-0.6,2.7-0.8,4.1
				c2.9,0.4,2.9,0.4,2.3-2.2c-0.1-0.6-0.3-1.1-0.3-1.7c-0.1-0.4-0.4-0.9,0.1-1.1c0.6-0.2,0.5,0.5,0.6,0.8c0.2,0.7,0.3,1.5,0.5,2.4
				c0.4-1,0.2-1.8,0.2-2.6c0-0.3-0.1-0.8,0.5-0.8c0.4,0,0.3,0.4,0.3,0.7c0,0.8,0,1.6,0,2.6c0.8-1.1,0.4-2.5,1.5-3.6
				c0.2,1.7-0.4,3-0.6,4.3c0,0.4-0.5,0.9,0.1,1.1c0.4,0.1,0.9,0.2,1.3-0.3c1-1.1,4-0.7,4.9,0.6c2.2,3.2,2.3,8.5,0.1,11.7
				c-1,1.4-3.8,1.8-5,0.6c-0.5-0.5-1-0.4-1.4-0.3c-0.6,0.2-0.2,0.7-0.1,1c0.3,1.4,0.6,2.9,0.7,4.3c-1.1-0.8-0.7-2.2-1.5-3.4
				c0,1.1,0,2.1,0,3c0,0.2-0.1,0.4-0.3,0.5c-0.3,0-0.4-0.2-0.4-0.5c0-0.9,0-1.7,0-3c-0.8,1.3-0.5,2.6-1.5,3.8
				c-0.3-1.6,0.2-2.7,0.5-3.9c0.4-2,0.4-2-1.6-1.9c-0.3,0-0.6,0-1,0.1c0.4,1.8,0.7,3.6,1.1,5.7c-1.5-1-0.9-2.5-1.8-3.6
				c0,1.1,0,1.9,0,2.8c0,0.3,0,0.7-0.5,0.6c-0.3,0-0.3-0.4-0.3-0.6c0-0.9,0-1.7-0.3-2.6c-0.2,0.8-0.3,1.6-0.5,2.4
				c-0.1,0.3-0.1,0.9-0.5,0.8c-0.5-0.1-0.3-0.6-0.2-0.9c0.2-1.2,0.5-2.4,0.8-3.6c0.1-0.3,0.3-0.8-0.1-0.8c-0.8-0.1-1.6-0.1-2.4,0
				c-0.4,0-0.2,0.5-0.1,0.8c0.3,1.3,0.5,2.5,0.8,3.8c0.1,0.3,0.2,0.7-0.2,0.8c-0.4,0.1-0.5-0.3-0.5-0.6c-0.2-0.8-0.3-1.7-0.6-2.9
				c-0.4,1.4,0.1,2.6-0.6,3.7c-0.8-1.1-0.1-2.3-0.5-3.4c-0.6,1-0.4,2.3-1.2,3.2c-0.2-1.9,0.6-3.6,0.7-5.3c-2.9-0.3-2.9-0.3-2.4,2.5
				c0.2,0.7,0.3,1.4,0.5,2.1c0.1,0.3,0.2,0.7-0.3,0.7c-0.4,0.1-0.5-0.3-0.5-0.6c-0.2-0.8-0.3-1.5-0.6-2.6c-0.6,1.3,0.1,2.4-0.7,3.5
				c-0.7-1.2-0.1-2.5-0.5-3.7c-0.6,1.1-0.3,2.5-1.3,3.4c-0.3-1.4,0.3-2.6,0.5-3.9c0.1-0.5,0.5-1.2,0.1-1.4c-0.7-0.3-1.6-0.2-2.4-0.1
				c-0.5,0.1-0.2,0.6-0.1,0.9c0.2,1.2,0.5,2.3,0.7,3.5c0.1,0.3,0.3,0.8-0.1,0.9c-0.6,0.2-0.5-0.5-0.6-0.8c-0.2-0.6-0.3-1.2-0.5-1.9
				c-0.8,0.9,0,2.1-0.8,3.2c-0.6-1.4-0.1-2.6-0.4-3.8c-0.7,1.1-0.3,2.5-1.3,3.4c-0.2-1.8,0.6-3.5,0.7-5.4c-0.9,0-1.9,0-2.9,0
				c0.3,1.6,0.6,3.1,0.9,4.6c0.1,0.3,0.2,0.7-0.2,0.8c-0.4,0.1-0.4-0.3-0.5-0.6c-0.1-0.7-0.3-1.4-0.5-2.2c-0.6,0.6-0.3,1.1-0.4,1.6
				c-0.1,0.4,0.3,1.3-0.4,1.2c-0.6,0-0.3-0.8-0.3-1.3c-0.1-0.7,0-1.3,0-2.1c-0.6,0.8-0.5,1.7-0.8,2.5c-0.1,0.3,0,1-0.6,0.9
				c-0.5-0.1-0.2-0.7-0.1-1.1c0.2-1,0.4-1.9,0.6-2.9c0.3-1,0.3-1.5-1.1-1.5c-1.4,0-1.7,0.3-1.3,1.6c0.3,1,0.4,2.1,0.7,3.2
				c0.1,0.3,0.1,0.7-0.3,0.7c-0.3,0-0.4-0.3-0.4-0.5c-0.2-0.9-0.4-1.9-0.9-2.8c0,0.8,0,1.6,0,2.3c0,0.4,0.2,1-0.3,1
				c-0.6,0-0.4-0.6-0.4-1c0-0.8,0-1.6,0-2.6c-0.6,1-0.6,2-0.8,2.8c-0.1,0.3,0,0.9-0.5,0.7c-0.5-0.1-0.2-0.6-0.2-0.9
				c0.3-1.5,0.6-2.9,0.9-4.4c-1,0-1.9,0-2.9,0c0.3,1.3,0.6,2.6,0.8,3.8c0.1,0.5,0.6,1.3,0,1.5c-0.8,0.2-0.5-0.8-0.7-1.3
				c-0.2-0.5-0.1-1.2-0.8-2.1c0,1.5,0,2.5,0,3.5c-1-1-0.4-2.3-0.8-3.5c-0.7,1.2-0.4,2.5-1.2,3.6c-0.7-0.6-0.2-1.2-0.1-1.7
				c0.1-0.7,0.3-1.3,0.4-2c0.4-1.8-0.3-2.4-2.2-1.9c-0.6,0.2-0.3,0.5-0.3,0.8c0.2,1.3,0.5,2.5,0.8,3.8c0.1,0.3,0.3,0.8-0.2,0.9
				c-0.4,0.1-0.4-0.4-0.5-0.7c-0.3-0.9-0.2-1.9-0.9-3c0,1.1,0,2.1,0,3c0,0.3,0.1,0.7-0.4,0.7c-0.4,0-0.3-0.4-0.3-0.7
				c0-0.8,0-1.6,0-2.6c-0.7,0.7-0.5,1.6-0.8,2.2c-0.2,0.4-0.1,1.2-0.6,1.1c-0.7-0.2-0.2-0.9-0.1-1.3c0.1-0.9,0.3-1.8,0.6-2.7
				c0.4-1.2,0-1.6-1.2-1.4c-0.4,0.1-0.9,0-1.4,0c0.2,1.9,0.9,3.6,0.9,5.8c-1.2-1.3-0.8-2.7-1.5-3.8c-0.4,1.2,0.2,2.4-0.4,3.7
				c-0.8-1-0.1-2-0.6-3c-0.5,0.7-0.5,1.4-0.7,2.1c-0.1,0.3-0.1,0.7-0.5,0.6c-0.4-0.1-0.3-0.5-0.2-0.8c0.2-1.1,0.4-2.2,0.7-3.3
				c0.3-1,0.1-1.6-1.1-1.4c-0.5,0.1-1,0-1.6,0c0.1,1.9,0.9,3.6,0.9,5.9c-1.2-1.3-0.8-2.7-1.6-4c0,1.2,0,2.1,0,3
				c0,0.2,0.1,0.6-0.3,0.6c-0.4,0.1-0.5-0.3-0.5-0.6c0-0.8,0-1.7-0.3-2.5c-0.2,0.9-0.4,1.8-0.6,2.7c-0.1,0.2-0.2,0.5-0.5,0.4
				c-0.3-0.1-0.3-0.4-0.2-0.6c0.3-1.3,0.6-2.6,0.8-3.9c0.1-0.3,0.3-0.7-0.1-0.8c-0.8-0.1-1.6-0.1-2.4,0c-0.3,0-0.1,0.5-0.1,0.8
				c0.3,1.5,0.8,3,0.7,4.5c-1-0.8-0.7-2.2-1.4-3.5c0,1.2,0,2.1,0,2.9c0,0.2,0,0.6-0.3,0.6c-0.4,0-0.5-0.3-0.5-0.6
				c0-0.9,0-1.7-0.3-2.6c-0.2,0.9-0.4,1.8-0.6,2.7c-0.1,0.2-0.2,0.5-0.5,0.5c-0.3-0.1-0.3-0.4-0.2-0.6c0.3-1.3,0.6-2.6,0.8-3.9
				c0.1-0.3,0.2-0.7-0.1-0.8c-0.3-0.1-0.5,0-0.8,0.3c-1,1.2-2.4,0.5-3.6,0.5c-0.2,0-0.4-0.4-0.4-0.6c0.1-1.5-0.9-1.4-1.9-1.6
				c-6.8-1.3-13.5-1.1-20.3-0.2c-7.5,1-15.1,0.4-22.6-0.4c-2.3-0.2-4.5-0.6-6.7-0.8c-0.9-0.1-1.4-0.3-1.3-1.4c0.1-1.3,0-2.7,0-4
				c0-0.6,0.2-0.9,0.8-1c10.7-1.4,21.4-2.7,32.2-1.1c6.3,0.9,12.5,0.5,18.7-0.6c0.5-0.1,1-0.1,1-0.7c0-0.6,0-1.4,0.8-1.4
				c1.1,0,2.3-0.5,3.2,0.4c0.3,0.3,0.4,0.6,0.8,0.4c0.3-0.2,0.1-0.6,0.1-0.8C309.6,195.2,308.9,193.9,309.1,192z"/>
		</g>
		<g id="XMLID_7_">
			<path id="XMLID_1705_" class="st2" d="M323.6,136.3c3.6,0.1,6.6,1.3,9,4.1c0.6,0.7,1.1,0.8,1.9,0.4c2.1-0.9,4.2-1.8,6.3-2.6
				c0.9-0.4,1.7-0.5,2.1,0.7c0.2,0.6,0.5,0.7,1.1,0.4c0.6-0.3,1.2-0.5,1.8-0.8c2.6-1.1,2.6-1.1,1.7-3.9c-0.4-1.1-0.7-2.2-1-3.2
				c-0.4-1.1-0.4-2.3-1.7-3c-0.4-0.2-0.9-1.1-0.5-1.6c0.3-0.5,1-0.2,1.6-0.1c0.9,0.2,1.4,0.8,1.9,1.5c3.2,5.2,5.8,10.7,8.2,16.4
				c0.4,1.1,0.2,1.8-1,2.1c-1.1,0.3-2.3,1.5-3.3-0.2c-0.2-0.3-0.6,0.1-0.8,0.2c-0.8,0.3-1.6,0.7-2.4,1c-0.8,0.3-1.9,0.4-1.2,1.8
				c0.3,0.7-0.5,1.2-1.2,1.5c-2.1,0.9-4.2,1.7-6.3,2.6c-0.8,0.3-1.1,0.7-1,1.6c0.3,5.6-2.5,9.9-7.6,12c-7.8,3.2-15.6,6.5-23.4,9.7
				c-2.6,1.1-4.6,0.2-5.7-2.4c-3-7.2-6-14.4-9-21.7c-1-2.5-0.2-4.6,2.3-5.6c8-3.4,16-6.7,24.1-10
				C320.7,136.6,322.1,136.3,323.6,136.3z"/>
		</g>
		<path id="XMLID_1700_" class="st2" d="M165.3,250.8c4.6,1.5,9.3,1.8,14,0.8c2.7-0.6,5.2-1,7.6,1c0.9,0.7,2.1,0.6,3.1,0.3
			c5.2-1.6,10.3-1.6,15.5,0c2,0.6,3.7-0.2,5.2-1.3c1-0.8,1.9-0.8,3.1-0.5c5.5,1.4,11.1,1.5,16.6-0.3c0.3,0.4,0.1,0.8,0,1.1
			c-1.5,6-3.3,11.9-6.2,17.4c-2.2,4.2-5.5,6.7-10.3,7.4c-11.1,1.8-22.2,1.9-33.3-0.3c-3.6-0.7-6.2-2.5-8.1-5.6
			c-3.7-6.1-5.7-12.7-7.2-19.6C165.2,251.1,165.3,251,165.3,250.8z"/>
		<path id="XMLID_1690_" class="st2" d="M154.1,133.1c-2.7-0.2-5.2-0.2-7.7,1.2c-4.6,2.4-10.2,0.3-12.9-4.3c-1-1.6-1.7-3.4-2.7-5
			c-1.1-2-2.7-3.5-4.8-4.6c-4-2.2-7.9-4.6-11.9-6.9c-2.4-1.4-5.1-2.2-7.7-3c-1.1-0.3-1.3,0-1.2,1.1c0.2,1.2,0.4,2.4,1,3.5
			c3.5,7.1,7.3,14.1,11.7,20.6c0.8,1.2,1.8,2.2,3.2,2.8c1,0.4,2,1.1,2.8,1.9c0.8,0.8,1.4,1.7,2.9,1.3c1.1-0.3,1.7,1.2,0.9,2.2
			c-0.5,0.6-0.4,1-0.1,1.6c0.8,1.8,1.2,3.7,1.2,5.7c-0.1,5.8-4.5,9.4-10.2,8.5c-6.8-1.1-12.2-8.8-10.9-15.6c0.2-0.9,0.4-1.8,0.9-2.6
			c1.9-2.7,1.8-5.8,0.8-8.6c-3.3-8.7-6.7-17.3-12.5-24.7c-0.9-1.1-2-1.9-3.1-2.8C80.3,93.9,66.6,82.5,53,71
			c-0.3-0.3-0.6-0.5-0.9-0.8c-0.7-0.9-0.1-1.5,0.4-2.2c0.7-0.9,1-0.1,1.5,0.2c9.9,7.7,19.8,15.4,29.7,23.2c1.1,0.8,1.9,1.2,2.8,0
			c0.5-0.6,1.9-1,1.4-1.7c-0.5-0.6-1.2,0.7-1.8,1c-0.2,0.1-0.4,0.3-0.6,0.5c-0.4,0.3-0.7,0.6-1.1,0c-0.4-0.5,0-0.7,0.3-1
			c0.6-0.5,1.3-1,1.9-1.6c0.2-0.2,0.5-0.5,0.2-0.8c-0.2-0.2-0.5,0-0.7,0.2c-0.5,0.4-0.9,0.8-1.5,1.1c-0.4,0.3-0.8,1.2-1.4,0.4
			c-0.6-0.8,0.4-1,0.7-1.4c0.3-0.4,0.7-0.6,1.1-0.9c0.3-0.3,0.9-0.5,0.6-0.9c-0.4-0.5-0.7,0.1-1,0.3c-0.6,0.4-1.1,0.9-1.7,1.3
			c-0.4,0.3-0.6,0.3-0.9-0.1c-0.3-0.3-0.3-0.6,0.1-0.9c0.7-0.5,1.4-1.1,2-1.6c0.2-0.2,0.4-0.4,0.2-0.6c-0.2-0.3-0.4-0.2-0.6,0
			c-0.6,0.5-1.1,0.9-1.7,1.4c-0.3,0.3-0.6,0.7-1.1,0.1c-0.5-0.6,0-0.8,0.3-1.1c0.5-0.4,1.1-0.8,1.6-1.3c0.2-0.2,0.7-0.4,0.3-0.8
			c-0.3-0.4-0.5,0-0.8,0.2c-0.6,0.4-1.1,0.9-1.7,1.4c-0.3,0.2-0.5,0.5-0.9,0c-0.3-0.4-0.3-0.7,0.1-1c0.6-0.5,1.2-1,1.8-1.5
			c0.2-0.2,0.5-0.3,0.3-0.6c-0.2-0.4-0.5-0.2-0.8,0c-0.6,0.5-1.1,0.9-1.7,1.4c-0.4,0.4-0.7,0.3-1-0.1c-0.3-0.4-0.1-0.6,0.2-0.9
			c0.6-0.5,1.1-0.9,1.7-1.4c0.2-0.2,0.5-0.4,0.2-0.8c-0.2-0.2-0.5,0-0.7,0.1c-0.5,0.4-1,0.8-1.6,1.3c-0.3,0.3-0.6,0.5-1,0
			c-0.4-0.5-0.1-0.7,0.2-1c0.5-0.4,1-0.8,1.4-1.2c0.2-0.2,0.8-0.4,0.4-0.8c-0.4-0.4-0.6,0.1-0.9,0.2c-0.4,0.3-0.7,0.6-1.1,0.9
			c-0.4,0.2-0.6,1-1.2,0.2c-0.6-0.7,0-0.8,0.4-1.1c0.4-0.3,0.8-0.6,1.2-1c0.2-0.2,0.7-0.5,0.3-0.9c-0.3-0.3-0.6,0-0.8,0.2
			c-0.4,0.3-0.9,0.7-1.3,1.1c-0.4,0.3-0.6,0.4-1,0c-0.4-0.4-0.2-0.7,0.1-1c0.5-0.4,1-0.8,1.4-1.2c0.2-0.2,0.5-0.4,0.3-0.7
			c-0.3-0.4-0.5-0.1-0.8,0.1c-0.5,0.4-1,0.8-1.4,1.2c-0.3,0.3-0.6,0.4-0.9,0c-0.3-0.4-0.4-0.7,0.1-1c0.5-0.4,1-0.8,1.5-1.3
			c0.2-0.2,0.4-0.4,0.1-0.6c-0.2-0.3-0.4-0.1-0.7,0.1c-0.5,0.4-1,0.8-1.4,1.2c-0.4,0.4-0.7,0.3-1-0.1c-0.4-0.4-0.1-0.6,0.2-0.9
			c0.5-0.4,1-0.9,1.5-1.3c0.2-0.1,0.3-0.3,0.1-0.5c-0.2-0.3-0.4-0.3-0.6,0c-0.2,0.2-0.4,0.4-0.6,0.5c-0.6,0.2-1,1.6-1.8,0.6
			c-0.7-0.9,0.6-1,1-1.5c0.1-0.2,0.4-0.3,0.6-0.5c0.2-0.2,0.4-0.4,0.2-0.6c-0.3-0.4-0.5-0.1-0.8,0.1c-0.4,0.4-0.9,0.7-1.3,1.1
			c-0.4,0.3-0.6,0.2-0.9-0.1c-0.3-0.3-0.3-0.6,0.1-0.9c0.4-0.3,0.7-0.6,1-0.9c0.2-0.3,0.9-0.4,0.5-0.9c-0.4-0.4-0.7,0.2-1,0.4
			c-0.3,0.2-0.6,0.4-0.8,0.7c-0.4,0.4-0.7,0.3-1-0.1c-0.4-0.4-0.1-0.6,0.1-0.9c0.5-0.5,1.8-1,1.3-1.6c-0.5-0.7-1.1,0.6-1.7,0.9
			c-0.3,0.2-0.6,0.4-0.9,0c-0.4-0.4-0.2-0.6,0.1-1c0.5-0.5,1.8-0.9,1.3-1.5c-0.6-0.7-1.1,0.6-1.8,0.9c-0.4,0.2-0.6,0.3-0.9-0.1
			c-0.4-0.4-0.2-0.7,0.2-1c0.5-0.5,1.7-0.9,1.2-1.4c-0.5-0.6-1.1,0.5-1.6,0.8c-0.4,0.3-0.7,0.3-1-0.1c-0.3-0.4-0.1-0.6,0.2-0.9
			c0.4-0.5,1.7-0.8,1.2-1.5c-0.5-0.6-1.1,0.5-1.6,0.9c-0.4,0.3-0.6,0.2-0.9-0.1c-0.3-0.3-0.4-0.6,0-0.9c0.1-0.1,0.3-0.2,0.4-0.3
			c0.3-0.4,1.5-0.6,0.9-1.3c-0.4-0.5-0.9,0.4-1.3,0.6c-0.4,0.2-0.6,0.8-1.1,0.2c-0.6-0.7,0.1-0.9,0.4-1.2c0.1-0.1,0.3-0.2,0.3-0.3
			c0.2-0.3,0.9-0.3,0.5-0.9c-0.4-0.6-0.7,0.1-1,0.3c-0.3,0.2-0.5,0.4-0.7,0.6c-0.4,0.3-0.6,0-0.9-0.3c-0.3-0.3-0.1-0.5,0.1-0.8
			c0.5-0.4,1.1-0.8,1.6-1.3c1-0.8,1.7-0.8,2.6,0.3c3.2,3.9,6.5,7.8,9.8,11.7c8.7,10.4,17.3,20.8,26.1,31.1c2,2.3,4.8,3.8,7.6,5.2
			c6.5,3.3,13.1,6.4,19.7,9.6c2,1,4,1.2,6.1,0.6c1.9-0.5,3.9-1.1,5.8-1.5c6.1-1.2,11.8,3.4,12,9.5c0.1,4.8,3,6.9,7.7,5.7
			c0.4-0.1,0.9-0.3,1.3-0.5c0.8-0.3,1.5-0.2,1.8,0.7c0.3,0.8,0.2,1.5-0.6,2c-1.4,0.8-3,1.1-4.6,1.1
			C156.8,133.1,155.4,133.1,154.1,133.1z M110.5,146.1c0,4.6,3.6,9.2,8,10.4c4.2,1.2,7.6-1.4,7.5-5.8c0-4.4-3.5-9.1-7.7-10.4
			C113.9,139,110.5,141.5,110.5,146.1z M149.8,124.7c0-4.1-3.5-7.5-7.5-7.4c-4.2,0.1-7.4,3.4-7.4,7.7c0,4,3.5,7.3,7.5,7.3
			C146.5,132.1,149.8,128.8,149.8,124.7z M100.7,103.7c-0.8-2.1-2.6-2.6-3.7-1.3c-0.3,0.3-0.5,0.7,0.2,0.8
			C98.3,103.4,99.4,103.5,100.7,103.7z M96.6,104.1c0.5,1.6,1.5,2.1,2.7,1.6c0.5-0.2,1.1-0.4,1-1c-0.1-0.5-0.7-0.2-1.1-0.3
			C98.4,104.3,97.5,104.3,96.6,104.1z M89.5,91.4c-0.2-0.5-0.5-0.5-0.8-0.2c-0.5,0.5-1.1,0.9-1.7,1.4c-0.2,0.2-0.9,0.4-0.6,0.9
			c0.4,0.5,0.7,0,1-0.3c0.5-0.4,1-0.8,1.6-1.3C89.2,91.8,89.3,91.6,89.5,91.4z M90.7,93c-0.1-0.3-0.3-0.5-0.5-0.3
			c-0.7,0.5-1.4,1.1-2.1,1.7c-0.2,0.2,0,0.4,0.2,0.5C88.5,95,90.7,93.4,90.7,93z M90.1,96.2c0.7-0.4,1.4-0.8,1.9-1.6
			c0.1-0.2-0.1-0.5-0.3-0.4c-0.8,0.3-1.4,0.9-2,1.5C89.5,96,89.8,96.1,90.1,96.2z M92.8,95.7c-0.5,0.6-1.2,0.7-1.4,1.5
			c0,0,0.4,0.2,0.5,0.2C92.4,97,93.2,96.9,92.8,95.7z"/>
		<g id="XMLID_5_">
			<path id="XMLID_1683_" class="st2" d="M264.5,63.1c-1-0.4-0.9,0.6-1.3,1.2c-0.5,0.8,0.1,0.9,0.6,1.2c2.9,1.8,4,4.7,2.7,7.9
				c-4.2,10.2-8.4,20.3-12.6,30.5c-0.7,1.8-2.1,2.4-3.9,1.7c-5.4-2.2-10.8-4.4-16.1-6.6c-1.8-0.8-2.3-2.3-1.4-4.4
				c3.1-7.4,6.1-14.8,9.2-22.2c1-2.4,2-4.8,3-7.3c1.5-3.6,4.1-5,7.8-4.2c0.8,0.2,1,0,1.2-0.6c0.1-0.5,0.9-1.1-0.2-1.6
				c-0.9-0.4-0.9-1.1-0.5-2c0.8-1.8,1.5-3.6,2.2-5.4c0.5-1.2,1.2-1.4,2.3-0.9c2.6,1,2.6,0.9,3.9-1.6c1.8-3.5,3.6-6.9,5.4-10.4
				c0.4-0.9,1-1.4,1.9-1c1,0.4,1,1.1,0.7,2c-1.4,4.3-2.7,8.6-4.1,12.9c-0.3,0.9-0.2,1.3,0.7,1.6c3.5,1.3,3.1,1.4,1.8,4.5
				c-0.5,1.2-1.1,2.5-1.5,3.7C266,62.8,265.5,63.3,264.5,63.1z"/>
		</g>
		<path id="XMLID_1678_" class="st2" d="M197.9,235c-5.1,12.8-21.3,16-30.2,13.6c-7.8-2.1-10.6-7.8-7.5-15.3c0.3-0.6,0.6-1.2,0.9-2
			c0.4,1.6,0.7,3,1.2,4.3c1.3,3.8,3.9,5,7.6,3.5c3.3-1.3,6.1-3.4,9-5.3c2.5-1.6,5-3.2,7.9-4.2c4.2-1.4,7.8-0.8,10.6,2.8
			c0.1,0.1,0.2,0.2,0.4,0.3c3.6-4,6.7-4.8,11.7-2.8c4.3,1.7,7.9,4.5,11.7,6.9c1.8,1.1,3.6,2.2,5.7,2.8c2.4,0.7,4.3-0.1,5.6-2.3
			c1-1.7,1.4-3.7,1.8-5.7c4,4.7,2.8,12.3-2.3,15.3c-4,2.4-8.5,2.7-13,2.3c-6.5-0.6-12.3-2.9-17-7.6
			C200.2,239.7,198.9,237.5,197.9,235z"/>
		<g id="XMLID_40_">
			<path id="XMLID_1670_" class="st2" d="M153.4,348.1c-0.9,0-1.7-0.2-2.5-0.6c-7.6-3.1-15.2-6.3-22.8-9.4c-1.5-0.6-2.5-1.8-3.1-3.2
				c-2.5-5.6-2.5-11.4-1-17.2c0.9-3.4,1-3.4,4.2-2.1c13.3,5.5,26.6,11,39.8,16.5c1.9,0.8,2,1.2,1,3.1c-2.6,4.9-6.1,8.9-11.1,11.4
				C156.5,347.4,155,348.1,153.4,348.1z"/>
			<path id="XMLID_1668_" class="st2" d="M161.3,315.2c0.2,0.8-0.8,2.1-0.3,2.6c0.5,0.6,1.8,0.3,2.8,0.6c4.2,1.2,6.7,6.5,5,10.4
				c-0.6,1.4-1.7,1.3-2.8,0.8c-5.6-2.3-11.2-4.6-16.8-7c-6-2.5-12.1-5-18.1-7.5c-2.1-0.9-2.4-1.7-1.8-3.9c1.9-5.9,7.9-8.4,13.5-5.5
				c0.6,0.3,1,0.8,1.7,0.1c2.6-2.5,5.6-2.7,8.9-1.5C158,306.1,161.3,310.7,161.3,315.2z"/>
		</g>
		<path id="XMLID_1667_" class="st2" d="M188.9,170.7c-5.1,0.5-10.1,1-15.1,2.1c-2.2,0.5-4.4,1.1-6.5,1.8c-0.9,0.3-1.3,0.8-1.5,1.9
			c-0.9,6.2-1.9,12.4-2.9,18.9c-1.6-1.7-3.6-2.6-4-5.3c-1-6.5-2.4-12.9-2.7-19.5c-0.3-7.2,3-12.6,8.2-17.2c0.8-0.7,1.1-0.1,1.4,0.4
			c4.6,5.1,9.8,9.4,15.6,12.9C183.9,168.1,186.4,169.4,188.9,170.7z"/>
		<g id="XMLID_95_">
			<path id="XMLID_1704_" class="st2" d="M34.2,151.9c0.1-0.2,0.2-0.6,0.3-1c3.5-8.5,7-16.9,10.5-25.4c0.8-2,1.9-2.4,3.9-1.3
				c11.2,6,22.4,12.1,33.7,18.2c4,2.1,8,4.3,12,6.4c0.7,0.4,0.9,0.7,0.5,1.5c-2.5,6-5,12-7.4,18c-0.4,1-0.8,1.1-1.8,0.8
				c-16.4-5-32.9-9.9-49.3-14.8C35.3,154,34.3,153.5,34.2,151.9z"/>
			<path id="XMLID_1665_" class="st2" d="M108.2,156.9c0,0.5-0.1,1-0.3,1.5c-1.9,4.5-3.7,8.9-5.6,13.4c-0.9,2.1-2.6,2.8-4.8,2
				c-2.5-1-5-2.1-7.6-3.1c-0.8-0.3-0.8-0.6-0.5-1.4c2.5-6.1,5-12.1,7.5-18.2c0.3-0.8,0.7-0.9,1.5-0.5c2.4,1.1,4.9,2.1,7.4,3.1
				C107.3,154.2,108.2,155.3,108.2,156.9z"/>
		</g>
		<g id="XMLID_81_">
			<path id="XMLID_1674_" class="st2" d="M87.3,307.7c-0.2-1.2,0.3-1.9,1.6-1.8c0.3,0,0.6,0.1,0.8-0.2c1.5-1.5,3-3,4.5-4.5
				c0.3-0.3,0.2-0.5,0.2-0.9c0-1.1,0.4-1.7,1.6-1.6c0.7,0.1,1-0.3,1.3-0.6c8.8-8.8,17.7-17.7,26.5-26.6c1-1,0.7-3.2,3-3.1
				c1.2-2.2,2.9-3.8,5.1-5.1c0.4-0.2,0.2-0.6,0.3-0.9c0.1-1.4,1.4-2,2.4-1c2.4,2.3,4.7,4.6,7,7c0.9,1,0.3,2.3-1,2.3
				c-0.8,0-1.1,0.4-1.4,0.9c-1,1.7-2.4,3.1-4.1,4.1c-0.5,0.3-1,0.6-0.9,1.4c0.1,0.8-0.5,1.4-1.2,1.3c-1-0.2-1.5,0.5-2.1,1
				c-8.6,8.6-17.4,17.1-25.8,26c-1.3,1.4-2.4,3-4.1,4c-1.2,0.7-2,1.9-3,2.9c-0.6,0.5-1,1-0.9,1.9c0.1,0.9-0.7,1.5-1.5,1.2
				c-0.9-0.2-1.4,0.1-2.1,0.6c-2.1,1.4-3.8,3.1-5.6,4.8c-0.7,0.6-0.7,1,0,1.7c2.5,2.4,4.9,4.9,7.3,7.3c0.6,0.6,1,1.1,0.8,2
				c-0.1,0.5-0.4,1-0.9,1.2c-0.6,0.3-0.7-0.4-1-0.7c-7.8-7.7-15.5-15.5-23.2-23.3c-0.4-0.4-1.5-0.6-0.7-1.5c0.7-0.9,1.7-1,2.6-0.2
				c1.3,1.1,2.4,2.4,3.6,3.6c1.4,1.4,2.8,2.8,4.2,4.3c0.5,0.5,0.8,0.7,1.4,0.1c1.8-1.9,3.7-3.8,5.2-6.1
				C87.2,308.8,87.7,308.4,87.3,307.7z"/>
			<path id="XMLID_1663_" class="st2" d="M68.4,309.4c8.1,8.1,16.3,16.3,24.4,24.4c0.6,0.6,0.6,0.9,0,1.5c-2.5,2.5-3.8,2.5-6.3-0.1
				c-6.2-6.2-12.4-12.4-18.6-18.6C64.9,313.6,65,312.3,68.4,309.4z"/>
		</g>
		<path id="XMLID_1662_" class="st2" d="M202,200.1c0-1.8,0.6-2.8,2.3-3.2c8.8-2.4,17.3-1.8,25.1,3.4c0.6,0.4,1.6,0.9,1.3,1.7
			c-0.4,0.8-1.4,0.3-2.1,0.1c-3.8-0.9-7.5-2.1-11.5-2.2c-3.8,0-7.3,0.5-10.6,2.6C204.2,204.1,202.1,202.9,202,200.1z"/>
		<path id="XMLID_1661_" class="st2" d="M181.4,195.5c3.9,0.1,6.8,0.4,9.7,1.3c2.3,0.7,3.2,3.1,2,5.2c-0.7,1.2-2.2,1.7-3.5,0.9
			c-6.8-4.5-13.8-3.1-21-1.2c-0.8,0.2-1.7,0.4-2.6,0.6c-0.4,0.1-1,0.2-1.2-0.3c-0.2-0.5,0.3-0.9,0.6-1.1c1.7-1.4,3.6-2.4,5.6-3.2
			c1.6-0.7,3.3-1.2,5-1.5C178.2,195.8,180.2,195.4,181.4,195.5z"/>
		<path id="XMLID_1660_" class="st2" d="M232.8,218.5c0.3,5.1-0.8,10.1-1.7,15.1c-0.1,0.6-0.4,1.2-0.6,1.7c-0.9,1.8-3,2.2-4.5,0.9
			c-0.4-0.3-0.2-0.5-0.1-0.8C228.5,229.9,230.5,224.2,232.8,218.5z"/>
		<path id="XMLID_1659_" class="st2" d="M162.8,218.2c1.6,4.2,3.1,7.9,4.6,11.7c0.7,1.8,1.5,3.5,2.3,5.2c0.3,0.7,0.3,1-0.5,1.4
			c-2.3,1-3.4,0.7-4.3-1.8c-1.2-3.1-1.2-6.4-1.9-9.7C162.7,222.9,162.8,220.7,162.8,218.2z"/>
		<g id="XMLID_10_">
			<path id="XMLID_91_" class="st2" d="M339.4,303.5c-1.1-0.7-2.2-1.3-3.3-1.9c-13.3-7.6-26.3-15.8-39.7-23.2
				c-5.4-2.9-10.6-6.4-16.6-7.7c-3.7-0.8-5.8-2.4-6.8-6c-0.6-2.2-1.9-4.2-3.5-5.9c-1-1.1-2.2-2-3.8-1.7c-1.7,0.4-2.6,1.6-3,3.2
				c-0.2,0.8-0.2,1.7-0.4,2.6c-0.2,1,0.7,2.6-0.3,3c-0.8,0.3-2.1-0.6-3.1-1.1c-3.7-1.8-7-4-8.2-8.3c-0.3-0.9-0.6-1.9-1.8-1.6
				c-1.3,0.3-0.8,1.4-0.8,2.3c0,0.2,0.1,0.4,0.2,0.6c1.5,4,3.7,7.4,7.4,9.8c2.1,1.4,4.4,2.5,6.7,3.4c0.9,0.3,1.4,0.9,1.6,1.8
				c0.9,3.4,2.1,6.8,3.5,10c6,14.8,13.7,28.8,22.3,42.2c3.2,5,6.5,10,10.8,14.2c2.7,2.6,6.1,4.2,10,4.3c2.5,0.1,3.9-1.2,4.6-3.5
				c1-3.6-0.3-6.4-2.5-9.1c-2.4-2.9-5.2-5.5-7.6-8.3c-7.9-9.2-15.3-18.8-21.4-29.4c-3.3-5.9-5.4-12.3-7.2-19
				c3.8,0.5,7.4,1.1,10.8,2.5c2.9,1.2,4,3.5,3.6,6.6c-0.1,0.6-0.2,1.2-0.3,1.8c-0.5,2.6,0.3,4.6,2.5,6.1c6.5,4.4,13.3,8.2,20.1,12
				c5.8,3.2,11.7,6.4,17.9,9c1.6,0.7,3.1,0.5,4.6-0.3c1.9-1,3.4-2.5,4.6-4.3C341.5,305.8,341.3,304.7,339.4,303.5z M268.4,270.4
				c-0.5-0.1-0.9-0.4-1-1c0-0.6,0.3-1,0.9-1c0.6,0,1,0.4,1.1,1.1C269.4,270.1,269,270.4,268.4,270.4z M307.8,334
				c0.8,0,1.4,0.5,1.4,1.3c0,0.8-0.5,1.2-1.3,1.3c-0.8-0.1-1.2-0.5-1.3-1.3C306.6,334.5,307,334,307.8,334z M298.5,282.2
				L298.5,282.2c0-0.1,0.1-0.1,0-0.1C298.5,282.1,298.5,282.1,298.5,282.2z M338.8,306.9c-1,1-1.8,2.3-3.6,2.5
				c2.1-3.1,2.1-3.1-1.1-5c-11.7-6.9-23.1-14.2-34.6-21.5c-0.4-0.2-0.9-0.3-1.1-0.8c0.6-0.2,0.9,0.2,1.2,0.6
				c3.7,1.7,7.2,3.9,10.8,5.9c8.5,4.7,17,9.5,25.6,14.3c0.8,0.4,1.5,1,2.2,1.4C339.6,305,339.7,305.9,338.8,306.9z"/>
		</g>
		<path id="XMLID_1509_" class="st3" d="M100.7,103.7c-1.3-0.2-2.4-0.3-3.5-0.5c-0.8-0.1-0.5-0.5-0.2-0.8
			C98.1,101.1,99.9,101.6,100.7,103.7z"/>
		<path id="XMLID_1508_" class="st3" d="M96.6,104.1c0.9,0.1,1.7,0.2,2.6,0.4c0.4,0.1,1-0.2,1.1,0.3c0.1,0.6-0.5,0.8-1,1
			C98.1,106.2,97.2,105.7,96.6,104.1z"/>
		<g id="XMLID_6_">
			<path id="XMLID_1684_" class="st2" d="M312.9,89.7c5.6-3.7,11.1-7.4,16.7-11.1c4.2-2.8,8.3-5.5,12.5-8.3c0.4-0.2,0.8-1,1.4-0.2
				c0.6,0.8-0.3,1-0.6,1.3c-13.4,11.3-26.8,22.7-40.2,34c-3.4,2.8-5.5,6.5-7.5,10.3c-3.3,6.3-6.2,12.8-9.3,19.1
				c-1.1,2.1-1.3,4.3-0.7,6.6c0.5,1.9,1.1,3.8,1.5,5.7c1.3,6.3-4,12.1-9.5,12c-5.1-0.1-7.3,3.4-5.5,8.3c0.3,1,0.8,1.9-0.5,2.4
				c-1.3,0.5-1.8-0.4-2.3-1.4c-0.8-1.9-0.8-3.9-0.7-5.9c0.1-1.3,0.1-2.6,0.2-3.9c0-1.8-0.2-3.5-1.1-5.2c-2.6-4.9-0.8-10.6,3.9-13.4
				c1.4-0.8,2.8-1.5,4.2-2.2c2.5-1.2,4.4-3,5.7-5.6c2-3.9,4.3-7.6,6.6-11.3c1.5-2.6,2.4-5.4,3.2-8.3c0.2-0.9,0-1-0.9-0.9
				c-1.3,0.1-2.5,0.4-3.7,1c-7.2,3.5-14.3,7.3-20.9,11.9c-1.2,0.8-2.1,1.7-2.7,3.1c-0.5,1.1-1.2,2-2,2.9c-0.7,0.8-1.5,1.4-1.1,2.7
				c0.3,1.1-1.2,1.8-2.1,1c-0.7-0.6-1.1-0.3-1.7-0.1c-3.2,1.3-6.5,1.7-9.7,0.2c-3.7-1.8-5.4-6.2-4.1-10.1c1.1-3.2,2.7-5.9,5.7-7.7
				c3.6-2.1,7.4-3.9,11.4-1.7c4.4,2.4,8.3,1.8,12.5-0.1c6.3-2.8,12.7-5.3,18.5-9.1c4.4-2.9,7.3-7.1,10.6-10.9
				c10.2-12,20.2-24.1,30.3-36.2c0.4-0.5,0.6-1,1.4-0.4c0.8,0.6,0.3,1,0,1.5c-6.3,9.5-12.6,18.9-18.9,28.4c-0.3,0.4-0.5,0.9-0.8,1.3
				c-0.1,0.2-0.3,0.4-0.4,0.6c0,0.1,0,0.2-0.1,0.4c0.1-0.1,0.2-0.1,0.3-0.2C312.6,90,312.8,89.9,312.9,89.7z M250.3,132.3
				c4.2,0,8.9-3.3,10.3-7.4c1.5-4.4-1-8.2-5.6-8.2c-4.5,0-9.3,3.6-10.5,7.9C243.4,129,246,132.3,250.3,132.3z M276.4,156.2
				c4.1,0,7.4-3.3,7.4-7.5c0-4.1-3.4-7.4-7.5-7.4c-4.1,0-7.5,3.4-7.4,7.5C269,152.9,272.3,156.2,276.4,156.2z M297.6,107.1
				c1.1-0.3,1.8-0.9,1.8-2c0-1-0.4-1.7-1.5-2C297.9,104.4,297.4,105.6,297.6,107.1z M296.4,106.8c0.2-1.2,0.3-2.2,0.5-3.2
				c0-0.2,0.2-0.5-0.2-0.7c-0.3-0.1-0.5,0.1-0.7,0.2C294.9,104.1,294.9,105.5,296.4,106.8z"/>
			<path id="XMLID_1501_" class="st4" d="M297.6,107.1c-0.1-1.4,0.3-2.7,0.4-4c1.1,0.3,1.5,1,1.5,2
				C299.4,106.2,298.7,106.8,297.6,107.1z"/>
			<path id="XMLID_1500_" class="st4" d="M296.4,106.8c-1.5-1.3-1.6-2.7-0.4-3.6c0.2-0.2,0.4-0.4,0.7-0.2c0.3,0.1,0.2,0.4,0.2,0.7
				C296.8,104.7,296.6,105.6,296.4,106.8z"/>
		</g>
		<path id="XMLID_1499_" class="st4" d="M312.9,89.7c-0.1,0.2-0.2,0.3-0.5,0.3c-0.1-0.1-0.2-0.1-0.2-0.2c0.1-0.2,0.3-0.4,0.4-0.6
			C312.7,89.4,312.8,89.5,312.9,89.7z"/>
		<path id="XMLID_1498_" class="st4" d="M312.4,90c-0.1,0.1-0.2,0.1-0.3,0.2c0-0.1,0-0.2,0.1-0.4C312.2,89.9,312.3,89.9,312.4,90z"
			/>
		<path id="XMLID_1487_" class="st4" d="M59.5,269.5c0.2,0.3,0,0.3-0.2,0.3c0,0-0.1-0.1-0.1-0.1C59.3,269.6,59.4,269.6,59.5,269.5
			C59.5,269.5,59.5,269.5,59.5,269.5z"/>
		<g id="XMLID_2_">
			<path id="XMLID_1719_" class="st2" d="M206.2,9.9c0.3,1,0.4,1.5,0.5,2c0.9-0.2,0.4-1.2,1.1-1.5c0.1,1,0.5,1.8,0.6,2.8
				c0.2-0.9,0.3-1.9,0.6-3c0.5,0.7,0.4,1.4,0.6,2c0.9-0.3,0.4-1.4,1-1.9c0.3,0.9,0.5,1.8,0.6,2.8c0.2-0.9,0.4-1.9,0.6-3
				c0.6,1.1,0.6,2.1,0.8,3.4c0.2-1.3,0.4-2.3,0.6-3.6c0.3,0.9,0.4,1.4,0.6,2c0.1,0,0.1,0,0.2,0c0-0.3,0-0.6,0-0.8
				c0.1-0.5-0.4-1.2,0.5-1.3c0.8-0.1,1.4,0.1,1.8,0.9c0.2,0.5,0.3,1.1,0.3,1.7c0,1.6,0,3.3,0,4.9c0,1.6-0.2,3.3,0.7,4.8
				c0.4,0.7,0.2,1.5,0.1,2.3c-0.6,14.2-1.3,28.5-1.9,42.7c-0.1,2.1-1.1,3.5-3.1,4.1c-0.8,0.2-0.9,0.6-0.9,1.3
				c-0.9,16.8-1.9,33.5-2.8,50.3c-0.1,1.3-0.2,2.7-0.2,4c-0.2,2.5-1.5,3.8-4,3.8c-3.5,0-7,0-10.5,0c-2.8,0-4.1-1.2-4.3-4
				c-0.4-6.3-0.7-12.5-1.1-18.8c-0.6-11.6-1.3-23.1-1.9-34.7c-0.1-1.1-0.3-1.7-1.5-2c-1.9-0.6-2.6-2.2-2.7-4.1
				c-0.2-5.9-0.5-11.7-0.8-17.6c-0.4-8-0.7-15.9-1.1-23.9c-0.1-1.6-0.2-3.2,0.7-4.6c0.2-0.3,0.1-0.8,0.1-1.2c0-2.2,0-4.4,0-6.6
				c0-0.3,0-0.6,0-0.9c0.1-1.1,0.3-2.2,1.8-2.2c1.6,0,0.4,1.4,1.1,2c0.6-0.2,0-1,0.7-1.4c0.2,1,0.4,2,0.6,2.9c0.2-1,0.3-2.1,0.7-3.1
				c0.4,1,0.5,2,0.7,3.1c0.2-1,0.4-1.9,0.6-2.9c0.1,0,0.2,0,0.3,0c0.2,0.9,0.3,1.8,0.6,3c0.2-1.2,0.4-2.1,0.6-3.1
				c0.6,0.5,0.3,1.2,0.6,1.7c0.8-0.2,0.4-1.1,1-1.5c0.4,0.9,0.5,1.8,0.7,2.8c0.2-1,0.3-1.9,0.5-3c0.7,0.9,0.5,2,0.9,3.1
				c0.2-1.2,0.2-2.2,0.7-3.2c0.4,1,0.4,2,0.6,3.5c0.2-1.4,0.4-2.3,0.6-3.5c0.7,1,0.5,2,0.9,3c0.1-1,0.3-2,0.6-3c0.4,1,0.5,2,0.7,3
				c0.2-0.9,0.4-1.8,0.6-2.7c0.1,0,0.2,0,0.2,0c0.2,0.9,0.4,1.9,0.6,3c0.2-1.1,0.4-2.1,0.5-3.1c0.7,0.4,0.3,1.3,0.8,1.7
				c0.6-0.5,0.3-1.2,0.9-1.7c0.2,1,0.4,1.9,0.6,3c0.2-1.1,0.4-2,0.6-3c0.8,0.9,0.4,2.1,0.9,3.1c0.2-1.1,0.1-2.1,0.6-3.1
				c0.5,1,0.4,2,0.6,3.3c0.3-1.3,0.5-2.3,0.7-3.3c0.1,0,0.2,0,0.3,0c0.2,0.9,0.4,1.8,0.6,3C205.8,12.2,206,11.3,206.2,9.9z
				 M199.1,64.3c2.8,0,5.7,0,8.5,0c2.3,0,2.9-0.5,2.9-2.8c0-3.1,0-6.3,0-9.4c0-2-0.6-2.6-2.6-2.6c-5.8,0-11.6,0-17.5,0
				c-2,0-2.6,0.6-2.6,2.6c0,3.2,0,6.4,0,9.6c0,1.9,0.7,2.6,2.6,2.6C193.3,64.3,196.2,64.3,199.1,64.3z M205.5,108.9
				C205.5,108.9,205.5,108.9,205.5,108.9c0-0.8,0.1-1.5,0.1-2.3c0.2-3.9,0.4-7.8,0.5-11.7c0.1-2.8-1.4-4.3-4.2-4.3
				c-1.6,0-3.3,0-4.9,0c-3.6,0-4.9,1.4-4.7,5c0.2,4.2,0.4,8.4,0.6,12.7c0.2,5,0.5,10.1,0.8,15.1c0.2,3.1,1.5,4.2,4.5,4.2
				c0.8,0,1.5,0,2.3,0c2.9,0,4.3-1.3,4.4-4.2C205.1,118.6,205.3,113.8,205.5,108.9z M214.8,19c-0.1-2.2-0.8-2.8-2.9-2.8
				c-6.6,0-13.2,0-19.7,0c-2.1,0-4.2,0-6.3,0c-1.2,0-2.6,1.4-2.3,2.5c0.3,1.2,1.3,0,1.9,0.3c0,0,0.1,0,0.2,0
				C195.3,19,205.1,19,214.8,19z"/>
			<path id="XMLID_1527_" class="st4" d="M199.1,64.3c-2.9,0-5.8,0-8.7,0c-2,0-2.6-0.7-2.6-2.6c0-3.2,0-6.4,0-9.6
				c0-2,0.6-2.6,2.6-2.6c5.8,0,11.6,0,17.5,0c2,0,2.6,0.6,2.6,2.6c0,3.1,0,6.3,0,9.4c0,2.2-0.6,2.8-2.9,2.8
				C204.8,64.3,201.9,64.3,199.1,64.3z M199.3,51.9c-1.2,0-2.5,0-3.7,0c-1.4,0-2.1,0.8-1.9,2c0.2,1.6-1.1,3.9,1.5,4.7
				c0.1,0,0.2,0,0.3,0c2.5,0,4.9,0,7.4,0c1.3,0,2-0.8,1.8-2c-0.2-1.6,1-3.7-1.3-4.8c-0.3-0.1-0.6,0-0.9,0
				C201.4,51.9,200.3,51.9,199.3,51.9z"/>
			<path id="XMLID_1436_" class="st2" d="M199.3,51.9c1.1,0,2.2,0,3.2,0c0.3,0,0.7-0.1,0.9,0c2.3,1,1.1,3.1,1.3,4.8
				c0.1,1.1-0.6,2-1.8,2c-2.5,0-4.9,0-7.4,0c-0.1,0-0.2,0-0.3,0c-2.6-0.9-1.3-3.1-1.5-4.7c-0.2-1.2,0.5-2,1.9-2
				C196.8,52,198,51.9,199.3,51.9z"/>
			<path id="XMLID_1435_" class="st2" d="M194.5,100.4c-0.1-1.8-0.2-3.6-0.2-5.4c-0.1-1.8,0.5-2.4,2.3-2.4c1.7,0,3.5,0,5.2,0
				c1.8,0,2.4,0.7,2.3,2.6c-0.2,4.1-0.4,8.1-0.6,12.2c-0.3,5.2-0.5,10.4-0.8,15.6c-0.1,2.2-0.5,2.6-2.7,2.6c-4,0-4.4,0.9-4.6-4.5
				C195.2,114.2,194.8,107.3,194.5,100.4z"/>
		</g>
		<g id="XMLID_1_">
			<path id="XMLID_1675_" class="st2" d="M169.8,88.3c-0.1,1.8-1.2,3.1-3,3.9c-6.5,2.7-12.9,5.3-19.4,8c-1.7,0.7-3.4,1.4-5.1,2.1
				c-2.5,1-4.8,0.1-5.8-2.4c-3.7-8.8-7.3-17.5-10.9-26.3c-1.1-2.6-0.1-4.8,2.5-5.9c1.8-0.7,3.5-1.5,5.3-2.2c0.8-0.3,1-0.7,0.6-1.5
				c-0.1-0.1-0.1-0.2-0.1-0.3c-0.7-1.8-0.7-1.8,1.1-2.6c3-1.2,6-2.4,9-3.7c1-0.4,1.4-0.3,1.6,0.7c0.1,0.4,0.4,0.7,0.5,1.1
				c0.2,0.8,0.6,0.8,1.2,0.5c1.7-0.8,3.5-1.5,5.3-2.2c2.8-1.1,5-0.2,6.1,2.6c3.6,8.6,7.1,17.2,10.7,25.8
				C169.6,86.6,169.8,87.3,169.8,88.3z M143.1,92.8c0.6,0,1.1-0.2,1.6-0.4c4.5-1.9,8.9-3.7,13.4-5.6c2.4-1,2.8-2,1.8-4.5
				c-1.9-4.6-3.8-9.1-5.7-13.7c-0.7-1.7-1.9-2.3-3.6-1.6c-4.9,2-9.7,4-14.5,6c-1.5,0.6-2,1.8-1.5,3.3c2,5,4.1,9.9,6.1,14.8
				C141.2,92.3,142,92.8,143.1,92.8z"/>
			<path id="XMLID_1664_" class="st2" d="M150.5,51.8c-0.1,1.2-0.5,1.8-1.3,2.1c-7.1,2.9-14.1,5.9-21.2,8.8
				c-1.3,0.5-2.3,0.2-2.9-1.2c-0.6-1.4-1.1-2.8-1.7-4.1c-0.7-1.7-0.4-2.6,1.3-3.3c5.2-2.2,10.4-4.3,15.5-6.4
				c1.8-0.7,3.5-1.5,5.3-2.2c1.4-0.5,2.3-0.2,2.9,1.2C149.2,48.4,149.9,50.3,150.5,51.8z"/>
			<path id="XMLID_1431_" class="st2" d="M159.1,84.1c0,0.7-0.5,1-1,1.3c-4.7,2-9.5,3.9-14.2,5.9c-1,0.4-1.6,0-1.9-0.8
				c-1.9-4.7-3.9-9.4-5.8-14.1c-0.4-1-0.2-1.6,0.9-2.1c4.7-1.9,9.3-3.8,13.9-5.8c1.1-0.4,1.7-0.3,2.2,0.8c1.9,4.7,3.8,9.3,5.8,13.9
				C158.9,83.6,159,83.9,159.1,84.1z"/>
		</g>
		<g id="XMLID_100_">
			<path id="XMLID_1671_" class="st2" d="M57.9,188.4c9,0,17.9,0,26.9,0c2.6,0,4.3,1.3,5.1,4.1c0.4,1.4,0.7,2.8,1.5,4
				c0.6,1,1.4,1.7,2.7,1.8c9.8,0.7,19.5,1.5,29.3-0.2c4.7-0.8,9.5-1.2,14.3-0.2c1.4,0.3,2.7,0.7,3.9,1.4c1.7,1,3,2.4,3,4.5
				c0,2.3-1.5,3.7-3.4,4.6c-3.7,1.9-7.6,1.9-11.6,1.7c-4-0.2-8-0.8-12-1.4c-6.1-0.8-12.1-0.2-18.2,0.1c-1.5,0.1-3.1,0.3-4.6,0.3
				c-2.1,0-3.2,1.2-3.9,2.9c-0.4,0.9-0.6,2-0.9,2.9c-0.9,2.9-2.5,4.1-5.5,4.1c-17.7,0-35.3,0-53,0c-4.2,0-6.5-2.3-6.5-6.5
				c0-6,0-11.9,0-17.9c0-3.9,2.3-6.2,6.2-6.2C40.1,188.4,49,188.4,57.9,188.4C57.9,188.4,57.9,188.4,57.9,188.4z M57.7,190.3
				c-9,0-17.9,0-26.9,0c-2.8,0-4,1.2-4,3.9c0,6.3,0,12.7,0,19c0,2.6,1.2,3.9,3.9,3.9c17.9,0,35.7,0,53.6,0c2.6,0,3.9-1.3,3.9-3.9
				c0-6.1,0-12.3,0-18.4c0-3.7-0.9-4.6-4.6-4.6C75,190.3,66.4,190.3,57.7,190.3z"/>
			<path id="XMLID_1349_" class="st2" d="M57.6,215.1c-8.8,0-17.5,0-26.3,0c-2.2,0-2.5-0.3-2.5-2.5c0-6,0-12.1,0-18.1
				c0-1.9,0.4-2.4,2.4-2.4c17.6,0,35.2,0,52.8,0c1.9,0,2.4,0.5,2.4,2.3c0,6,0,12.1,0,18.1c0,2.2-0.3,2.5-2.5,2.5
				C75.1,215.1,66.3,215.1,57.6,215.1z M35,211.2c-0.4,0-0.7,0.2-0.7,0.6c0,0.4,0.2,0.7,0.6,0.7c0.5,0,0.8-0.2,0.8-0.7
				C35.7,211.5,35.5,211.3,35,211.2z M40.4,197.8c-0.4,0-0.7,0.2-0.7,0.6c0,0.4,0.1,0.7,0.5,0.8c0.5,0.1,0.8-0.2,0.8-0.7
				C41.1,198.2,40.8,197.9,40.4,197.8z M58.3,201.8c0-0.4-0.1-0.7-0.5-0.8c-0.4-0.1-0.7,0.1-0.8,0.4c-0.1,0.5,0.1,0.8,0.6,0.9
				C57.9,202.5,58.1,202.2,58.3,201.8z M45.3,202.4c0.3-0.1,0.6-0.3,0.5-0.7c0-0.5-0.4-0.7-0.8-0.6c-0.4,0.1-0.6,0.3-0.5,0.8
				C44.6,202.2,44.9,202.4,45.3,202.4z M69.9,201c-0.4,0.1-0.7,0.2-0.7,0.7c0,0.4,0.2,0.7,0.6,0.7c0.5,0,0.8-0.3,0.8-0.7
				C70.6,201.2,70.3,201.1,69.9,201z M79.6,198.9c0-0.4-0.3-0.6-0.7-0.6c-0.4,0-0.7,0.2-0.7,0.7c0,0.5,0.3,0.7,0.8,0.7
				C79.4,199.7,79.6,199.4,79.6,198.9z M58.3,195.3c-0.1-0.4-0.3-0.7-0.8-0.7c-0.4,0-0.7,0.3-0.6,0.7c0,0.5,0.3,0.7,0.8,0.7
				C58,196,58.2,195.7,58.3,195.3z M35.8,195.2c-0.1-0.4-0.3-0.6-0.7-0.6c-0.4,0-0.8,0.3-0.7,0.8c0,0.4,0.3,0.6,0.7,0.6
				C35.5,196,35.8,195.7,35.8,195.2z M38.5,194.6c-0.1,0-0.3,0.3-0.3,0.7c-0.1,0.4,0.1,0.7,0.5,0.8c0.5,0,0.8-0.2,0.8-0.7
				C39.5,194.9,39.3,194.7,38.5,194.6z M57.6,206.3c0.3-0.1,0.7-0.3,0.6-0.7c0-0.5-0.3-0.7-0.8-0.7c-0.4,0-0.7,0.3-0.6,0.7
				C56.9,206,57.1,206.2,57.6,206.3z M45.3,206.3c0.3-0.1,0.6-0.3,0.6-0.7c0-0.5-0.3-0.7-0.8-0.7c-0.4,0-0.7,0.2-0.6,0.7
				C44.5,206,44.8,206.2,45.3,206.3z M69.8,204.8c-0.4,0.1-0.6,0.3-0.6,0.7c0,0.5,0.3,0.7,0.8,0.7c0.4,0,0.7-0.3,0.6-0.7
				C70.6,205.1,70.3,204.8,69.8,204.8z M75.4,208.7c0-0.3-0.2-0.6-0.6-0.7c-0.4,0-0.7,0.2-0.7,0.6c-0.1,0.5,0.2,0.8,0.7,0.8
				C75.2,209.5,75.4,209.2,75.4,208.7z M74.8,199.2c0.4,0,0.6-0.3,0.6-0.7c0-0.4-0.3-0.7-0.7-0.7c-0.5,0-0.7,0.3-0.7,0.8
				C74.1,199.1,74.4,199.3,74.8,199.2z M83.1,202.4c0.4,0,0.7-0.2,0.7-0.7c0-0.5-0.3-0.8-0.8-0.8c-0.4,0-0.6,0.3-0.6,0.7
				C82.4,202.1,82.7,202.3,83.1,202.4z M65.8,195.4c0-0.4-0.2-0.7-0.6-0.7c-0.4,0-0.7,0.2-0.8,0.6c-0.1,0.5,0.2,0.8,0.7,0.8
				C65.5,196.1,65.7,195.8,65.8,195.4z M53.2,209.5c0.4-0.1,0.7-0.3,0.7-0.8c0-0.4-0.3-0.7-0.7-0.6c-0.5,0-0.7,0.3-0.7,0.8
				C52.5,209.3,52.8,209.4,53.2,209.5z M57.6,212.6c0.4-0.1,0.7-0.3,0.7-0.7c0-0.4-0.3-0.7-0.7-0.6c-0.5,0-0.8,0.3-0.7,0.8
				C56.9,212.4,57.2,212.6,57.6,212.6z M79.9,212.6c0.6,0.1,0.8-0.2,0.9-0.6c0.1-0.4-0.1-0.7-0.5-0.8c-0.5-0.1-0.8,0.2-0.8,0.6
				C79.3,212.3,79.6,212.6,79.9,212.6z M53.8,194.6c-0.3,0.1-0.6,0.3-0.7,0.7c0,0.5,0.3,0.8,0.7,0.8c0.4,0,0.7-0.3,0.7-0.7
				C54.5,195,54.3,194.7,53.8,194.6z M80.8,195.3c-0.1-0.4-0.3-0.7-0.7-0.7c-0.4,0-0.7,0.2-0.7,0.6c0,0.5,0.3,0.8,0.8,0.8
				C80.6,196,80.7,195.7,80.8,195.3z M49.3,204.9c-0.4,0-0.7,0.3-0.7,0.7c0,0.5,0.3,0.8,0.8,0.7c0.4,0,0.6-0.3,0.6-0.7
				C50,205.1,49.7,204.9,49.3,204.9z M41,208.9c0-0.6-0.2-0.8-0.6-0.8c-0.4,0-0.7,0.2-0.7,0.6c0,0.5,0.2,0.8,0.7,0.8
				C40.8,209.4,41,209.2,41,208.9z M71.2,208.8c0-0.4-0.2-0.7-0.6-0.8c-0.4-0.1-0.7,0.1-0.8,0.5c-0.1,0.5,0.2,0.8,0.7,0.9
				C70.9,209.5,71.1,209.2,71.2,208.8z M45.4,198.6c-0.1-0.4-0.3-0.7-0.8-0.7c-0.4,0-0.6,0.3-0.7,0.7c-0.1,0.4,0.2,0.7,0.5,0.8
				C44.9,199.3,45.2,199,45.4,198.6z M66.2,208c-0.4,0.1-0.7,0.3-0.7,0.7c0,0.4,0.3,0.7,0.6,0.7c0.5,0,0.8-0.3,0.8-0.8
				C66.9,208.3,66.6,208.1,66.2,208z M62.7,208.7c-0.1-0.3-0.2-0.7-0.6-0.7c-0.4,0-0.7,0.1-0.8,0.6c-0.1,0.5,0.2,0.8,0.7,0.8
				C62.3,209.5,62.6,209.2,62.7,208.7z M57.5,209.5c0.5,0,0.8-0.3,0.8-0.7c0-0.4-0.3-0.7-0.6-0.7c-0.5-0.1-0.7,0.3-0.8,0.7
				C56.8,209.2,57.1,209.4,57.5,209.5z M49.6,208.7c-0.1-0.4-0.3-0.7-0.7-0.7c-0.4,0-0.7,0.2-0.7,0.6c0,0.5,0.2,0.8,0.7,0.8
				C49.3,209.4,49.5,209.1,49.6,208.7z M45.4,208.7c-0.1-0.3-0.2-0.7-0.7-0.7c-0.5,0-0.8,0.3-0.7,0.8c0,0.4,0.3,0.6,0.7,0.6
				C45.1,209.4,45.3,209.2,45.4,208.7z M66.5,201.6c-0.1-0.4-0.3-0.6-0.7-0.5c-0.4,0-0.7,0.3-0.7,0.7c0,0.5,0.3,0.7,0.8,0.7
				C66.3,202.3,66.5,202,66.5,201.6z M61.7,201.1c-0.4,0-0.7,0.2-0.7,0.6c0,0.5,0.3,0.7,0.8,0.7c0.5,0,0.6-0.3,0.6-0.7
				C62.4,201.2,62.1,201.1,61.7,201.1z M49.3,201c-0.4,0-0.7,0.2-0.7,0.6c0,0.5,0.3,0.7,0.8,0.7c0.4,0,0.6-0.3,0.6-0.7
				C50,201.2,49.7,201.1,49.3,201z M32.1,202.4c0.4-0.1,0.7-0.3,0.6-0.7c0-0.4-0.2-0.7-0.7-0.7c-0.4,0-0.8,0.3-0.7,0.8
				C31.3,202.1,31.6,202.3,32.1,202.4z M36.3,199.7c0.4-0.1,0.7-0.3,0.6-0.7c0-0.4-0.3-0.7-0.7-0.7c-0.5,0-0.7,0.3-0.7,0.8
				C35.5,199.6,35.9,199.7,36.3,199.7z M70.5,197.8c-0.4,0.1-0.7,0.3-0.7,0.7c0,0.4,0.2,0.7,0.6,0.7c0.5,0,0.8-0.3,0.8-0.8
				C71.2,198.1,70.9,197.9,70.5,197.8z M66.2,197.8c-0.4,0-0.7,0.2-0.7,0.6c0,0.5,0.3,0.8,0.7,0.8c0.4,0,0.8-0.3,0.7-0.8
				C66.9,198.1,66.6,197.9,66.2,197.8z M62,197.8c-0.5,0-0.7,0.3-0.7,0.7c-0.1,0.4,0.2,0.7,0.5,0.8c0.5,0.1,0.8-0.2,0.8-0.7
				C62.7,198.1,62.4,197.9,62,197.8z M57.4,197.8c-0.3,0.1-0.6,0.3-0.6,0.7c0,0.5,0.3,0.7,0.8,0.7c0.4,0,0.7-0.3,0.6-0.7
				C58.3,198.1,57.9,197.8,57.4,197.8z M48.8,199.3c0.5,0,0.8-0.3,0.8-0.7c0-0.4-0.2-0.7-0.7-0.7c-0.5-0.1-0.7,0.3-0.8,0.7
				C48.1,198.9,48.4,199.2,48.8,199.3z M62,195.3c0-0.4-0.2-0.7-0.6-0.7c-0.5,0-0.8,0.3-0.8,0.7c0,0.4,0.2,0.7,0.6,0.7
				C61.7,196.1,61.9,195.8,62,195.3z M42.6,194.6c-0.4,0-0.7,0.2-0.7,0.6c0,0.4,0.1,0.7,0.5,0.8c0.5,0.1,0.8-0.2,0.8-0.7
				C43.3,194.9,43,194.7,42.6,194.6z M50,194.6c-0.4,0.1-0.7,0.3-0.6,0.7c0,0.5,0.3,0.7,0.8,0.7c0.5-0.1,0.5-0.4,0.5-0.8
				C50.7,194.8,50.4,194.6,50,194.6z M32,206.4c0.4,0,0.7-0.2,0.7-0.7c0-0.4-0.2-0.7-0.6-0.8c-0.5-0.1-0.8,0.3-0.8,0.7
				C31.3,206,31.6,206.3,32,206.4z M76.3,196.1c0.3-0.1,0.7-0.2,0.7-0.6c0-0.5-0.2-0.8-0.7-0.8c-0.4,0-0.6,0.3-0.6,0.7
				C75.6,195.8,75.9,196,76.3,196.1z M80.6,202.3c0-0.4-0.2-0.6-0.6-0.7c-0.4,0-0.7,0.1-0.7,0.6c0,0.5,0.2,0.8,0.7,0.8
				C80.3,203,80.6,202.8,80.6,202.3z M74.7,205.6c0-0.4-0.2-0.7-0.6-0.7c-0.4,0-0.7,0.2-0.7,0.6c-0.1,0.5,0.2,0.8,0.7,0.8
				C74.5,206.3,74.7,206,74.7,205.6z M66.5,205.5c-0.1-0.4-0.3-0.7-0.7-0.7c-0.5,0-0.7,0.3-0.7,0.8c0,0.5,0.4,0.6,0.7,0.6
				C66.3,206.2,66.5,205.9,66.5,205.5z M62,204.9c-0.7-0.1-0.9,0.2-1,0.6c-0.1,0.5,0.2,0.8,0.7,0.8c0.4,0,0.7-0.3,0.7-0.7
				C62.4,205.2,62.2,204.9,62,204.9z M68.9,212.6c0.4,0,0.7-0.3,0.6-0.7c0-0.4-0.3-0.7-0.7-0.6c-0.4,0-0.7,0.3-0.6,0.7
				C68.2,212.4,68.4,212.6,68.9,212.6z M65.2,211.2c-0.7,0-0.9,0.3-0.9,0.7c0,0.4,0.3,0.7,0.7,0.7c0.5,0,0.8-0.3,0.7-0.8
				C65.7,211.4,65.4,211.2,65.2,211.2z M53.5,206.2c0.4,0,0.7-0.3,0.6-0.7c0-0.5-0.3-0.7-0.8-0.7c-0.4,0.1-0.6,0.4-0.5,0.8
				C52.8,206.1,53.1,206.2,53.5,206.2z M53.4,201c-0.4,0-0.7,0.2-0.7,0.7c0,0.4,0.2,0.7,0.6,0.7c0.5,0,0.8-0.2,0.7-0.7
				C54.1,201.2,53.8,201,53.4,201z M35.2,204.2c-0.4,0-0.7,0.2-0.7,0.6c0,0.4,0.1,0.7,0.6,0.8c0.5,0.1,0.8-0.2,0.8-0.7
				C35.9,204.5,35.7,204.3,35.2,204.2z M41.1,206.2c0.4,0,0.7-0.3,0.7-0.7c0-0.5-0.3-0.7-0.8-0.7c-0.4,0-0.6,0.3-0.6,0.7
				C40.4,206,40.7,206.2,41.1,206.2z M41.7,201.8c0-0.5-0.1-0.8-0.6-0.8c-0.4,0-0.7,0.1-0.8,0.6c-0.1,0.5,0.2,0.8,0.7,0.8
				C41.5,202.4,41.7,202.2,41.7,201.8z M38.7,211.3c-0.5,0-0.6,0.3-0.6,0.7c0,0.4,0.3,0.7,0.7,0.7c0.5,0,0.7-0.3,0.7-0.8
				C39.4,211.4,39.1,211.2,38.7,211.3z M68.9,196c0.4-0.1,0.7-0.3,0.6-0.7c0-0.4-0.2-0.7-0.6-0.7c-0.5,0-0.8,0.3-0.7,0.8
				C68.2,195.9,68.4,196,68.9,196z M80.6,204.9c0-0.4-0.3-0.6-0.7-0.6c-0.4,0-0.6,0.3-0.6,0.7c0,0.5,0.3,0.8,0.8,0.7
				C80.4,205.6,80.6,205.3,80.6,204.9z M53.1,197.8c-0.3,0.1-0.6,0.3-0.6,0.7c0,0.5,0.3,0.7,0.8,0.7c0.4,0,0.6-0.4,0.6-0.8
				C53.8,198.1,53.6,197.8,53.1,197.8z M35.9,202.3c0-0.5-0.3-0.6-0.7-0.6c-0.4,0-0.7,0.2-0.7,0.7c0,0.5,0.3,0.7,0.8,0.7
				C35.7,203,35.8,202.7,35.9,202.3z M74,202.4c0.4,0,0.7-0.2,0.7-0.6c0-0.4-0.2-0.7-0.6-0.7c-0.5-0.1-0.8,0.2-0.8,0.7
				C73.3,202.2,73.6,202.4,74,202.4z M49.9,212.6c0.5,0,0.7-0.2,0.8-0.6c0.1-0.4-0.1-0.7-0.5-0.8c-0.5-0.1-0.8,0.2-0.8,0.6
				C49.3,212.3,49.6,212.6,49.9,212.6z M75.6,212c0,0.4,0.3,0.6,0.7,0.6c0.4,0,0.7-0.2,0.7-0.6c0-0.5-0.3-0.7-0.8-0.7
				C75.8,211.3,75.6,211.6,75.6,212z M39.1,203.6c-0.1-0.5-0.4-0.7-0.9-0.7c-0.4,0-0.6,0.3-0.6,0.7c0,0.5,0.3,0.7,0.8,0.7
				C38.9,204.3,39.1,204,39.1,203.6z M82.4,205.7c0.1,0.4,0.3,0.7,0.7,0.6c0.4,0,0.8-0.3,0.7-0.8c-0.1-0.4-0.4-0.6-0.8-0.6
				C82.6,205,82.4,205.3,82.4,205.7z M53.1,212c0.1,0.4,0.3,0.7,0.7,0.7c0.5,0,0.8-0.3,0.7-0.8c-0.1-0.4-0.4-0.6-0.8-0.5
				C53.3,211.3,53.1,211.6,53.1,212z M72.5,196.1c0.4,0,0.7-0.2,0.7-0.7c0-0.4-0.1-0.7-0.6-0.8c-0.5-0.1-0.8,0.2-0.8,0.7
				C71.9,195.7,72.1,196,72.5,196.1z M46.9,211.9c0-0.4-0.3-0.6-0.7-0.6c-0.4,0-0.6,0.3-0.6,0.7c0,0.5,0.3,0.7,0.8,0.7
				C46.8,212.6,47,212.3,46.9,211.9z M46.2,196.1c0.4,0,0.6-0.2,0.7-0.6c0-0.4-0.1-0.7-0.5-0.8c-0.5-0.1-0.8,0.2-0.8,0.7
				C45.6,195.7,45.8,196,46.2,196.1z M79.6,208.2c0-0.4-0.3-0.6-0.7-0.7c-0.4,0-0.7,0.2-0.7,0.6c0,0.5,0.3,0.8,0.8,0.8
				C79.4,208.9,79.6,208.6,79.6,208.2z M77.5,203.6c-0.1-0.4-0.4-0.6-0.8-0.6c-0.5,0-0.7,0.4-0.7,0.8c0.1,0.4,0.4,0.6,0.8,0.5
				C77.3,204.2,77.5,204,77.5,203.6z M72.6,211.2c-0.4,0-0.7,0.2-0.7,0.7c0,0.4,0.2,0.7,0.6,0.7c0.5,0,0.8-0.2,0.7-0.7
				C73.2,211.5,73,211.3,72.6,211.2z M35.7,208.9c0.9,0.1,1.1-0.1,1.2-0.5c0.1-0.5-0.3-0.8-0.7-0.8c-0.4,0-0.7,0.3-0.7,0.7
				C35.4,208.6,35.7,208.9,35.7,208.9z M32.1,198.2c0.4,0,0.6-0.2,0.6-0.7c0-0.5-0.3-0.7-0.8-0.7c-0.4,0-0.6,0.3-0.6,0.7
				C31.4,198,31.7,198.1,32.1,198.2z M42.5,212.6c0.4,0,0.7-0.2,0.7-0.6c0-0.4-0.2-0.7-0.6-0.7c-0.4-0.1-0.7,0.1-0.7,0.6
				C41.9,212.3,42,212.5,42.5,212.6z M61.6,212.6c0.2-0.1,0.4-0.3,0.4-0.7c0-0.4-0.3-0.6-0.7-0.6c-0.5,0-0.8,0.3-0.7,0.8
				C60.7,212.4,61,212.7,61.6,212.6z M32,209.1c-0.3,0-0.5,0.2-0.6,0.6c0,0.4,0.2,0.7,0.6,0.7c0.5,0,0.8-0.2,0.8-0.7
				C32.7,209.4,32.5,209.1,32,209.1z M83.1,209.1c-0.4,0-0.7,0.2-0.7,0.6c0,0.4,0.1,0.7,0.6,0.7c0.5,0,0.8-0.2,0.8-0.7
				C83.7,209.4,83.5,209.2,83.1,209.1z M83.7,197.5c0-0.4-0.2-0.6-0.6-0.7c-0.4,0-0.7,0.1-0.7,0.6c0,0.5,0.2,0.8,0.7,0.8
				C83.5,198.1,83.7,197.9,83.7,197.5z"/>
		</g>
		<g id="XMLID_9_">
			<path id="XMLID_46_" class="st2" d="M336.3,253.9c-0.3-0.1-0.6-0.3-0.9-0.4c-0.3-0.1-0.7-0.3-0.7-0.7c0.1-0.4,0.1-0.9,0.7-0.9
				c1.2-0.1,1.2-1,1.2-1.9h0c0.1-0.3,0-0.6-0.2-0.8c-0.5-1-1.6-1.1-2.5-1.4c-0.4-0.2-0.8-0.3-1.2-0.5c-0.4-0.2-0.8-0.5-1.2-0.7
				c-6-2.5-12.1-5-18.1-7.5c-2.7-1.1-5.3-2.2-8-3.3c-0.8-0.3-1.5-0.5-2.1,0.3c-0.4,0.5-1,1.2-0.6,1.9c0.3,0.5,0.7,1,0.1,1.5
				c-0.6,0.5-1-0.1-1.5-0.3c-1.7-0.6-2.2-0.5-2.9,1.2c-1,2.4-2,4.8-3,7.3c-0.5,1.2-0.3,2.1,1,2.6c0.3,0.1,0.7,0.3,1,0.4
				c0.3,0.1,0.6,0.3,0.6,0.6c-0.1,0.3-0.1,0.8-0.6,0.8c-1.4,0-1.4,1.1-1.5,2c-0.1,1.1,0.9,1.4,1.7,1.7c6.8,2.8,13.6,5.6,20.4,8.5
				c3.1,1.3,6.2,2.5,9.3,3.8c0.7,0.3,1.4,0.5,2-0.1c0.5-0.5,1-1.3,0.8-2c-0.2-0.5-0.7-0.9-0.1-1.5c0.6-0.5,1.1,0,1.5,0.2
				c1.7,0.6,2.2,0.4,2.9-1.1c1-2.4,2-4.9,3-7.3C337.9,255.2,337.6,254.4,336.3,253.9z M333.2,257.7c-0.2,1.1-0.7,2.1-1.4,3
				c-0.2,0.3-0.5,0.5-0.9,0.5c-0.4-0.1-0.5-0.5-0.5-0.8c0.1-1.8-0.9-1.5-1.9-1c-0.9,0.4-1.8,0.8-2.5-0.3c-0.1-0.2-0.1-0.5-0.2-0.7
				c-0.5-1.1-0.9-2.2-2.1-0.6c-0.5,0.7-1,0-1.3-0.4c0.3-2-1.4-1.9-2.5-2.4c-0.6-0.1-1.2-0.8-1.9-0.4c-2.3,0.5-3,0.2-4-1.7
				c-0.5-1-1.7-1-2.6-1.4c-0.8-0.4-1.7-1.2-2.7,0c-0.5,0.7-1.2,0.3-1.1-0.5c0.1-1.7-0.8-1.6-1.8-1c-1.4,0.8-2.2,0.6-2.7-1
				c-0.6-1.7-0.8-1.6-2.1-0.6c-0.8,0.6-1.2,0.2-1.2-0.6c0-1.5,0.6-2.9,1.6-4.1c0.2-0.3,0.5-0.5,0.9-0.4c0.4,0.1,0.4,0.6,0.4,0.9
				c-0.1,1.5,0.7,1.4,1.7,1c2.1-0.8,2.1-0.8,3,1.2c0.4,0.9,0.8,1.6,1.8,0.5c0.7-0.7,1.4-0.7,1.3,0.5c0,0.9,0.4,1.3,1.2,1.5
				c1.5,0.5,2.8,1.6,4.6,0.8c1.1-0.5,2.3,0.3,2.7,1.5c0.4,1.3,1.6,1.3,2.5,1.7c0.9,0.5,1.9,1,2.9-0.1c0.4-0.4,1-0.4,1.3,0.4
				c0.6,1.9,0.6,1.9,2.3,0.9c1.2-0.3,1.7,0.3,2.1,1.3c0.2,0.6,0.2,1.7,1.4,1.3c0,0,0,0,0,0c0.5-0.3,0.9-1.1,1.5-0.6
				C333.6,256.4,333.3,257.1,333.2,257.7z"/>
		</g>
		<g id="XMLID_77_">
			<path id="XMLID_83_" class="st2" d="M251.4,307.7c-10.2-1-19.7,6.7-21.2,17.2c-0.3,2.6-0.5,5.2,0.6,7.7c0.2,1.5,0.8,3,1.5,4.4
				c0.4,1,1,1.7,1.6,2.6c4.9,6.7,13.8,9.6,21.7,7.2c8.1-2.5,13.8-9.8,14.2-18.1C270.5,317.7,262.6,308.8,251.4,307.7z M260.8,340.7
				c-9.4,7.6-23.1,3.6-27-7.8c-0.2-0.5-0.2-1-0.6-1.4c0-0.3-0.1-0.7-0.1-1c0,0,0,0,0,0c-0.4-3.9,0-7.6,1.9-11.1
				c3.3-6.1,9.8-9.5,16.9-8.8c6.6,0.6,12.5,5.5,14.4,12C268.3,329.3,266.1,336.5,260.8,340.7z"/>
			<g id="XMLID_41_">
				<path id="XMLID_49_" class="st2" d="M249.8,311.6c-8.6,0.1-15.8,7.4-15.8,15.9c0.2,9.3,7.2,15.9,16,16c8.8,0.1,16-7.3,15.9-16.1
					C266,318.7,258.7,311.5,249.8,311.6z M249.2,337.3c-0.7,0.3-0.8-0.2-1.1-0.5c-0.8-1-1.5-1.9-2.5-3.1c0.2,1.5,0.4,2.7,0.5,3.9
					c0.1,0.5,0.2,1-0.5,1.3c-0.6,0.2-0.8-0.1-1.1-0.5c-1.1-1.5-2.3-3-3.4-4.6c-0.2-0.3-0.7-0.6-0.1-1c0.5-0.4,0.8-0.1,1.2,0.3
					c0.7,0.9,1.5,1.8,2.2,2.7c0.1,0.1,0.1,0.3,0.2,0.2c0,0,0-0.2,0-0.4c-0.1-1.1-0.3-2.1-0.4-3.2c-0.1-0.5-0.2-0.9,0.5-1.1
					c0.6-0.2,0.8,0,1.1,0.4c0.7,0.9,1.4,1.9,2.4,2.7c-0.1-1.2-0.2-2.3-0.4-3.5c-0.1-0.6-0.1-1.1,0.6-1.1c0.8-0.1,0.6,0.6,0.6,1
					c0.3,1.8,0.5,3.7,0.7,5.5C249.8,336.7,249.7,337.1,249.2,337.3z M236.9,328.2c-0.1-1-0.6-1.9-0.5-3.1c0.9,0.7,1.5,2,2.7,1.5
					c1-0.4,1.9-1.2,2.1-2.4c0.6-0.4,0.9-1,1.1-1.7c1-1,2-2.1,3.5-2.3c1,0.8,1.6,0.6,1.9-0.7c0.1-0.3,0.5-0.4,0.4-0.7
					c1.1-0.4,2.2-0.1,3.2-0.2c1.3,0.2,2.6,0.8,4,0.7c1.9,0.7,2.5-0.1,2.3-3c3.1,2.4,1.8,5.3-0.4,6.4c-3.4,1.7-6.6,1.8-9.8-1
					c0.1,1.8-0.4,3.1-1.2,4.3c0,0,0,0,0,0c-0.4,0.5-0.7,0.9-1.1,1.4c-0.9,0.4-1.7,0.9-2.4,1.6c0,0,0,0,0,0c-0.4,0.1-0.8,0.2-1.2,0.3
					c-1.3,0.3-2.5,0.1-3.7-0.3C237.6,328.7,237.4,328.3,236.9,328.2 M255.3,333.9c-0.5-0.8-1-0.6-1.7-0.3c-0.7,0.3-1.5,0.6-1.1,1.6
					c0.3,0.8-0.4,0.9-0.8,1c-0.7,0.1-0.4-0.6-0.4-0.9c-0.2-1.8-0.3-3.7-0.4-5.5c0-0.5-0.2-1.1,0.6-1.4c0.7-0.3,0.9,0.2,1.3,0.5
					c1.5,1.7,2.9,3.3,4.4,5C256.4,334.3,255.8,334.8,255.3,333.9z M259.7,330.4c-0.9,0.9,0.3,3-2.1,3.2c1.2-3,0.5-5.2-2.6-6.4
					c1.2-1.4,2-0.3,2.7,0.2c0.9,0.7,1.2,0.7,1.3-0.6c0.1-0.9,0-2.1,1.7-2.1c-1.1,2.9-0.5,5.1,2.8,6.4
					C262.2,331.9,262.2,331.9,259.7,330.4z"/>
				<path id="XMLID_85_" class="st2" d="M252.1,330.3c0.2,1-0.1,1.8,0.5,2.3c0.1,0.1,0.9-0.3,0.9-0.4
					C253.5,331.4,252.9,331,252.1,330.3z"/>
			</g>
		</g>
		<path id="XMLID_43_" class="st2" d="M239,165c-1.2-5.4-4.4-9.5-8.5-13.1c-4.8-4.2-10.3-7.2-15.8-10.4c-6.1-3.5-12.5-4.7-19.4-3.7
			c-3.8,0.5-7.6,1.3-11.5,0.6c-0.7-0.1-0.5,0.3-0.5,0.6c0.1,0.9,0.7,1.5,1.2,2.3c-3.4,0.7-6.6,1.3-9.9,0c-0.3,2.7,0.7,4.4,3.3,5.6
			c-4.8,0.7-9.1,0.2-13.8-0.7c1.3,2,2.1,3.8,3.5,5.3c6.9,7.7,15,13.6,24.6,17.3c2.3,0.9,4.6,1.9,7.1,2c4.6,0.2,9.2,0.3,13.7,0.8
			c5.1,0.6,10.2,1,15.1,3c1.2,0.5,1.6,1.1,1.8,2.3c0.9,6.1,1.9,12.1,2.8,18.4c2.1-1.9,3.9-3.6,4.2-6.4c0.4-3.9,1.3-7.7,1.8-11.6
			C239.3,173.2,239.9,169.1,239,165z"/>
		<g id="XMLID_11_">
			<path id="XMLID_90_" class="st2" d="M211.9,348.9c0.4-3.1,0-6.3,0.2-9.4c0.3-3.4-0.4-6.3-2.8-8.8c-0.7-0.7-1.1-1.7-1.7-2.6
				c-1-1.5-1.4-3.1-1.4-5c0.1-5.1,0.5-10.1,0.9-15.1c0.4-6,1-11.9,0.5-17.9c-0.3-3.9-3-5.9-7.4-5.9c-3.6,0-6.3,2.5-6.5,6.1
				c-0.2,3.9-0.1,7.7,0.1,11.6c0.5,7.6,1.4,15.1,1.3,22.7c0,2.9-1.3,5.1-3.8,6.7c-1.2,0.7-2.5,0.9-3.8,1.2c-0.7,0.2-1.4,0.1-1.4,1.2
				c0.1,1.2,0.9,0.9,1.6,0.9c4.6,0,9.3,0,13.9,0c0.4,0,0.7,0,1.1,0c0.4,0,0.7,0,0.8,0.5c0,0.6-0.3,0.7-0.8,0.6c-0.3,0-0.6,0-0.9,0
				c-4.6,0-9.3,0-13.9,0c-0.6,0-1.6-0.4-1.6,0.6c0,1.1,1,0.7,1.5,0.7c4.7,0,9.5,0,14.2,0c0.5,0,1.4-0.5,1.4,0.5
				c0,1.1-0.9,0.6-1.4,0.6c-4.8,0-9.6,0-14.4,0c-0.5,0-1.4-0.3-1.4,0.7c0,1,0.9,0.6,1.4,0.6c4.8,0,9.7,0,14.5,0
				c0.5,0,1.3-0.4,1.3,0.6c0,1-0.8,0.6-1.3,0.6c-4.7,0-9.4,0-14.1,0c-0.3,0-0.6,0-0.9,0c-0.5,0-1,0-1,0.7c0,0.6,0.5,0.6,1,0.6
				c0.3,0,0.5,0,0.8,0c4.6,0,9.3,0,13.9,0c0.5,0,1.6-0.6,1.5,0.6c0,1.1-1,0.4-1.6,0.5c-0.5,0.1-1,0-1.5,0c-4.3,0-8.5,0-12.8,0
				c-0.5,0-1.3-0.2-1.3,0.7c0,0.9,0.8,0.6,1.3,0.7c0.3,0,0.5,0,0.8,0c4.6,0,9.3,0,13.9,0c0.5,0,1.3-0.4,1.3,0.6
				c0,0.9-0.9,0.5-1.3,0.5c-3.9,0-7.8,0-11.7,0c-1.1,0-2.2,0-3.2,0c-0.5,0-1,0.1-0.9,0.7c0,0.5,0.4,0.7,0.9,0.6c0.6,0,1.1,0,1.7,0
				c4.5,0,9.1,0,13.6,0c0.4,0,1-0.3,1.1,0.5c0.1,0.9-0.6,0.6-1.1,0.6c-4.1,0-8.2,0-12.4,0c-0.9,0-1.9,0-2.8,0c-0.4,0-1-0.1-1,0.6
				c0,0.8,0.6,0.7,1.1,0.7c0.4,0,0.8,0,1.2,0c4.5,0,9.1,0,13.6,0c0.5,0,1.3-0.4,1.3,0.5c0,1.1-0.9,0.5-1.4,0.6c-0.2,0.1-0.5,0-0.8,0
				c-4.4,0-8.9,0-13.3,0c-0.6,0-1.7-0.5-1.8,0.6c0,1.2,1.2,0.7,1.8,0.7c4.6,0.1,9.3,0,13.9,0c0.3,0,0.6,0,0.9,0
				c0.4,0,0.5,0.2,0.5,0.6c0,0.4-0.2,0.6-0.5,0.6c-0.4,0-0.7,0-1.1,0c-4.7,0-9.5,0-14.2,0c-0.5,0-1.4-0.3-1.4,0.7
				c0,1,0.9,0.6,1.5,0.6c3.8,0,7.6,0,11.4,0c1.1,0,2.3,0,3.4,0c0.4,0,1-0.1,1,0.6c0,0.7-0.5,0.5-0.9,0.5c-0.4,0-0.8,0-1.2,0
				c-4.7,0-9.4,0-14.1,0c-0.5,0-1.1,0-1.1,0.7c0,0.5,0.5,0.6,0.9,0.6c5.1-0.1,10.3,0.4,15.4,0c0.9,0.2,1.6,0.6,0.6,1.6H203
				c-0.3,0-0.7,0-1,0h-2.5c-0.5,0-1.1,0-1.6,0c-0.2,0-0.5,0-0.7,0h-2.5c-2.4,0-4.8-0.2-7.2-0.3c-0.5,0-1.1-0.2-1.1,0.6
				c0,0.8,0.7,0.6,1.2,0.6c2.9,0,5.8,0.5,8.8,0.5c0.1,0,0.3,0.6,0.4,0.6h1.9c0.5,0,1,0,1.4,0h0.6c0.2,0,0.4,0,0.5,0h0.5
				c0.4,0,0.9,0,1.3,0h0.3c0.2,0,0.4-0.4,0.6-0.3c0,0.4,0,0.4-0.1,0.8c-2.3,0-4.7-0.2-7-0.3c-3.1,0-6.2-0.1-9.3-0.1
				c-0.5,0-1-0.1-1.1,0.5c-0.1,0.6,0.3,0.8,0.9,0.8c2.9-0.1,5.9,0.3,8.8-0.2c2.2,0.3,4.3,0.1,6.5,0.1c0.7,0,1.1,0.2,1.3,0.9
				c-3,0.9-6.1,0.2-9.1,0.3c-2.4,0.1-4.9,0-7.4-0.1c-0.5,0-1,0-1,0.7c0,0.7,0.6,0.7,1.1,0.7c1.5,0,3,0,4.5,0c3.6,0,7.2,0,10.8,0
				c0.4,0,0.9-0.1,0.9,0.6c0,0.6-0.4,0.6-0.9,0.6c-0.7,0-1.4-0.1-2.1,0.2c-1.8-0.4-3.6-0.4-5.4,0c-2.7-0.4-5.4-0.1-8.1-0.2
				c-0.4,0-0.7,0.1-0.7,0.6c0,0.6,0.4,0.7,0.9,0.7c2.8,0,5.5-0.1,8.3-0.1c1.5,0,3.1,0,4.6,0c0.9,0,1.8,0.1,2.8,0.1
				c0.3,0,0.6,0.1,0.6,0.5c0,0.4-0.1,0.7-0.6,0.7c-0.4,0-0.7,0-1.1,0c-4.7,0-9.5,0-14.2,0c-0.5,0-1.3-0.3-1.3,0.6
				c0,1,0.8,0.7,1.4,0.7c4.7,0,9.5,0,14.2,0c0.4,0,0.7,0,1.1,0c0.4,0,0.6,0.2,0.6,0.5c0,0.4-0.1,0.6-0.5,0.6c-0.4,0-0.7,0-1.1,0
				c-4.8,0-9.7,0-14.5,0c-0.5,0-1.1-0.1-1.2,0.6c0,0.8,0.7,0.6,1.2,0.6c4.7,0,9.5,0,14.2,0c0.3,0,0.6,0,0.9,0c0.4,0,1-0.1,1,0.6
				c0,0.8-0.6,0.6-1,0.6c-0.4,0-0.7,0-1.1,0c-4.5,0-9.1,0-13.6,0c-0.6,0-1.6-0.4-1.5,0.7c0,1,0.9,0.6,1.5,0.6c4.8,0,9.7,0,14.5,0
				c0.5,0,1.3-0.3,1.2,0.6c0,0.8-0.8,0.5-1.2,0.5c-4.7,0-9.5,0-14.2,0c-0.4,0-0.8,0-1.2,0c-0.4,0.1-0.7,0.3-0.6,0.7
				c0,0.4,0.3,0.5,0.6,0.6c0.5,0,1,0,1.5,0c4.6,0,9.2,0,13.7,0c0.5,0,1.3-0.4,1.3,0.5c0,1.1-0.9,0.6-1.4,0.6c-4.7,0-9.5,0-14.2,0
				c-0.6,0-1.6-0.3-1.6,0.7c0,1,0.9,0.7,1.5,0.7c4.8,0,9.6,0,14.4,0c0.4,0,1.3-0.4,1.3,0.5c0,1-0.8,0.6-1.3,0.6c-4.7,0-9.5,0-14.2,0
				c-0.4,0-0.8,0-1.2,0.1c-0.4,0-0.5,0.3-0.5,0.6c0,0.3,0.2,0.6,0.5,0.6c0.4,0,0.7,0,1.1,0c4.8,0,9.7,0,14.5,0
				c0.4,0,1.1-0.3,1.1,0.6c0,0.9-0.7,0.5-1.2,0.6c-0.3,0-0.5,0-0.8,0c-4.5,0-9.1,0-13.6,0c-0.6,0-1.7-0.4-1.7,0.7
				c0,1.1,1.1,0.6,1.7,0.6c4.5,0,9,0,13.4,0c0.3,0,0.5-0.1,0.8,0c0.5,0.1,1.3-0.4,1.2,0.6c0,1-0.8,0.6-1.3,0.6c-4.7,0-9.5,0-14.2,0
				c-0.4,0-0.7,0-1.1,0c-0.3,0-0.6,0.1-0.6,0.5c-0.1,0.4,0.1,0.7,0.5,0.8c0.4,0.1,0.7,0.1,1.1,0.2c6.1,0.8,12.1,1.6,18.2,2.4
				c1.3,0.2,2.3-0.3,3.1-1.3c1.9-2.5,2.8-5.3,2.8-8.3c0.1-8,0-16.1,0-24.1C212.1,354,212.3,351.4,211.9,348.9z M200.5,295.5
				c-1.3-0.1-2.3-1.2-2.2-2.6c0.1-1.4,1.2-2.4,2.5-2.4c1.3,0.1,2.4,1.3,2.4,2.6C203.2,294.5,201.9,295.6,200.5,295.5z"/>
		</g>
		<polygon id="XMLID_87_" class="st2" points="59.9,269.5 59.3,269.8 59.4,269.6 60,269.2 		"/>
		<path id="XMLID_98_" class="st2" d="M100.7,254.8c-1.5-3.6-3.1-7.3-4.6-10.9c-0.5-1.1-0.6-2.2-1.4-3.2c-0.1-1.3-0.9-2-2.1-2.1
			c-1-0.1-1.6,0.6-1.6,1.5c0.1,1.3-0.6,1.3-1.6,1.3c-7.3,0.3-13.7,2.9-19.1,7.9c-0.4,0.4-1,0.8-0.9,1.4c0.2,1.1-0.4,1.1-1.2,1.1
			c-5.5,0.2-10.9,0.4-16.3,1.3c-4.4,0.7-6.7,3.6-6.4,8.1c0.3,5.2,2.2,9.8,5.7,13.7c2.8,3.2,6.6,3.6,10.1,1.2
			c4.4-3.1,8.3-6.8,12.2-10.4c0.7-0.6,1.2-1.6,2.2-0.3c0.2,0.3,0.8,0.2,1.2,0.2c1.8,0,3.5-0.2,5.2-0.6c5.5-1.2,10.2-3.7,14.3-7.5
			c0.3-0.3,0.5-1.2,1.3-0.4c0.7,0.8,1.6,1.3,2.6,0.5C101.3,256.9,101.2,255.8,100.7,254.8z M51,256.8c1.6-0.5,3.1-0.8,4.6-0.9
			c4.6-0.8,9.2-1.7,13.8-2.5c0.6-0.1,1.2-0.2,1.3,0.6c0.1,0.8-0.6,0.5-1,0.6c-4.7,0.6-9.4,1.2-14.1,1.8
			C54.1,256.4,52.6,256.6,51,256.8z M74.3,263.2c-0.4,0.9-1.8,1.3-2.7,1.9c-3.1,2.1-6.3,4.3-9.4,6.5c0,0-0.1,0.1-0.1,0.1v0
			c0,0,0.1-0.1,0.1-0.1c0,0,0,0.4-0.1,0.4l0.3,0.1h0c2.9-2,5.9-5.2,8.8-7.5c0.5-0.4,0.9-1,1.4-1.4c0.1-0.1,0.3-0.4,0.2-0.4
			c-0.1-0.3-0.3-0.2-0.5-0.1c-3.8,2.2-7.5,4.4-11.4,6.5c-0.4,0.2,0,0.6-1,0.5v-0.1c4-2.8,8.3-5.6,12.5-8.4c-0.1-0.1-0.2-0.2-0.3-0.3
			c-1.5,0.7-2.9,1.4-4.4,2c-2.8,1.2-5.4,2.7-8.2,3.8c-0.2,0.3-0.4,0.4-0.7,0.3c0,0-0.1-0.1-0.1-0.2c0.2-0.1,0.5-0.2,0.7-0.3
			c3.7-2.1,7.4-4.1,11.1-6.2c0.2-0.1,0.4-0.2,0.6-0.3c0.2-0.1,0.7-0.1,0.5-0.5c-0.2-0.3-0.5,0-0.7,0.1c-0.2,0.1-0.4,0.2-0.6,0.3
			c-4.2,1.6-8.4,3.1-12.5,4.7c-0.6,0.2-1.1,0.6-1.8,0.4c5.1-2.3,10.1-4.6,15.2-6.9c0-0.1-0.1-0.2-0.1-0.4c-5.3,1.5-10.6,3.1-16,4.6
			c0-0.1,0-0.1-0.1-0.2c5.2-1.9,10.4-3.7,15.6-5.6c0-0.7-0.5-0.3-0.7-0.2c-4.6,0.9-9.1,1.9-13.7,2.8c-1.2,0.3-2.4,0.6-3.7,0.7
			c0,0,0,0,0,0c1.2-0.6,2.4-0.8,3.7-1.1c4.5-1.2,8.9-2.4,13.4-3.5c0.5-0.1,1-0.8,1.6,0c0.7,0.9-0.8,0.7-0.6,1.3
			c0.5-0.2,1.2-0.4,1.2,0.3c-0.1,0.8,1.8,1.6-0.1,2.5c1-0.4,1.4-0.2,1.6,0.8C73.5,261.1,74.7,262.2,74.3,263.2z"/>
		<rect id="XMLID_86_" x="72.3" y="256" class="st2" width="28.8" height="0.3"/>
	</g>
</g>
</svg>
