<?xml version="1.0" encoding="utf-8"?>
<!-- Generator: Adobe Illustrator 19.0.0, SVG Export Plug-In . SVG Version: 6.00 Build 0)  -->
<svg version="1.1" id="Layer_1" xmlns="http://www.w3.org/2000/svg" xmlns:xlink="http://www.w3.org/1999/xlink" x="0px" y="0px"
	 viewBox="0 0 400 400" style="enable-background:new 0 0 400 400;" xml:space="preserve">
<g>
	<path d="M286.6,102.8c-0.5-0.7-1.2-1.4-2-1.8c-3.8-1.9-7.6-3.8-11.5-5.4c-10.8-4.3-21.9-7-33.7-6.1c-16,1.2-26.9,9.5-33.2,24.1
		c-0.5,1.1-0.9,2.3-1.4,3.4c-0.2-0.4-0.3-0.7-0.3-0.9c0.1-7.3,3-13.5,7.7-18.9c9.9-11.4,22.7-15.7,37.5-14.9
		c11,0.6,21.1,4.4,30.7,9.5c0.6,0.3,1.2,0.6,2.1,1.1c-0.2-0.9-0.3-1.5-0.5-2c-1.3-3.4-2.5-6.8-4.1-10c-5.2-10.2-13-17.9-23.6-22.3
		c-11.1-4.6-22.4-3.9-33.6,0.1c-7,2.5-13.3,6.5-18.9,11.4c-12,10.6-17.3,23.7-14.1,39.7c0.7,3.4,1.7,6.7,2.5,9.9
		c0,0-0.1-0.1-0.2-0.2c-0.4-0.8-0.8-1.5-1.2-2.3c-4.5-9.2-6.4-18.9-3.7-28.9c3.9-14.7,13-25.2,26.9-31.6c7.3-3.4,15-5.1,23.1-5.4
		c3.3-0.1,6.6,0,9.9,0c0.1-0.1,0.2-0.2,0.3-0.4c-0.4-0.3-0.9-0.5-1.2-0.8c-5.5-4.9-12-7.6-19.3-7.8c-13.9-0.5-25.8,4.3-35.2,14.6
		c-2.5,2.7-4.6,5.8-7,8.9c6-13.3,15.5-22.4,29.8-26.5c-6.2-2.5-12.3-4.3-18.7-5.3c-20.6-3.2-39.3,1.2-55.9,13.8
		c-3.8,2.9-7.2,6.4-10.3,10c-6.3,7.3-9.8,15.8-10,25.5c-0.3,11.1,3.1,21.2,9.1,30.4c0.4,0.6,1.3,1.2,2,1.4
		c5.7,1.4,11.4,3.1,17.3,3.9c10.4,1.4,20.9,2.5,31.5,3.3c7.1,0.6,14.2,0.8,21.2,0.5c12.4-0.6,24.6-3,36.8-5.2
		c0.3-0.1,0.6-0.2,1.1-0.3c-1.1-1.8-2-3.4-3.1-5.1c2.7,0.4,6,2.2,8.5,4.6c6,5.7,8.4,13,9.4,20.9c1.2,9.2,1.4,18.5,0.6,27.8
		c-0.3,3.8-0.9,7.5-1.4,11.1c-0.9,0.1-1.6,0.1-2.2,0.2c-2.3,0.4-4.5,0.9-6.8,1.2c-6.8,0.9-13.7,1.6-20.5,2.6
		c-4.2,0.6-9.1,5.7-9.9,9.8c12-2.8,24.2-3.5,36.8-3.1c-2.7,9.7-6.4,18.4-11.2,26.8c3.1-3.8,6.1-7.6,8.6-11.6
		c2.6-4.1,4.8-8.5,7.3-12.8c1.2,0.6,2.4,1.3,3.7,2c1.3,0.7,2.5,1.5,4,2.4c-0.3-1.2-0.5-2.2-0.8-3.1c-0.5-1.2-0.3-2.3,0.2-3.5
		c1-2.2,1.7-4.5,2.5-6.7c0.6-1.9,1.1-3.9,1.7-5.8c-2.7,24.2-9.6,46.6-28.2,63.7c22.1-14.5,32.1-36.6,37.5-61.6
		c1.4,5.4,1.7,10.7,1.3,16c-1.2,17.1-8.4,31.9-18.2,45.7c4.8-3.8,9-8.2,13-12.8c-1.2,4.2-2.6,8.4-4,12.5
		c-3.4,9.7-8.4,18.3-16.7,24.7c-3.4,2.7-6.7,5.5-9.9,8.4c-0.7,0.6-1.1,1.7-1.3,2.6c-0.4,2.3-0.6,4.6-0.9,7c-0.3,1.9-0.6,3.7-0.9,5.6
		c-0.3-3.1-0.3-6.2-0.7-9.2c-0.7-5.5-1.5-11-2.5-16.5c-0.6-3.4-2.6-5.9-5.5-7.7c-7.9-4.9-16.3-8.8-25-12c-1.8-0.7-3.4-0.6-5,0.4
		c-2.1,1.4-4.1,1.5-6.2,0c-1.6-1.1-3.4-1.2-5.2-0.4c-3.3,1.4-6.8,2.6-10,4.2c-5.4,2.7-10.7,5.7-16,8.6c-1.8,1-3,2.7-3.7,4.7
		c-2,5.8-2.6,11.8-3.1,17.9c-0.3,3.2-0.3,6.5-0.5,9.7c-0.6-2.5-1.4-5-1.3-7.5c0.1-5.2-2.4-8.6-6.3-11.7c-3.9-3-7.6-6.4-11-9.9
		c-5.8-6-8.9-13.6-11.8-21.2c-3.8-10.3-6.7-20.9-9.2-31.7c-0.2-0.8-0.6-1.5-0.9-2.2c-0.2,0-0.3,0.1-0.5,0.1c0,2.3,0,4.5,0,6.8
		c-0.2,14.4-0.3,28.8-0.7,43.1c-0.2,5.4-0.9,10.8-1.6,16.1c-0.4,3.1-0.5,6.1,0.3,9.1c0.3,1,0.5,2,0.7,3c2.9,11.6,6.4,23.1,11.9,33.8
		c1.6,3.1,3.5,6,5.3,9c0.2-0.1,0.3-0.2,0.5-0.3c0-4.8,0.3-6.6,1.8-8c4.7,14.2,13.3,24.9,26.9,30.9c0.4-2.1,0.8-4,1.3-6.3
		c0.6,0.7,0.8,1,1,1.3c3,3.7,5.9,7.6,9.2,11c5.9,6.3,12.7,11.3,20.9,14.1c3.2,1.1,6.5,1.5,9.7,0.1c3.1-1.3,6.2-2.5,9-4.1
		c8.4-5,14.9-12,20.6-19.7c0.6-0.8,1.2-1.6,2.1-2.8c0.5,2.4,0.9,4.4,1.3,6.5c4.9-2.2,9.3-5.1,13.2-8.7c6.1-5.6,10.2-12.4,12.9-20.1
		c0.3-0.7,0.6-1.4,1.1-2.4c1.5,2.8,1.6,5.5,1.7,8.3c1.4-1.8,2.7-3.5,3.8-5.4c6.3-10.7,10.1-22.3,13.4-34.2
		c1.4-5.2,1.5-10.3,0.8-15.6c-0.6-4.8-1-9.6-1.1-14.5c-0.3-12.5-0.4-25-0.6-37.5c0-0.7,0.2-1.5,0.5-2.2c10.4-18.7,13.9-38.8,12-59.9
		c-0.2-2.5-0.6-5-0.9-7.5c5.2,7.7,7.2,16.6,9.3,25.6c0.2-0.5,0.3-0.8,0.3-1.1c0.8-5.3,2-10.6,2.3-16
		C301.3,136.1,296.6,118.8,286.6,102.8z M134.5,110.2c-5.8-12-8.7-24.3-4.5-37.4c4.2-13,13.3-21.7,25.1-27.8
		c-9.2,8.1-16.3,17.6-19.9,29.5C131.7,86.2,131.9,98.2,134.5,110.2z M174.3,113.6c-3.3-2.8-9.4-12.9-11.1-20.8
		c-1.8-8-1.6-15.7,1.5-23.8c0,6.3,0,12.3,0,18.2c0.1,0,0.3,0,0.4,0c0.1-10.5,3.8-19.6,11-27.2C165.7,77.5,166.9,95.4,174.3,113.6z
		 M162.3,52.8c-7.1,6.5-11.7,14.6-13.7,24c-1.3,6.3-0.8,12.8-0.1,19.2c0.8,6.8,2.3,13.4,4.4,20c0.1,0.2,0.1,0.5,0.2,0.7
		c-0.1,0-0.2,0.1-0.3,0.1c-1.4-2.8-2.8-5.6-4-8.5c-3-7.2-5-14.6-5.3-22.5c-0.6-17.8,9.9-39.1,34.9-44.9c2.6-0.6,5.2-1.1,7.8-1.3
		c2.7-0.2,5.5,0,8.6,0c-2.6,0.5-5,0.8-7.4,1.3C178.1,42.9,169.4,46.2,162.3,52.8z M224.7,273.6c-5.3,4-11.1,7.2-17.9,7.3
		c-1.7,0-3.4-0.3-5.1-0.9c-0.7-0.2-1.4-1.3-1.4-2c0-0.6,0.8-1.3,1.4-1.9c1.3-1.1,2.7-2.1,4.3-3.2c-8.4,0-16.2,0-24.1,0
		c0.8,1.3,2,2.4,3.5,3.1c0.9,0.5,1.9,0.9,1.8,2.2c-0.1,1.3-1,1.8-2.1,2.2c-3.4,1.1-6.9,0.7-10.2-0.2c-4.4-1.2-8.4-3.5-12-6.3
		c-0.5-0.3-0.9-1.1-0.9-1.6c0.3-2,0.7-4.1,1.3-6.1c0.6-1.7,2.1-2.5,3.9-2.8c0.2,0.5,0.4,0.9,0.6,1.4c3.9-0.3,7-2.5,10.3-4.6
		c-0.1,0.8-0.2,1.3-0.3,2.3c2.3-0.7,4.5-1.2,6.6-2c2.1-0.8,4.1-1.7,6.1-2.8c2.1-1.1,4.2-0.9,6.3,0.1c3,1.3,6.1,2.6,9.2,3.8
		c1,0.4,2.1,0.5,3.3,0.8c-0.1-0.8-0.1-1.3-0.2-2.1c3.2,2.2,6.4,4.2,10.3,4.7c0.2-0.5,0.4-0.9,0.6-1.4c1.8,0.3,3.3,1,3.9,2.6
		c0.7,2,1,4.2,1.4,6.4C225.4,272.7,225.1,273.4,224.7,273.6z M258.6,188.1c-1.2-2-2.3-3.5-3.2-5.2c-0.2-0.4-0.2-1.1-0.1-1.5
		c3.3-10.3,4.8-20.9,4.3-31.8c0-0.7-0.1-1.3-0.1-2c0-0.6-0.1-1.2,0-1.8C262.3,159.8,260.6,173.7,258.6,188.1z M278.2,141.4
		c-1.1-3.5-2-7.1-3.3-10.6c-2.8-7.9-7-15-13.5-20.4c-6-4.9-12.8-7.5-20.7-6.4c-6,0.9-10.9,3.8-14.5,8.8c-0.3,0.4-0.5,0.7-1,1
		c0.2-0.4,0.3-0.8,0.5-1.2c3.7-9,12.1-13.8,21.7-12.4c13,1.9,21.6,9.6,27.1,21.1C277.5,127.6,278.5,134.4,278.2,141.4z"/>
	<path d="M110.9,197.7c0.1,0,0.3,0.1,0.4,0.1c0.1-0.6,0.4-1.3,0.4-1.9c0.3-9.5,0.7-19.1,2.3-28.5c0.7-4.2,1.4-8.4,3.3-12.3
		c0.2-0.4,0.1-1,0-1.4c-0.8-3.9-2.1-7.8-2.5-11.8c-0.8-8.7,1.4-16.6,7-23.4c0.4-0.5,0.6-1.4,0.4-1.9c-0.9-3.6-1.7-7.2-3-10.7
		c-1.4-4-3.7-7.7-6.3-11.2c1.5,6.7,2.9,13.3,4.3,19.9c-0.1,0-0.3,0.1-0.4,0.1c-0.6-1.8-1.2-3.6-1.8-5.3c-0.6-1.7-1.2-3.4-1.9-5.1
		c-0.7-1.7-1.4-3.3-2.2-5c-0.1,0-0.1,0.1-0.2,0.1c1.2,7.4,2.3,14.8,3.5,22.2c-0.1,0-0.2,0-0.4,0.1c-1.6-5-3.1-10.1-4.7-15.1
		c-0.1,0-0.3,0.1-0.4,0.1c0.7,6.7,1.5,13.3,1.3,20.4c-1.6-6-3.1-11.7-4.6-17.4c-0.2,0-0.4,0-0.5,0.1c-0.1,0.1-0.1,0.3-0.2,0.4
		c-0.3,1.1-0.7,2.1-1,3.2c-6.2,22.6-5.2,45.1,0.2,67.6c0.1,0.4,0.3,0.8,0.6,1c3,2,4.1,5.1,4.9,8.4
		C110.1,192.7,110.5,195.2,110.9,197.7z"/>
	<path d="M177.1,190.6c-1.6-2.3-2.9-4.3-4.2-6.2c-1.6-2.3-3.9-3.6-6.6-3.9c-2.3-0.3-4.5-0.6-6.8-0.9c-6.9-0.9-13.7-1.9-20.6-2.8
		c-0.5-0.1-1.3,0.2-1.7,0.6c-2.3,2.7-4.6,5.3-6.6,8.1c-1.7,2.4-2.6,5.2-3.1,8.3c2-1.1,3.7-2.2,5.6-3.2c3.1-1.6,6.2-3.5,9.8-3.5
		C154.2,187.2,165.5,187.6,177.1,190.6z"/>
</g>
</svg>
