<?xml version="1.0" encoding="utf-8"?>
<!-- Generator: Adobe Illustrator 19.0.0, SVG Export Plug-In . SVG Version: 6.00 Build 0)  -->
<svg version="1.1" id="Layer_1" xmlns="http://www.w3.org/2000/svg" xmlns:xlink="http://www.w3.org/1999/xlink" x="0px" y="0px"
	 viewBox="0 0 400 400" style="enable-background:new 0 0 400 400;" xml:space="preserve">
<g id="XMLID_3_">
	<path id="XMLID_35_" d="M133.1,200.8c2.2-1.8,4.2-3.5,7.4-2.5c1,0.3,2.2-0.1,3.2,0.8c8.3,7.2,20.1,8.4,29.6,3.1
		c3.8-2.1,7.6-4,12.1-3.7c-3.8-2.5-7.8-3.1-12.1-2.3c-9.9,1.8-18.2-1.4-25.4-8c-0.8-0.7-0.8-1.1-0.1-1.9c5.2-5.9,9.8-12.1,14.2-18.5
		c0.8-1.2,1.4-1.2,2.6-0.6c6.4,3.4,12.9,6.7,19.3,10.2c1.2,0.7,1.7,0.5,2-0.8c0.7-2.7,0.9-5.4,0.7-8.2c-0.1-1.3-0.6-1.7-1.7-2
		c-4.5-1.3-9-2.6-13.5-3.9c-1.5-0.4-2.9-0.9-4.7-1.4c5-6.6,9.7-13,14.6-19.2c12-15.3,24.4-30.3,38.9-43.2c6-5.4,12.3-10.5,20-13.5
		c3.2-1.3,6.4-2.2,10-0.8c0-0.5,0-0.8,0-1.2c-0.7-6.9-2.2-13.7-5.1-20c-4-8.7-9.2-16.3-18.4-20.3c6.3,0.2,10.8,3.7,14.9,8.2
		c0-0.5,0.1-0.8,0-1c-2.8-4.8-6.1-9.2-11.4-11.4c-3.9-1.6-7.8-1.2-11.6,0.5c-6.4,2.9-11,7.9-14.9,13.7c5.2-2.7,10.4-4.8,16.3-4
		c6,0.8,10.8,3.8,14.8,8.2c-0.1,0.1-0.2,0.3-0.3,0.4c-5.3-3.3-10.5-2.5-15.5,0.5c-6,3.6-10.6,8.7-14.9,14
		c-9.5,11.8-17.3,24.8-25.1,37.8c-10.2,16.9-19.8,34.2-30.7,50.6c-5.2,7.7-10.5,15.4-17,22c-0.1-0.1-0.3-0.2-0.4-0.3
		c0.5-0.8,0.9-1.6,1.4-2.4c11.3-18.8,21.6-38.1,30.8-58c0.3-0.7,0.9-1.4,0.7-2.7c-0.7,1.2-1.2,2.1-1.6,2.9
		c-3.1,5.6-6.4,11.1-10.3,16.2c-6.7,8.7-14.3,16.4-24.3,21.4c-4.7,2.4-9.7,3.7-15,2.9c0,0.3,0,0.5,0,0.8c6.3,2.5,12.7,2.3,19.1,0
		c-7.7,8.8-15.8,16.8-26.1,22.3c-7.6,4-15.5,6.2-24.3,2.3c3.5,6.3,8.1,10.9,13.9,14.2c5.8,3.3,12.2,5,19.4,5
		c-8.4,4.1-16.5,4.6-24.8,1.3c5.8,4.1,12.2,5.5,19.1,4.5C118.1,211.4,125.9,206.7,133.1,200.8z M145,189.9c1.2,1.2,1.1,2.3-0.3,3.5
		c-1.7,1.4-3.5,2.4-6.2,2.8C140.9,193.8,143,191.9,145,189.9z"/>
	<path id="XMLID_50_" d="M89.5,186.5c-1.2-10.1,0.8-19.2,5.9-27.5c5-8.2,12.1-14.3,20.1-19.5c-8.8,0.4-16.6,3.5-23.6,8.6
		c0.8-1.8,1.6-3.3,2.5-4.7c6.9-11.1,16.4-19.7,26.9-27.2c14.1-10.1,29.5-17.7,45.4-24.4c0.4-0.2,0.9-0.4,1.3-0.7
		c-5.1,0.1-10,0.7-14.9,1.6c-5,0.9-9.9,2-14.7,3.4c-4.8,1.4-9.5,3-14.1,4.9c-4.7,1.9-9.2,4.2-13.5,6.7c-4.2,2.4-8,5.5-12.2,8
		c0-0.6,0.3-1,0.5-1.3c7.1-9.1,15.9-16.3,25.4-22.7c19.8-13.2,41.4-22.6,63.9-30.3c0.6-0.2,1.2-0.4,2.4-0.9c-1.4,0-2.1,0-2.8,0
		c-20.1,1.2-39.6,5.1-58.4,12.4c-8.5,3.3-16.6,7.4-24.6,11.5c-0.2-0.1-0.4-0.2-0.6-0.3c0.2-0.2,0.3-0.5,0.5-0.7
		c8.2-9,17.8-16.3,28.1-22.6c16.7-10.2,34.6-17.6,53-24c11.5-4,23-6.4,35.2-5.1c15.9,1.6,27.1,10.6,31.9,25.8
		c0.2,0.5,0.1,1.1,0.9,1.6c-0.2-3.7-1.1-7.1-2.2-10.4C246.8,34.5,237.5,25,222.4,22c-10.2-2-20.3-0.8-30.2,1.9
		c-23.3,6.4-45.2,16-65.7,28.8c-12.3,7.7-23.7,16.6-32.6,28.2c-10.4,13.6-15,28.6-10.3,45.7c0.6,2.2,0.8,4-0.7,5.9
		c-0.9,1.1-1.6,2.6-2.1,4c-6,14.8-4.2,28.9,3.4,42.6C85.5,181.7,87.2,184.1,89.5,186.5z"/>
	<path id="XMLID_51_" d="M303.8,122.3C303.8,122.3,303.8,122.3,303.8,122.3c-0.1-0.1-0.3-0.3-0.4-0.4c0,0-0.1,0-0.2,0
		c-0.1,0-0.2-0.1-0.3-0.1c0.1,0.2,0.2,0.3,0.3,0.5c0.1,0.1,0.2,0.1,0.4,0.1c0.3,0.4,0.6,0.8,0.9,1.1c8.5,8.8,12.9,19.2,13.3,31.4
		c0.2,0.7,0.2,1.3-0.1,2.2c-0.5-0.8-0.7-1.4-0.6-2.2c-1.9-7.3-6.6-12-13.4-14.8c-6.4-2.7-13.3-3.3-20.1-3.4
		c-6.3-0.1-12.3-1.2-18.2-3.5c-8.3-3.2-13.7-8.5-16.1-15.7c9.5,12,23,12.5,36.7,13.3c-0.3-0.7-0.7-0.5-1.1-0.6
		c-5.2-0.7-10.2-1.7-15.1-3.5c-14.6-5.4-21.9-16.9-20.1-31.5c-0.6,0.3-0.7,0.9-0.9,1.4c-1.7,3.7-3,7.5-3.9,11.4
		c-3.9,17,2.1,31.4,16.9,40.2c5,3,10.3,5.2,15.9,6.7c5.1,1.4,10.3,2.8,15.1,5.2c2.6,1.3,5.3,2.6,7.2,5.1c0,0,0.1,0.1,0.1,0.1
		c0.1,0.1,0.2,0.2,0.2,0.2c0-0.1-0.1-0.1-0.2-0.2c0,0-0.1-0.1-0.1-0.1c-0.1,0.1-0.2,0.3-0.3,0.4c-7-2.7-14.3-3.6-22.1-2.3
		c3.6,3.3,6.5,6.8,8.6,10.8c2.1,4,3.4,8.2,3.9,12.7c0.5,4.5-0.3,10.9-1.9,13.2c-0.4-1.7-0.7-3.2-1.1-4.7c-0.3-0.2-0.3-0.5-0.2-0.9
		c-0.3-0.8-0.5-1.6-0.9-2.4c-1.2-2.8-2.3-5.6-4.8-7.6c-0.2,0.6,0,1.1,0.1,1.6c1.9,9.8,0.8,19.1-4.3,27.8c-1,1.7-1.8,3.5-2.5,5.3
		c-2.3,6.5-2.7,12.8,2,18.6c0.5,0.7,1.1,1.4,2.2,1.7c-1.6-4-0.6-7.3,1.4-10.5c1.6-2.6,3.8-4.7,5.8-7c4.4-4.8,8.8-9.5,12.2-15.1
		c5.1-8.4,6.8-17.4,4-27c-0.1-0.3-0.4-0.8,0.3-1.2c3.8,5.5,4.8,11.7,4.3,18.8c5.8-7.2,10.1-14.5,13-22.5
		C327.2,153.7,321.2,135.3,303.8,122.3z"/>
	<path id="XMLID_52_" d="M239.6,291.8c-6,6.5-13.1,11.7-20.9,15.9c-9.2,5-18.6,5.4-28,0.6c-10.5-5.3-19.2-12.7-26.6-21.7
		c-0.3-0.4-0.4-1.1-1.2-0.9c0.2,1.3,0.4,2.6,0.5,3.9c0.1,1.3,0.2,2.6,0.2,3.9c0.2,12.5-2.3,24.5-5.5,36.5
		c-2.8,10.8-6.2,21.3-12.3,30.8c-4.2,6.5-9.1,12.4-14.4,18.3c0.8,0.2,1.1,0.3,1.5-0.1c1.2-1.4,2.8-2.4,4.2-3.7
		c5.1-4.8,9.5-10.1,13.2-16c10.4-16.3,15.2-34.4,17.7-53.3c0.4-3.2,0.7-6.3,1-9.7c6.3,7.2,13.5,12.7,21.7,16.8
		c9.9,5,19.5,4.6,29-1.3c8.6-5.3,15.6-12.1,21.4-20.2c0.2-0.3,0.8-0.7,0-1.5C240.5,290.5,240.1,291.2,239.6,291.8z"/>
	<path id="XMLID_53_" d="M270.6,105.4c6.8,3.3,14.1,3.8,21.6,3.4c5.5-0.4,11.1-1.1,16.6-0.3c7.1,1,10.7,4.4,11.7,11.2
		c0,0.1,0.2,0.2,0.4,0.3c0.6-6.2-1.5-11.2-6.5-14.9c-3.9-2.9-8.4-4.3-13.1-5.3c-5.9-1.2-11.9-0.8-17.9-1.7c-6.6-1-12.8-2.8-17.8-7.6
		c0.1-0.1,0.3-0.3,0.4-0.4c6.5,1.1,12.8,0.5,19.1-1.4c-4.8,0.1-9.7,0.3-14.4-0.8c-4.9-1.2-9.1-3.4-12.5-7.3
		C256.4,90.8,261.5,101.1,270.6,105.4z"/>
	<path id="XMLID_56_" d="M179.5,271.2c2.7,2.5,4.7,5.1,6.6,7.7c2,2.8,4.7,4.8,7.9,6.1c4.6,2,9.5,1.8,14.3,1.5
		c5.1-0.3,9.7-2.3,13.1-6.3c2.3-2.7,4.1-5.8,6.8-8.1c0.7-0.6,0.5-1.2-0.3-1.4c-3.9-0.9-7-3.3-10.4-5.2c-3.9-2.2-8-3.3-12.4-1.3
		c-0.5,0.2-0.9,0.2-1.4,0c-5-2.2-9.5-0.7-13.7,2C186.8,268.4,183.6,270.3,179.5,271.2z M197.9,281.8c-2.5-0.7-4.7-1.8-6.5-4.2
		c2.3,1,4.1,2,6.1,2.3C199,280.1,197.4,281.1,197.9,281.8z M200.4,282.3c-0.8-0.1-1.7-0.2-1.6-1.3c0.1-0.9,1-0.9,1.7-0.9
		c0.8,0.1,1.7,0.2,1.6,1.3C202,282.3,201.1,282.4,200.4,282.3z M207.1,282.8c-0.7,0-1.3-0.3-1.3-1.1c0-0.6,0.3-1,0.9-1
		c5.3-0.3,10.2-2,14.8-4.6C217.6,280.5,212.9,282.9,207.1,282.8z M214.6,266.3c-2.7-0.5-5.4-1.4-8.5-0.1
		C208.4,264.1,212,264.3,214.6,266.3z M201.7,265.7c-2.3-0.4-4.6,0.1-6.9,0.2C197.1,264.5,199.4,264.1,201.7,265.7z M194.8,265.9
		c-0.1,0.4-0.5,0.4-0.8,0.4C194.1,265.9,194.4,265.9,194.8,265.9z M193.8,266.4c-0.3,0.1-0.5,0.3-0.8,0.4c0-0.1,0-0.1-0.1-0.2
		C193.2,266.5,193.5,266.4,193.8,266.4z M199.2,269.2c3.6,1.1,7,0.9,10.6,0c2.9-0.7,5.5,0.3,8.3,1.3c-9.3,4.3-18.5,4.2-27.6,0.1
		C193.1,269.3,196.2,268.3,199.2,269.2z"/>
	<path id="XMLID_64_" d="M273.8,195.9c-4,0.8-7.6-0.1-10.5-3c-0.7-0.7-0.9-1.3-0.4-2.2c1.2-2.4,2.1-4.9,2.9-8
		c-2.5,2.8-4.7,5.1-7.2,7.2c-6.9,5.5-14.6,8-23.4,6.4c-3.4-0.6-6.7-0.5-9.9,0.9c-0.4,0.2-1.2,0.1-1,0.8c0.1,0.5,0.6,0.7,1.2,0.7
		c3.5-0.1,6.3,1.5,9.2,3.2c9.5,5.5,21.4,4.5,29.9-2.5c1-0.8,1.9-1.1,3.1-1.1c2.8,0.1,5.4-0.7,7.9-2.5
		C274.8,195.5,274.3,195.8,273.8,195.9z"/>
	<path id="XMLID_65_" d="M140.1,256.1c-8.4-12.8-12.2-26.7-9.3-42.2c-3.8,3.4-5.8,7.3-6.8,12.1c0,1.4,0,2.8,0,4.5
		c0-1.3-1.1-2.4-0.9-3.6c-0.4-5.7,0.6-11.1,3-16.6c-0.5,0.2-0.7,0.2-0.9,0.4c-7.2,6.7-9.1,16.2-4.9,25.1
		c4.1,8.7,11.1,14.8,18.8,20.2C139.5,256.3,139.8,256.4,140.1,256.1z"/>
	<path id="XMLID_66_" d="M260.8,156.1c-12.8,2.7-25.1,6.8-37.6,10.4c-1,0.3-1.2,0.9-1.3,1.7c-0.3,2.5-0.2,5,0.5,7.5
		c0.6,2.5,0.6,2.5,2.8,1.3c9.4-5.2,19-10,28.7-14.5c6.4-3,13.1-4.7,20.3-3.9c2.3,0.3,4.5,0.6,6.8,0.8
		C276.5,156.4,267,154.8,260.8,156.1z"/>
	<path id="XMLID_67_" d="M262.9,53.7c2.7-3.2,6.1-4,9.8-2c1.1,0.6,2.2,1.4,3.2,2.2c2.3,1.8,4.8,3.2,7.7,3.8c3.1,0.6,5.7-0.1,7.7-2.7
		c0.3-0.4,0.9-0.9,0.7-1.5c0,0,0.1,0,0.1-0.1c-0.1-0.1-0.2-0.2-0.3-0.2c0,0,0,0,0,0l0,0c-1.2,1-2.2,0.4-3.2-0.5
		c-1-1-1.6-2.4-2.1-3.7c-0.7-1.8-0.9-3.8-1.9-5.5c-2.1-3.9-7.2-5.2-10.8-2.5c2.4-0.6,4.5,0,6.3,1.6c3.4,3,3.6,7.6,6,11.1
		c-2.3-0.6-4-2.1-5.7-3.5c-2-1.9-4.2-3.5-6.7-4.7c-4.9-2.2-8.8-0.8-11.1,4c-1.1,2.3-1.6,4.7-2.1,7.3
		C261.8,56.1,262.1,54.7,262.9,53.7z"/>
	<path id="XMLID_68_" d="M278.9,73.2c-0.1-2.4-1.3-4.1-2.3-5.8c-1-1.8-2.6-3.1-4.7-4.6c8.7-0.5,15.4,3.4,22,7.5
		c-4.4-5-9.2-9.5-15.7-11.6c-5.6-1.8-10.4-0.3-14.3,3.9c-2.7,2.9-4.3,6.3-6,10.5C265.2,67.4,272.1,66.4,278.9,73.2z"/>
	<path id="XMLID_69_" d="M255.9,58.8c1-5.3,1.3-10.6,0.7-15.9c-0.5-4.6-1.8-9.1-4.5-12.9c-3.7-5.3-8.9-8-15.2-8.5
		C250.8,30.1,255.8,43.2,255.9,58.8z"/>
	<path id="XMLID_70_" d="M112.7,230.3c-1.8-4.8-2.4-9.5,0.4-14.1c0,0,0,0,0,0c0-0.2,0.1-0.5,0-0.5c-0.2-0.2-0.3,0.1-0.3,0.3
		c-5,3.3-6.7,9.2-4.2,14.8c2.2,5,6.1,8.6,10.3,12c0.2,0.2,0.5,0.3,0.8,0c0.1-0.8-0.6-1.2-1-1.7C116.4,237.7,114.2,234.2,112.7,230.3
		z"/>
	<path id="XMLID_71_" d="M282.4,177.5c2.1,3.4,3.5,7.2,4.5,11.6c1-7.7-6.7-19.9-13-20.7C277.6,171,280.2,174,282.4,177.5z"/>
	<path id="XMLID_72_" d="M198,247.3c-1.7-2.5-4-3.9-7.2-4.4C192.6,246,195,247.5,198,247.3z"/>
	<path id="XMLID_73_" d="M216.3,243.5c-2.6-0.1-4,1.9-5.8,3.1l0,0c0,0,0,0,0,0c0,0,0,0,0,0c0,0,0,0,0,0
		C213,246.6,214.4,244.6,216.3,243.5z"/>
	<path id="XMLID_74_" d="M280.7,184.1c0,0.2,0,0.4,0.3,0.3c-0.1-0.1-0.1-0.3-0.2-0.4C280.8,184,280.7,184.1,280.7,184.1z"/>
	<path id="XMLID_75_" d="M281,184.4C281,184.4,281,184.4,281,184.4L281,184.4L281,184.4L281,184.4L281,184.4
		C281,184.4,281,184.4,281,184.4C281,184.4,281,184.4,281,184.4C281,184.4,281,184.4,281,184.4z"/>
	<path id="XMLID_76_" d="M210.8,246.9c-0.1-0.1-0.2-0.1-0.3-0.2c0.1,0.1,0.1,0.2,0.2,0.3C210.7,247,210.8,246.9,210.8,246.9z"/>
</g>
</svg>
